<?xml version="1.0" encoding="UTF-8" standalone="no"?><!DOCTYPE svg PUBLIC "-//W3C//DTD SVG 1.1//EN" "http://www.w3.org/Graphics/SVG/1.1/DTD/svg11.dtd"><svg width="100%" height="100%" viewBox="0 0 55559 55559" version="1.1" xmlns="http://www.w3.org/2000/svg" xmlns:xlink="http://www.w3.org/1999/xlink" xml:space="preserve" style="fill-rule:evenodd;clip-rule:evenodd;stroke-linejoin:round;stroke-miterlimit:1.41421;"><path d="M27777.8,4665.79c12803.8,0 23112,10308.2 23112,23112c0,12803.8 -10308.2,23112 -23112,23112c-12803.8,0 -23112,-10308.2 -23112,-23112c0,-12803.8 10308.2,-23112 23112,-23112l0,0Z" style="fill:#fec07a;fill-rule:nonzero;"/><path d="M34563.7,31986c0,2969.51 -2125.24,5313.09 -5211.19,5822.56l0,2547.37c0,262.016 -203.789,465.805 -465.804,465.805l-1965.11,0c-247.459,0 -465.805,-203.789 -465.805,-465.805l0,-2547.37c-3406.2,-480.361 -5269.42,-2518.26 -5342.2,-2605.6c-145.564,-174.677 -160.12,-422.136 -29.113,-596.813l1499.31,-1965.11c72.782,-101.894 203.79,-160.12 334.798,-174.676c131.007,-14.557 262.015,29.112 349.353,131.007c29.113,14.557 2067.01,1965.11 4643.49,1965.11c1426.53,0 2969.51,-756.933 2969.51,-2401.81c0,-1397.41 -1717.65,-2081.57 -3682.77,-2867.61c-2620.15,-1033.5 -5880.78,-2343.58 -5880.78,-5997.24c0,-2678.38 2096.12,-4890.95 5138.41,-5473.21l0,-2620.15c0,-262.015 218.346,-465.805 465.805,-465.805l1965.11,0c262.015,0 465.804,203.79 465.804,465.805l0,2561.93c2954.95,334.798 4527.04,1936 4585.27,1994.23c145.564,160.121 174.677,378.467 72.782,553.143l-1179.07,2125.24c-72.782,131.007 -189.233,218.346 -334.797,232.902c-145.564,29.113 -276.572,-14.556 -393.023,-101.895c-14.556,-14.556 -1775.88,-1572.09 -3959.34,-1572.09c-1848.66,0 -3129.63,917.053 -3129.63,2241.69c0,1542.98 1775.88,2227.13 3842.89,3027.73c2678.38,1033.5 5706.11,2212.57 5706.11,5720.66Z" style="fill:#fff;fill-rule:nonzero;"/></svg>