<?xml version="1.0" encoding="UTF-8" standalone="no"?><!DOCTYPE svg PUBLIC "-//W3C//DTD SVG 1.1//EN" "http://www.w3.org/Graphics/SVG/1.1/DTD/svg11.dtd"><svg width="100%" height="100%" viewBox="0 0 3750 834" version="1.1" xmlns="http://www.w3.org/2000/svg" xmlns:xlink="http://www.w3.org/1999/xlink" xml:space="preserve" style="fill-rule:evenodd;clip-rule:evenodd;stroke-linejoin:round;stroke-miterlimit:1.41421;"><g><path d="M492.456,255.072l-215.467,0l0,323.196l251.379,0l0,107.73l-287.285,0c-47.88,0 -71.824,-23.943 -71.824,-71.824l0,-395.015c0,-47.88 23.944,-71.824 71.824,-71.824l287.285,0l-35.912,107.737Z" style="fill-rule:nonzero;"/><path d="M1031.12,614.174c0,47.881 -23.943,71.824 -71.824,71.824l-287.285,0c-47.881,0 -71.824,-23.943 -71.824,-71.824l0,-251.372c0,-47.881 23.943,-71.818 71.824,-71.818l287.285,0c47.881,0 71.824,23.937 71.824,71.818l0,251.372Zm-323.197,-215.46l0,179.554l215.461,0l0,-179.554l-215.461,0Z" style="fill-rule:nonzero;"/><path d="M1533.86,614.174c0,47.881 -23.937,71.824 -71.818,71.824l-287.284,0c-47.881,0 -71.825,-23.943 -71.825,-71.824l0,-251.372c0,-47.881 23.944,-71.818 71.825,-71.818l215.46,0l-35.913,107.73l-143.642,0l0,179.554l215.467,0l0,-430.933l107.73,0l0,466.839Z" style="fill-rule:nonzero;"/><path d="M1964.8,290.984c47.881,0 71.818,23.937 71.818,71.818l0,107.73c0,47.88 -23.937,71.824 -71.818,71.824l-215.466,0l0,-107.73l179.554,0l0,-35.912l-215.467,0l0,179.554l251.016,0l-35.192,107.73l-251.736,0c-47.881,0 -71.818,-23.943 -71.818,-71.824l0,-251.372c0,-47.881 23.937,-71.818 71.818,-71.818l287.291,0Z" style="fill-rule:nonzero;"/></g><g><path d="M2108.76,219.159c0,-47.88 23.944,-71.824 71.825,-71.824l287.285,0c47.88,0 71.817,23.944 71.817,71.824l0,251.373c0,47.88 -23.937,71.824 -71.817,71.824l-215.467,0l35.912,-107.73l143.642,0l0,-179.554l-215.467,0l0,430.926l-107.73,0l0,-466.839Z" style="fill:#48adf0;fill-rule:nonzero;"/><path d="M2719.24,147.335l-35.912,107.737l-71.818,0l0,-107.737l107.73,0Zm-107.73,538.663l0,-395.014l107.73,0l0,395.014l-107.73,0Z" style="fill:#48adf0;fill-rule:nonzero;"/><path d="M3150.17,290.984c47.88,0 71.824,23.937 71.824,71.818l0,107.73c0,47.88 -23.944,71.824 -71.824,71.824l-215.46,0l0,-107.73l179.554,0l0,-35.912l-215.467,0l0,179.554l251.016,0l-35.192,107.73l-251.736,0c-47.881,0 -71.818,-23.943 -71.818,-71.824l0,-251.372c0,-47.881 23.937,-71.818 71.818,-71.818l287.285,0Z" style="fill:#48adf0;fill-rule:nonzero;"/><path d="M3293.81,685.998l0,-323.196c0,-47.881 23.944,-71.818 71.824,-71.818l215.104,0l-35.912,107.73l-143.279,0l0,287.284l-107.737,0Z" style="fill:#48adf0;fill-rule:nonzero;"/></g></svg>