<?xml version="1.0" encoding="UTF-8" standalone="no"?><!DOCTYPE svg PUBLIC "-//W3C//DTD SVG 1.1//EN" "http://www.w3.org/Graphics/SVG/1.1/DTD/svg11.dtd"><svg width="100%" height="100%" viewBox="0 0 20834 6250" version="1.1" xmlns="http://www.w3.org/2000/svg" xmlns:xlink="http://www.w3.org/1999/xlink" xml:space="preserve" style="fill-rule:evenodd;clip-rule:evenodd;stroke-linejoin:round;stroke-miterlimit:1.41421;"><g><g><g><path d="M1685.41,3770.81c-38.567,-23.478 -243.131,105.875 -255.024,299.677c0,32.555 121.288,39.802 213.323,22.541c-72.616,27.45 -203.83,139.63 -213.323,294.505c0,32.438 120.488,39.985 212.414,22.882c-72.84,28.217 -203.001,140.043 -212.414,294.1c0,32.66 120.917,40.248 212.907,23.028c-72.655,27.713 -203.414,139.698 -212.907,294.243c0,32.58 121.288,39.985 213.361,22.762c-72.613,27.687 -203.868,139.738 -213.361,294.283c0,47.086 254.343,42.624 305.553,-14.61c44.409,-49.946 -11.91,-261.5 -50.529,-284.95c-2.775,-1.703 -8.203,-0.95 -12.591,-1.057c27.942,-7.589 51.252,-17.828 63.12,-31.039c44.409,-49.987 -11.91,-261.436 -50.529,-285.032c-2.775,-1.621 -8.203,-0.829 -12.591,-0.975c27.942,-7.747 51.252,-17.828 63.12,-31.197c44.409,-49.87 -11.91,-261.157 -50.529,-284.832c-2.775,-1.742 -8.081,-1.029 -12.469,-1.137c27.82,-7.627 51.21,-17.708 62.998,-30.959c44.409,-49.987 -11.91,-261.62 -50.529,-285.216c-2.893,-1.663 -8.203,-0.988 -12.697,-1.096c27.926,-7.601 51.358,-17.707 63.226,-30.971c44.409,-49.791 -11.91,-261.383 -50.529,-284.953l0,0.003Z" style="fill:#2b2b2b;fill-rule:nonzero;"/><path d="M1068.64,4419.35c0,43.957 239.236,40.182 287.431,-14.081c41.887,-46.887 -11.068,-245.534 -47.395,-267.667c-36.167,-22.116 -228.901,99.345 -240.036,281.748Z" style="fill:#2b2b2b;fill-rule:nonzero;"/><path d="M1068.64,4742.08c0,44.169 239.236,40.172 287.431,-13.856c41.887,-46.821 -11.068,-245.506 -47.395,-267.626c-36.167,-21.97 -228.901,99.107 -240.036,281.482Z" style="fill:#2b2b2b;fill-rule:nonzero;"/><path d="M1068.64,5064.88c0,44.103 239.236,40.394 287.431,-13.935c41.887,-46.862 -11.068,-245.655 -47.395,-267.664c-36.167,-22.053 -228.901,99.342 -240.036,281.599l0,0Z" style="fill:#2b2b2b;fill-rule:nonzero;"/><path d="M704.633,4769.57c0,40.84 222.269,37.293 267.213,-12.881c38.542,-43.457 -10.495,-228.432 -44.115,-248.743c-33.568,-20.507 -212.712,92.469 -223.101,261.624l0.003,0Z" style="fill:#2b2b2b;fill-rule:nonzero;"/><path d="M704.633,5099.53c0,41.24 222.269,37.689 267.213,-12.643c38.542,-43.457 -10.495,-228.023 -44.115,-248.677c-33.568,-20.491 -212.712,92.102 -223.101,261.32l0.003,0Z" style="fill:#2b2b2b;fill-rule:nonzero;"/><path d="M704.633,5430.02c0,40.895 222.269,37.411 267.213,-12.839c38.542,-43.802 -10.495,-228.248 -44.115,-248.559c-33.568,-20.796 -212.712,92.085 -223.101,261.398l0.003,0Z" style="fill:#2b2b2b;fill-rule:nonzero;"/><path d="M268.352,5150.45c0,41.119 222.487,37.414 267.322,-12.919c38.42,-43.536 -10.563,-228.169 -44.528,-248.584c-33.543,-20.625 -212.299,92.31 -222.794,261.503Z" style="fill:#2b2b2b;fill-rule:nonzero;"/><path d="M268.352,5480.57c0,40.964 222.487,37.531 267.322,-12.798c38.42,-43.536 -10.563,-227.944 -44.528,-248.781c-33.543,-20.349 -212.299,92.611 -222.794,261.579l0,0Z" style="fill:#2b2b2b;fill-rule:nonzero;"/><path d="M1068.64,5387.7c0,44.249 239.236,40.435 287.431,-13.828c41.887,-46.795 -11.068,-245.734 -47.395,-267.745c-36.167,-21.971 -228.901,99.344 -240.036,281.56l0,0.013Z" style="fill:#2b2b2b;fill-rule:nonzero;"/><path d="M2027.01,4412.5c0.16,1.926 0.121,4.076 0.16,6.109c-0.839,-1.729 -1.76,-3.734 -2.641,-5.213c0.733,-0.329 1.802,-0.529 2.481,-0.896l0,0Zm3368.85,-1875.15l-1402.9,-2015.63c0,0 -142.32,-521.724 -671.323,-521.724c-427.284,0 -728.027,563.898 -458.945,971.34c248.236,375.338 871.032,1378.14 950.021,1566.02c79.174,188.037 79.174,485.671 -459.415,391.699c-511.452,-89.378 -1364.81,471.698 -1529.68,729.239c-37.473,48.894 -67.04,109.758 -71.361,179.499c0,24.691 70.856,34.813 145.297,30.737c-66.654,51.834 -138.349,141.281 -145.297,253.912c0,24.811 70.827,35.038 145.271,30.959c-66.628,51.691 -138.323,141.176 -145.271,253.889c0,24.571 70.974,34.655 145.457,30.734c-66.654,51.691 -138.509,141.281 -145.457,253.915c0,24.808 70.856,34.851 145.297,30.959c-66.654,51.808 -138.349,141.401 -145.297,253.952c0,24.733 70.974,34.709 145.457,30.734c-66.654,51.733 -138.509,141.139 -145.457,253.928c0,36.055 148.35,41.835 241.303,16.881c333.454,-8.46 663.588,-117.135 663.588,-117.135l173.917,1088.74l126.637,-1159.26c0,0 1155.61,-156.553 1551.41,-1221.99c395.559,-1064.79 -857.922,-2225.71 -968.303,-2664.6l1855.06,1333.2Z" style="fill:#2b2b2b;fill-rule:nonzero;"/></g><path d="M5395.86,2537.35l-2122.01,-1525.1c43.318,-490.54 626.156,8.988 719.106,-490.54l1402.9,2015.64Z" style="fill:#faaf41;fill-rule:nonzero;"/></g><g><g><path d="M7723.24,3708.05l-1371.84,0l0,1359.86l1371.84,0l0,453.169l-1522.9,0c-201.564,0 -301.998,-100.808 -301.998,-302.131l0,-1662.01c0,-201.322 100.434,-302.024 301.998,-302.024l1522.9,0l0,453.13Z" style="fill:#2b2b2b;fill-rule:nonzero;"/><path d="M8478.48,4312.42l0,755.505l906.463,0l0,-755.505l-906.463,0l0,0Zm1359.74,906.543c0,201.323 -100.808,302.131 -301.982,302.131l-1208.87,0c-201.564,0 -302.224,-100.808 -302.224,-302.131l0,-1057.65c0,-201.51 100.66,-302.144 302.224,-302.144l1208.87,-0.003c201.174,0.003 301.982,100.637 301.982,302.147l0,1057.65Z" style="fill:#2b2b2b;fill-rule:nonzero;"/><path d="M11953.2,5218.94c0,201.322 -100.434,302.13 -301.918,302.13l-1208.86,0c-201.174,0 -301.956,-100.808 -301.956,-302.13l0,-1057.65c0,-201.51 100.782,-302.144 301.956,-302.144l906.527,0l-98.695,453.249l-656.497,0l0,755.506l906.421,0l0,-1812.99l453.023,0l0,1964.03Z" style="fill:#2b2b2b;fill-rule:nonzero;"/><path d="M13766.4,3859.15c201.603,0 302.292,100.634 302.292,302.144l0,453.172c0,201.564 -100.689,302.253 -302.292,302.253l-906.182,0l0,-453.401l755.115,0l0,-150.918l-906.463,0l0,755.505l1056.14,0l-95.805,453.169l-1111.32,0c-201.484,0 -302.295,-100.808 -302.295,-302.131l0,-1057.65c0,-201.51 100.811,-302.144 302.295,-302.144l1208.51,0Z" style="fill:#2b2b2b;fill-rule:nonzero;"/></g><g><path d="M14372.1,3556.94c0,-201.323 100.863,-302.024 302.295,-302.024l1208.44,0c201.564,0 302.253,100.701 302.253,302.024l0,1057.53c0,201.565 -100.689,302.25 -302.253,302.25l-906.463,0l0,-453.397l755.544,0l0,-755.277l-906.569,0l0,1813.03l-453.252,0l0,-1964.14Z" style="fill:#48acf0;fill-rule:nonzero;"/><path d="M16487.2,5521.09l0,-1661.93l453.104,0.004l0,1661.92l-453.104,0Zm505.514,-2266.16l-98.628,453.13l-406.886,0l0,-453.13" style="fill:#48acf0;fill-rule:nonzero;"/><path d="M18753.5,3859.15c201.604,0 302.454,100.634 302.454,302.144l0,453.172c0,201.564 -100.85,302.253 -302.454,302.253l-906.14,0l0,-453.401l755.193,0l0.003,-150.918l-906.586,0l0,755.505l1056,0l-95.508,453.169l-1111.36,0c-201.51,0 -302.36,-100.808 -302.36,-302.131l0,-1057.65c0,-201.51 100.85,-302.144 302.36,-302.144l1208.41,0Z" style="fill:#48acf0;fill-rule:nonzero;"/><path d="M19358,5521.09l0,-1359.78c0,-201.51 100.395,-302.143 301.956,-302.143l904.996,0l-98.669,453.249l-655.073,0l0.004,1208.67l-453.214,0Z" style="fill:#48acf0;fill-rule:nonzero;"/></g></g></g></svg>