<svg viewBox="0 0 5000 5000" xmlns="http://www.w3.org/2000/svg" fill-rule="evenodd" clip-rule="evenodd" stroke-linejoin="round" stroke-miterlimit="1.414"><g fill-rule="nonzero"><g fill="#2b2b2b"><path d="M2148.27 2320.44c-12.05-7.413-75.963 33.429-79.679 94.62 0 10.279 37.895 12.567 66.65 7.117-22.688 8.667-63.684 44.087-66.65 92.987 0 10.242 37.645 12.625 66.366 7.225-22.758 8.909-63.425 44.217-66.366 92.859 0 10.312 37.779 12.708 66.52 7.271-22.7 8.75-63.554 44.108-66.52 92.904 0 10.287 37.895 12.625 66.662 7.187-22.687 8.742-63.696 44.121-66.662 92.917 0 14.867 79.466 13.458 95.466-4.613 13.875-15.77-3.721-82.566-15.787-89.97-.867-.538-2.563-.3-3.934-.334 8.73-2.396 16.013-5.629 19.721-9.8 13.875-15.783-3.721-82.546-15.787-89.996-.867-.512-2.563-.262-3.934-.308 8.73-2.446 16.013-5.629 19.721-9.85 13.875-15.746-3.721-82.458-15.787-89.933-.867-.55-2.525-.325-3.896-.359 8.692-2.408 16-5.591 19.683-9.775 13.875-15.783-3.721-82.604-15.787-90.054-.904-.525-2.563-.312-3.967-.346 8.725-2.4 16.046-5.591 19.754-9.779 13.875-15.721-3.721-82.529-15.787-89.971zm-192.7 204.77c0 13.879 74.746 12.687 89.804-4.446 13.087-14.804-3.458-77.525-14.808-84.513-11.3-6.983-71.517 31.367-74.996 88.959zm0 101.9c0 13.946 74.746 12.684 89.804-4.375 13.087-14.783-3.458-77.516-14.808-84.5-11.3-6.937-71.517 31.292-74.996 88.875zm0 101.92c0 13.925 74.746 12.754 89.804-4.4 13.087-14.796-3.458-77.563-14.808-84.512-11.3-6.963-71.517 31.366-74.996 88.912zm-113.73-93.24c0 12.895 69.445 11.775 83.487-4.067 12.042-13.721-3.279-72.125-13.783-78.538-10.488-6.475-66.459 29.196-69.705 82.605zm0 104.18c0 13.021 69.445 11.9 83.487-3.992 12.042-13.721-3.279-71.996-13.783-78.517-10.488-6.47-66.459 29.08-69.705 82.509zm0 104.35c0 12.912 69.445 11.812 83.487-4.054 12.042-13.83-3.279-72.067-13.783-78.48-10.488-6.566-66.459 29.075-69.705 82.534zm-136.31-88.27c0 12.983 69.513 11.813 83.521-4.079 12.004-13.746-3.3-72.042-13.912-78.488-10.48-6.512-66.33 29.146-69.609 82.567zm0 104.23c0 12.934 69.513 11.85 83.521-4.041 12.004-13.746-3.3-71.971-13.912-78.55-10.48-6.425-66.33 29.241-69.609 82.591zm250.04-29.32c0 13.971 74.746 12.767 89.804-4.366 13.087-14.775-3.458-77.588-14.808-84.538-11.3-6.937-71.517 31.367-74.996 88.9v.004z"/><path d="M2255 2523.05c.05.608.038 1.287.05 1.929-.262-.546-.55-1.179-.825-1.646.229-.104.563-.167.775-.283zm1052.55-592.059l-438.317-636.416s-44.466-164.729-209.746-164.729c-133.499 0-227.462 178.045-143.391 306.691 77.558 118.509 272.142 435.134 296.821 494.454 24.737 59.371 24.737 153.346-143.538 123.675-159.796-28.22-426.416 148.934-477.929 230.25-11.708 15.438-20.946 34.655-22.296 56.675 0 7.796 22.138 10.992 45.396 9.705-20.825 16.366-43.225 44.608-45.396 80.17 0 7.834 22.129 11.063 45.388 9.775-20.817 16.321-43.217 44.575-45.388 80.163 0 7.758 22.175 10.942 45.446 9.704-20.825 16.321-43.275 44.608-45.446 80.171 0 7.833 22.138 11.004 45.396 9.775-20.825 16.358-43.225 44.646-45.396 80.183 0 7.809 22.175 10.959 45.446 9.704-20.825 16.334-43.275 44.563-45.446 80.175 0 11.384 46.35 13.209 75.392 5.33 104.183-2.671 207.329-36.984 207.329-36.984l54.338 343.759 39.566-366.025s361.054-49.43 484.717-385.83c123.587-336.195-268.046-702.745-302.533-841.32l579.587 420.945z"/></g><path d="M3307.55 1930.99l-662.992-481.534c13.534-154.883 195.634 2.838 224.675-154.883l438.317 636.417z" fill="#faaf41"/><path d="M794.704 3308.88H370.013v420.984h424.691v140.291H323.246c-62.4 0-93.492-31.208-93.492-93.533v-514.521c0-62.325 31.092-93.5 93.492-93.5h471.458v140.279zm233.806 187.1v233.888h280.621V3495.98H1028.51zm420.946 280.646c0 62.325-31.208 93.533-93.487 93.533H981.731c-62.4 0-93.562-31.208-93.562-93.533v-327.425c0-62.383 31.162-93.537 93.562-93.537l374.238-.001c62.279.001 93.487 31.155 93.487 93.538v327.425zm654.764-.006c0 62.325-31.092 93.533-93.467 93.533h-374.237c-62.279 0-93.479-31.208-93.479-93.533v-327.425c0-62.383 31.2-93.537 93.479-93.537h280.641l-30.554 140.316h-203.237v233.888h280.608v-561.263h140.246v608.021zm561.3-420.96c62.412 0 93.583 31.154 93.583 93.537v140.292c0 62.4-31.171 93.571-93.583 93.571h-280.534v-140.363h233.767v-46.721h-280.621v233.888h326.959l-29.659 140.291h-344.041c-62.375 0-93.584-31.208-93.584-93.533v-327.425c0-62.383 31.209-93.537 93.584-93.537h374.129z" fill="#2b2b2b"/><path d="M2853.05 3262.1c0-62.325 31.225-93.5 93.584-93.5h374.108c62.4 0 93.571 31.175 93.571 93.5v327.388c0 62.4-31.171 93.57-93.571 93.57h-280.621v-140.362h233.9v-233.817h-280.654v561.275H2853.05V3262.1zm654.78 608.06v-514.496l140.271.001v514.495H3507.83zm156.496-701.554l-30.533 140.279H3507.83v-140.279m701.59 187.054c62.412 0 93.633 31.154 93.633 93.537v140.292c0 62.4-31.221 93.571-93.633 93.571h-280.521v-140.363h233.791l.001-46.721h-280.659v233.888h326.913l-29.567 140.291h-344.054c-62.383 0-93.604-31.208-93.604-93.533v-327.425c0-62.383 31.221-93.537 93.604-93.537h374.096zm187.16 514.5v-420.958c0-62.383 31.08-93.537 93.479-93.537h280.167l-30.546 140.316h-202.796l.001 374.179H4396.58z" fill="#48acf0"/></g></svg>