<svg viewBox="0 0 3236 500" xmlns="http://www.w3.org/2000/svg" fill-rule="evenodd" clip-rule="evenodd" stroke-linejoin="round" stroke-miterlimit="1.414"><g fill-rule="nonzero"><path d="M402.64 99.979H99.962v300.035H402.64V500H66.632C22.159 500 0 477.758 0 433.339v-366.7C0 22.222 22.16.003 66.632.003H402.64V99.98zm166.633 133.343v166.692H769.27V233.322H569.273zm300.01 200.017c0 44.419-22.245 66.66-66.628 66.66H535.933c-44.473 0-66.682-22.241-66.682-66.66V199.983c0-44.461 22.21-66.664 66.682-66.664h266.722c44.383 0 66.627 22.203 66.627 66.664v233.356zm466.654 0c0 44.419-22.159 66.66-66.618 66.66h-266.717c-44.383 0-66.617-22.241-66.617-66.66V199.983c0-44.461 22.234-66.664 66.617-66.664h200.014l-21.779 100.003h-144.845v166.692h199.995V.002h99.95V433.34zm400.037-300.02c44.478 0 66.693 22.203 66.693 66.664v99.986c0 44.472-22.215 66.688-66.693 66.688h-199.938V266.62h166.605v-33.298h-199.995v166.692h233.024L1714.527 500h-245.194c-44.46 0-66.703-22.242-66.703-66.661V199.983c0-44.461 22.244-66.664 66.703-66.664h266.64z" fill="#2b2b2b"/><path d="M1869.626 66.64c0-44.42 22.253-66.638 66.693-66.638h266.632c44.468 0 66.684 22.219 66.684 66.638v233.329c0 44.472-22.216 66.688-66.684 66.688h-199.995V266.62h166.7V99.98h-200.023V500h-100.007V66.64zM2336.29 500V133.319h99.97v366.68h-99.97zM2447.822.002l-21.76 99.977h-89.772V.002m500.016 133.317c44.478 0 66.731 22.203 66.731 66.664v99.986c0 44.472-22.253 66.688-66.731 66.688h-199.929V266.62h166.625v-33.298h-200.024v166.692h232.986L2814.897 500h-245.213c-44.46 0-66.703-22.242-66.703-66.661V199.983c0-44.461 22.244-66.664 66.703-66.664h266.622zM2969.702 500V199.983c0-44.461 22.149-66.664 66.627-66.664H3236l-21.77 100.003H3069.7V500h-99.997z" fill="#48acf0"/></g></svg>