<?xml version="1.0" encoding="UTF-8" standalone="no"?><!DOCTYPE svg PUBLIC "-//W3C//DTD SVG 1.1//EN" "http://www.w3.org/Graphics/SVG/1.1/DTD/svg11.dtd"><svg width="100%" height="100%" viewBox="0 0 5000 2917" version="1.1" xmlns="http://www.w3.org/2000/svg" xmlns:xlink="http://www.w3.org/1999/xlink" xml:space="preserve" style="fill-rule:evenodd;clip-rule:evenodd;stroke-linejoin:round;stroke-miterlimit:1.41421;"><g><g><g><path d="M2148.27,1278.77c-12.05,-7.413 -75.963,33.429 -79.679,94.621c0,10.279 37.895,12.566 66.65,7.116c-22.688,8.667 -63.684,44.088 -66.65,92.988c0,10.241 37.645,12.625 66.366,7.225c-22.758,8.908 -63.425,44.216 -66.366,92.858c0,10.313 37.779,12.708 66.52,7.271c-22.7,8.75 -63.554,44.108 -66.52,92.904c0,10.288 37.895,12.625 66.662,7.188c-22.687,8.741 -63.696,44.121 -66.662,92.916c0,14.867 79.466,13.459 95.466,-4.612c13.875,-15.771 -3.721,-82.567 -15.787,-89.971c-0.867,-0.537 -2.563,-0.3 -3.934,-0.333c8.73,-2.396 16.013,-5.63 19.721,-9.8c13.875,-15.784 -3.721,-82.546 -15.787,-89.996c-0.867,-0.513 -2.563,-0.263 -3.934,-0.308c8.73,-2.446 16.013,-5.63 19.721,-9.851c13.875,-15.745 -3.721,-82.458 -15.787,-89.933c-0.867,-0.55 -2.525,-0.325 -3.896,-0.358c8.692,-2.408 16,-5.592 19.683,-9.775c13.875,-15.784 -3.721,-82.604 -15.787,-90.054c-0.904,-0.525 -2.563,-0.313 -3.967,-0.346c8.725,-2.4 16.046,-5.592 19.754,-9.779c13.875,-15.721 -3.721,-82.529 -15.787,-89.971l0,0Z" style="fill:#fff;fill-rule:nonzero;"/><path d="M1955.57,1483.55c0,13.879 74.746,12.687 89.804,-4.446c13.087,-14.804 -3.458,-77.525 -14.808,-84.512c-11.3,-6.984 -71.517,31.366 -74.996,88.958Z" style="fill:#fff;fill-rule:nonzero;"/><path d="M1955.57,1585.44c0,13.946 74.746,12.683 89.804,-4.375c13.087,-14.784 -3.458,-77.517 -14.808,-84.5c-11.3,-6.938 -71.517,31.291 -74.996,88.875l0,0Z" style="fill:#fff;fill-rule:nonzero;"/><path d="M1955.57,1687.36c0,13.925 74.746,12.755 89.804,-4.4c13.087,-14.796 -3.458,-77.562 -14.808,-84.512c-11.3,-6.963 -71.517,31.367 -74.996,88.912l0,0Z" style="fill:#fff;fill-rule:nonzero;"/><path d="M1841.84,1594.12c0,12.896 69.445,11.775 83.487,-4.067c12.042,-13.721 -3.279,-72.125 -13.783,-78.537c-10.488,-6.475 -66.459,29.195 -69.705,82.604Z" style="fill:#fff;fill-rule:nonzero;"/><path d="M1841.84,1698.3c0,13.021 69.445,11.9 83.487,-3.992c12.042,-13.72 -3.279,-71.995 -13.783,-78.516c-10.488,-6.471 -66.459,29.079 -69.705,82.508Z" style="fill:#fff;fill-rule:nonzero;"/><path d="M1841.84,1802.65c0,12.913 69.445,11.813 83.487,-4.054c12.042,-13.829 -3.279,-72.067 -13.783,-78.479c-10.488,-6.567 -66.459,29.075 -69.705,82.533Z" style="fill:#fff;fill-rule:nonzero;"/><path d="M1705.53,1714.38c0,12.984 69.513,11.813 83.521,-4.079c12.004,-13.746 -3.3,-72.042 -13.912,-78.487c-10.48,-6.513 -66.33,29.145 -69.609,82.566Z" style="fill:#fff;fill-rule:nonzero;"/><path d="M1705.53,1818.61c0,12.933 69.513,11.85 83.521,-4.042c12.004,-13.746 -3.3,-71.971 -13.912,-78.55c-10.48,-6.425 -66.33,29.241 -69.609,82.591Z" style="fill:#fff;fill-rule:nonzero;"/><path d="M1955.57,1789.29c0,13.97 74.746,12.766 89.804,-4.367c13.087,-14.775 -3.458,-77.588 -14.808,-84.538c-11.3,-6.937 -71.517,31.367 -74.996,88.9l0,0.005Z" style="fill:#fff;fill-rule:nonzero;"/><path d="M2255,1481.38c0.05,0.608 0.038,1.288 0.05,1.929c-0.262,-0.546 -0.55,-1.179 -0.825,-1.646c0.229,-0.104 0.563,-0.166 0.775,-0.283Zm1052.55,-592.058l-438.317,-636.417c0,0 -44.466,-164.729 -209.746,-164.729c-133.499,0 -227.462,178.046 -143.391,306.692c77.558,118.508 272.142,435.133 296.821,494.454c24.737,59.371 24.737,153.346 -143.538,123.675c-159.796,-28.221 -426.416,148.933 -477.929,230.25c-11.708,15.437 -20.946,34.654 -22.296,56.675c0,7.796 22.138,10.991 45.396,9.704c-20.825,16.367 -43.225,44.608 -45.396,80.171c0,7.833 22.129,11.062 45.388,9.775c-20.817,16.321 -43.217,44.575 -45.388,80.162c0,7.759 22.175,10.942 45.446,9.704c-20.825,16.321 -43.275,44.609 -45.446,80.171c0,7.834 22.138,11.004 45.396,9.775c-20.825,16.359 -43.225,44.646 -45.396,80.184c0,7.808 22.175,10.958 45.446,9.704c-20.825,16.333 -43.275,44.562 -45.446,80.175c0,11.383 46.35,13.208 75.392,5.329c104.183,-2.671 207.329,-36.983 207.329,-36.983l54.338,343.758l39.566,-366.025c0,0 361.054,-49.429 484.717,-385.829c123.587,-336.196 -268.046,-702.746 -302.533,-841.321l579.587,420.946Z" style="fill:#fff;fill-rule:nonzero;"/></g><path d="M3307.55,889.321l-662.992,-481.533c13.534,-154.884 195.634,2.837 224.675,-154.884l438.317,636.417Z" style="fill:#faaf41;fill-rule:nonzero;"/></g><g><g><path d="M794.704,2267.22l-424.691,0l0,420.983l424.691,0l0,140.292l-471.458,0c-62.4,0 -93.492,-31.209 -93.492,-93.534l0,-514.521c0,-62.325 31.092,-93.5 93.492,-93.5l471.458,0l0,140.28Z" style="fill:#fff;fill-rule:nonzero;"/><path d="M1028.51,2454.31l0,233.887l280.621,0l0,-233.888l-280.621,0l0,0Zm420.946,280.646c0,62.325 -31.208,93.534 -93.487,93.534l-374.238,0c-62.4,0 -93.562,-31.209 -93.562,-93.534l0,-327.425c0,-62.383 31.162,-93.537 93.562,-93.537l374.238,0c62.279,0 93.487,31.154 93.487,93.537l0,327.425Z" style="fill:#fff;fill-rule:nonzero;"/><path d="M2104.22,2734.96c0,62.325 -31.092,93.534 -93.467,93.534l-374.237,0c-62.279,0 -93.479,-31.209 -93.479,-93.534l0,-327.425c0,-62.383 31.2,-93.537 93.479,-93.537l280.641,0l-30.554,140.317l-203.237,0l0,233.887l280.608,0l0,-561.262l140.246,0l0,608.02Z" style="fill:#fff;fill-rule:nonzero;"/><path d="M2665.52,2314c62.412,0 93.583,31.154 93.583,93.537l0,140.292c0,62.4 -31.171,93.571 -93.583,93.571l-280.534,0l0,-140.363l233.767,0l0,-46.72l-280.621,-0.001l0,233.888l326.959,0l-29.659,140.292l-344.041,0c-62.375,0 -93.584,-31.209 -93.584,-93.534l0,-327.425c0,-62.383 31.209,-93.537 93.584,-93.537l374.129,0Z" style="fill:#fff;fill-rule:nonzero;"/></g><g><path d="M2853.05,2220.44c0,-62.325 31.225,-93.501 93.584,-93.501l374.108,0.001c62.4,-0.001 93.571,31.174 93.571,93.499l0,327.388c0,62.4 -31.171,93.571 -93.571,93.571l-280.621,0l0,-140.363l233.9,0l0,-233.816l-280.654,0l0,561.275l-140.317,0l0,-608.055Z" style="fill:#48acf0;fill-rule:nonzero;"/><path d="M3507.83,2828.49l0,-514.496l140.271,0l0,514.496l-140.271,0Zm156.496,-701.555l-30.533,140.28l-125.963,0l0,-140.28" style="fill:#48acf0;fill-rule:nonzero;"/><path d="M4209.42,2314c62.412,0 93.633,31.154 93.633,93.537l0,140.292c0,62.4 -31.221,93.571 -93.633,93.571l-280.521,0l0,-140.363l233.791,0l0.001,-46.72l-280.659,-0.001l0,233.888l326.913,0l-29.567,140.292l-344.054,0c-62.383,0 -93.604,-31.209 -93.604,-93.534l0,-327.425c0,-62.383 31.221,-93.537 93.604,-93.537l374.096,0Z" style="fill:#48acf0;fill-rule:nonzero;"/><path d="M4396.58,2828.49l0,-420.959c0,-62.383 31.08,-93.537 93.479,-93.537l280.167,0l-30.546,140.317l-202.796,0l0.001,374.179l-140.305,0l0,0Z" style="fill:#48acf0;fill-rule:nonzero;"/></g></g></g></svg>