<?xml version="1.0" encoding="UTF-8" standalone="no"?><!DOCTYPE svg PUBLIC "-//W3C//DTD SVG 1.1//EN" "http://www.w3.org/Graphics/SVG/1.1/DTD/svg11.dtd"><svg width="100%" height="100%" viewBox="0 0 4200 834" version="1.1" xmlns="http://www.w3.org/2000/svg" xmlns:xlink="http://www.w3.org/1999/xlink" xml:space="preserve" style="fill-rule:evenodd;clip-rule:evenodd;stroke-linejoin:round;stroke-miterlimit:1.41421;"><rect x="0" y="0" width="4200" height="834" style="fill:#3c3f41;"/><g><g><path d="M593.733,258.843l-319.091,0l0,316.305l319.091,0l0,105.408l-354.229,0c-46.884,0 -70.245,-23.449 -70.245,-70.276l0,-386.585c0,-46.828 23.361,-70.251 70.245,-70.251l354.229,0l0,105.399Z" style="fill:#fff;fill-rule:nonzero;"/><path d="M769.402,399.417l0,175.731l210.844,0l0,-175.731l-210.844,0l0,0Zm316.277,210.863c0,46.827 -23.449,70.276 -70.242,70.276l-281.183,0c-46.884,0 -70.298,-23.449 -70.298,-70.276l0,-246.011c0,-46.871 23.414,-70.279 70.298,-70.279l281.183,0c46.793,0 70.242,23.408 70.242,70.279l0,246.011Z" style="fill:#fff;fill-rule:nonzero;"/><path d="M1577.64,610.28c0,46.827 -23.361,70.276 -70.226,70.276l-281.183,0c-46.793,0 -70.236,-23.449 -70.236,-70.276l0,-246.011c0,-46.871 23.443,-70.279 70.236,-70.279l210.86,0l-22.957,105.427l-152.702,0l0,175.731l210.834,0l0,-421.704l105.374,0l0,456.836Z" style="fill:#fff;fill-rule:nonzero;"/><path d="M1999.37,293.99c46.894,0 70.314,23.408 70.314,70.279l0,105.408c0,46.885 -23.42,70.305 -70.314,70.305l-210.778,0l0,-105.461l175.64,0l0,-35.104l-210.844,0l0,175.731l245.66,0l-22.284,105.408l-258.495,0c-46.865,0 -70.314,-23.449 -70.314,-70.276l0,-246.011c0,-46.871 23.449,-70.279 70.314,-70.279l281.101,0Z" style="fill:#fff;fill-rule:nonzero;"/></g><g><path d="M2140.27,223.695c0,-46.828 23.461,-70.251 70.314,-70.251l281.086,0c46.884,0 70.304,23.423 70.304,70.251l0,245.982c0,46.885 -23.42,70.305 -70.304,70.305l-210.844,0l0,-105.461l175.74,0l0,-175.678l-210.869,0l0,421.713l-105.427,0l0,-456.861Z" style="fill:#48acf0;fill-rule:nonzero;"/><path d="M2632.24,680.556l0,-386.566l105.392,0l0,386.566l-105.392,0Zm117.583,-527.112l-22.942,105.399l-94.641,0l0,-105.399" style="fill:#48acf0;fill-rule:nonzero;"/><path d="M3159.37,293.99c46.894,0 70.352,23.408 70.352,70.279l0,105.408c0,46.885 -23.458,70.305 -70.352,70.305l-210.769,0l0,-105.461l175.659,0l0,-35.104l-210.872,0l0,175.731l245.625,0l-22.214,105.408l-258.505,0c-46.872,0 -70.329,-23.449 -70.329,-70.276l0,-246.011c0,-46.871 23.457,-70.279 70.329,-70.279l281.076,0Z" style="fill:#48acf0;fill-rule:nonzero;"/><path d="M3300,680.556l0,-316.287c0,-46.871 23.351,-70.279 70.235,-70.279l210.503,0l-22.951,105.427l-152.37,0l0,281.139l-105.417,0l0,0Z" style="fill:#48acf0;fill-rule:nonzero;"/></g></g><g><path d="M4051.28,360.541c-8.597,-33.965 -41.625,-54.152 -73.71,-45.051l-723.741,205.292c-32.085,9.101 -51.153,44.065 -42.557,78.031l31.154,123.082c8.597,33.965 41.626,54.151 73.71,45.05l723.741,-205.292c32.085,-9.101 51.154,-44.065 42.557,-78.03l-31.154,-123.082l0,0Z" style="fill:#fff;"/><g transform="matrix(0.962046,-0.272889,0.245475,0.969822,-40.7763,949.214)"><text x="3401.85px" y="692.095px" style="font-family:'PTMono-Regular', 'PT Mono', monospace;font-size:240.334px;fill:#f4645f;">B<tspan x="3539.17px 3676.49px 3813.81px " y="692.095px 692.095px 692.095px ">ETA</tspan></text></g></g></svg>