<svg viewBox="0 0 20834 6250" xmlns="http://www.w3.org/2000/svg" fill-rule="evenodd" clip-rule="evenodd" stroke-linejoin="round" stroke-miterlimit="1.414"><g fill-rule="nonzero"><g fill="#2b2b2b"><path d="M1685.41 3770.81c-38.567-23.478-243.131 105.875-255.024 299.677 0 32.555 121.288 39.802 213.323 22.541-72.616 27.45-203.83 139.63-213.323 294.505 0 32.438 120.488 39.985 212.414 22.882-72.84 28.217-203.001 140.043-212.414 294.1 0 32.66 120.917 40.248 212.907 23.028-72.655 27.713-203.414 139.698-212.907 294.243 0 32.58 121.288 39.985 213.361 22.762-72.613 27.687-203.868 139.738-213.361 294.283 0 47.086 254.343 42.624 305.553-14.61 44.409-49.946-11.91-261.5-50.529-284.95-2.775-1.703-8.203-.95-12.591-1.057 27.942-7.589 51.252-17.828 63.12-31.039 44.409-49.987-11.91-261.436-50.529-285.032-2.775-1.621-8.203-.829-12.591-.975 27.942-7.747 51.252-17.828 63.12-31.197 44.409-49.87-11.91-261.157-50.529-284.832-2.775-1.742-8.081-1.029-12.469-1.137 27.82-7.627 51.21-17.708 62.998-30.959 44.409-49.987-11.91-261.62-50.529-285.216-2.893-1.663-8.203-.988-12.697-1.096 27.926-7.601 51.358-17.707 63.226-30.971 44.409-49.791-11.91-261.383-50.529-284.953v.003zm-616.77 648.54c0 43.957 239.236 40.182 287.431-14.081 41.887-46.887-11.068-245.534-47.395-267.667-36.167-22.116-228.901 99.345-240.036 281.748zm0 322.73c0 44.169 239.236 40.172 287.431-13.856 41.887-46.821-11.068-245.506-47.395-267.626-36.167-21.97-228.901 99.107-240.036 281.482zm0 322.8c0 44.103 239.236 40.394 287.431-13.935 41.887-46.862-11.068-245.655-47.395-267.664-36.167-22.053-228.901 99.342-240.036 281.599zm-364.007-295.31c0 40.84 222.269 37.293 267.213-12.881 38.542-43.457-10.495-228.432-44.115-248.743-33.568-20.507-212.712 92.469-223.101 261.624h.003zm0 329.96c0 41.24 222.269 37.689 267.213-12.643 38.542-43.457-10.495-228.023-44.115-248.677-33.568-20.491-212.712 92.102-223.101 261.32h.003zm0 330.49c0 40.895 222.269 37.411 267.213-12.839 38.542-43.802-10.495-228.248-44.115-248.559-33.568-20.796-212.712 92.085-223.101 261.398h.003zm-436.281-279.57c0 41.119 222.487 37.414 267.322-12.919 38.42-43.536-10.563-228.169-44.528-248.584-33.543-20.625-212.299 92.31-222.794 261.503zm0 330.12c0 40.964 222.487 37.531 267.322-12.798 38.42-43.536-10.563-227.944-44.528-248.781-33.543-20.349-212.299 92.611-222.794 261.579zm800.288-92.87c0 44.249 239.236 40.435 287.431-13.828 41.887-46.795-11.068-245.734-47.395-267.745-36.167-21.971-228.901 99.344-240.036 281.56v.013z"/><path d="M2027.01 4412.5c.16 1.926.121 4.076.16 6.109-.839-1.729-1.76-3.734-2.641-5.213.733-.329 1.802-.529 2.481-.896zm3368.85-1875.15L3992.96 521.72S3850.64-.004 3321.637-.004c-427.284 0-728.027 563.898-458.945 971.34 248.236 375.338 871.032 1378.14 950.021 1566.02 79.174 188.037 79.174 485.671-459.415 391.699-511.452-89.378-1364.81 471.698-1529.68 729.239-37.473 48.894-67.04 109.758-71.361 179.499 0 24.691 70.856 34.813 145.297 30.737-66.654 51.834-138.349 141.281-145.297 253.912 0 24.811 70.827 35.038 145.271 30.959-66.628 51.691-138.323 141.176-145.271 253.889 0 24.571 70.974 34.655 145.457 30.734-66.654 51.691-138.509 141.281-145.457 253.915 0 24.808 70.856 34.851 145.297 30.959-66.654 51.808-138.349 141.401-145.297 253.952 0 24.733 70.974 34.709 145.457 30.734-66.654 51.733-138.509 141.139-145.457 253.928 0 36.055 148.35 41.835 241.303 16.881 333.454-8.46 663.588-117.135 663.588-117.135l173.917 1088.74 126.637-1159.26s1155.61-156.553 1551.41-1221.99c395.559-1064.79-857.922-2225.71-968.303-2664.6l1855.06 1333.2z"/></g><path d="M5395.86 2537.35l-2122.01-1525.1c43.318-490.54 626.156 8.988 719.106-490.54l1402.9 2015.64z" fill="#faaf41"/><path d="M7723.24 3708.05H6351.4v1359.86h1371.84v453.169h-1522.9c-201.564 0-301.998-100.808-301.998-302.131v-1662.01c0-201.322 100.434-302.024 301.998-302.024h1522.9v453.13zm755.24 604.37v755.505h906.463V4312.42H8478.48zm1359.74 906.543c0 201.323-100.808 302.131-301.982 302.131h-1208.87c-201.564 0-302.224-100.808-302.224-302.131v-1057.65c0-201.51 100.66-302.144 302.224-302.144l1208.87-.003c201.174.003 301.982 100.637 301.982 302.147v1057.65zm2114.98-.023c0 201.322-100.434 302.13-301.918 302.13h-1208.86c-201.174 0-301.956-100.808-301.956-302.13V4161.29c0-201.51 100.782-302.144 301.956-302.144h906.527l-98.695 453.249h-656.497v755.506h906.421v-1812.99h453.023v1964.03zm1813.2-1359.79c201.603 0 302.292 100.634 302.292 302.144v453.172c0 201.564-100.689 302.253-302.292 302.253h-906.182v-453.401h755.115V4312.4h-906.463v755.505h1056.14l-95.805 453.169h-1111.32c-201.484 0-302.295-100.808-302.295-302.131v-1057.65c0-201.51 100.811-302.144 302.295-302.144h1208.51z" fill="#2b2b2b"/><path d="M14372.1 3556.94c0-201.323 100.863-302.024 302.295-302.024h1208.44c201.564 0 302.253 100.701 302.253 302.024v1057.53c0 201.565-100.689 302.25-302.253 302.25h-906.463v-453.397h755.544v-755.277h-906.569v1813.03h-453.252v-1964.14zm2115.1 1964.15V3859.16l453.104.004v1661.92H16487.2zm505.514-2266.16l-98.628 453.13H16487.2v-453.13m2266.3 604.22c201.604 0 302.454 100.634 302.454 302.144v453.172c0 201.564-100.85 302.253-302.454 302.253h-906.14v-453.401h755.193l.003-150.918h-906.586v755.505h1056l-95.508 453.169h-1111.36c-201.51 0-302.36-100.808-302.36-302.131v-1057.65c0-201.51 100.85-302.144 302.36-302.144h1208.41zm604.5 1661.94V4161.31c0-201.51 100.395-302.143 301.956-302.143h904.996l-98.669 453.249h-655.073l.004 1208.67H19358z" fill="#48acf0"/></g></svg>