<?xml version="1.0" encoding="UTF-8" standalone="no"?><!DOCTYPE svg PUBLIC "-//W3C//DTD SVG 1.1//EN" "http://www.w3.org/Graphics/SVG/1.1/DTD/svg11.dtd"><svg width="100%" height="100%" viewBox="0 0 17500 3475" version="1.1" xmlns="http://www.w3.org/2000/svg" xmlns:xlink="http://www.w3.org/1999/xlink" xml:space="preserve" style="fill-rule:evenodd;clip-rule:evenodd;stroke-linejoin:round;stroke-miterlimit:1.41421;"><g><g><path d="M2473.89,1078.51l-1329.55,0l0,1317.94l1329.55,0l0,439.2l-1475.95,0c-195.35,0 -292.687,-97.704 -292.687,-292.817l0,-1610.77c0,-195.117 97.337,-292.713 292.687,-292.713l1475.95,0l0,439.163Z" style="fill:#fff;fill-rule:nonzero;"/><path d="M3205.84,1664.24l0,732.212l878.516,0l0,-732.213l-878.516,0l0,0.001Zm1317.82,878.595c-0.001,195.113 -97.705,292.817 -292.675,292.817l-1171.6,0c-195.35,0 -292.909,-97.704 -292.909,-292.817l0,-1025.05c0,-195.296 97.559,-292.83 292.909,-292.83l1171.6,0c194.97,0 292.675,97.534 292.675,292.83l-0.001,1025.05Z" style="fill:#fff;fill-rule:nonzero;"/><path d="M6573.5,2542.83c0,195.113 -97.337,292.817 -292.608,292.817l-1171.6,0c-194.971,0 -292.65,-97.704 -292.65,-292.817l0,-1025.05c0,-195.296 97.679,-292.83 292.65,-292.83l878.583,0l-95.654,439.28l-636.258,0l0,732.212l878.475,0l0,-1757.1l439.058,0l0,1903.48Z" style="fill:#fff;fill-rule:nonzero;"/><path d="M8330.71,1224.96c195.392,0 292.975,97.534 292.975,292.83l0,439.2c0,195.354 -97.583,292.937 -292.975,292.937l-878.241,0l0,-439.421l731.833,0l0,-146.267l-878.517,0l0,732.213l1023.58,0l-92.85,439.2l-1077.06,0c-195.271,0 -292.975,-97.704 -292.975,-292.817l0,-1025.05c0,-195.296 97.704,-292.83 292.975,-292.83l1171.25,0Z" style="fill:#fff;fill-rule:nonzero;"/></g><g><path d="M8917.79,932.063c0,-195.117 97.754,-292.713 292.975,-292.713l1171.19,0c195.35,0 292.934,97.596 292.934,292.713l0,1024.92c0,195.354 -97.584,292.937 -292.934,292.937l-878.516,0l0,-439.421l732.25,0l0,-731.991l-878.621,0l0,1757.14l-439.279,0l0,-1903.59l0,0Z" style="fill:#48acf0;fill-rule:nonzero;"/><path d="M10967.7,2835.65l0,-1610.69l439.133,0l0,1610.69l-439.133,0Zm489.929,-2196.3l-95.592,439.163l-394.337,0l0,-439.163" style="fill:#48acf0;fill-rule:nonzero;"/><path d="M13164,1224.96c195.391,0 293.133,97.534 293.133,292.83l0,439.2c0,195.354 -97.742,292.937 -293.133,292.937l-878.204,0l-0.001,-439.421l731.913,0l0,-146.267l-878.633,0l0,732.213l1023.44,0l-92.558,439.2l-1077.1,0c-195.3,0 -293.038,-97.704 -293.038,-292.817l0,-1025.05c0,-195.296 97.738,-292.83 293.038,-292.83l1171.15,0Z" style="fill:#48acf0;fill-rule:nonzero;"/><path d="M13750,2835.65l0,-1317.86c0,-195.296 97.296,-292.83 292.646,-292.83l877.096,0l-95.629,439.28l-634.875,0l0,1171.41l-439.238,0l0,0Z" style="fill:#48acf0;fill-rule:nonzero;"/></g></g><g><path d="M16880.3,1502.25c-35.82,-141.521 -173.437,-225.633 -307.125,-187.712l-3015.59,855.383c-133.688,37.921 -213.138,183.604 -177.321,325.129l129.808,512.842c35.821,141.521 173.442,225.629 307.125,187.708l3015.59,-855.383c133.687,-37.921 213.142,-183.604 177.321,-325.125l-129.809,-512.842l0,0Z" style="fill:#fff;"/><g><g transform="matrix(0.962046,-0.272889,0.245475,0.969822,-169.903,3955.06)"><text x="14174.4px" y="2883.73px" style="font-family:'PTMono-Regular', 'PT Mono', monospace;font-size:1001.39px;fill:#f4645f;">B</text></g><g transform="matrix(0.962046,-0.272889,0.245475,0.969822,-110.683,4100.56)"><text x="14724.8px" y="2727.59px" style="font-family:'PTMono-Regular', 'PT Mono', monospace;font-size:1001.39px;fill:#f4645f;">ETA</text></g></g></g></svg>