<svg viewBox="0 0 86809 26042" xmlns="http://www.w3.org/2000/svg" fill-rule="evenodd" clip-rule="evenodd" stroke-linejoin="round" stroke-miterlimit="1.414"><g fill-rule="nonzero"><g fill="#fff"><path d="M7022.54 15711.7c-160.696-97.825-1013.05 441.146-1062.6 1248.65 0 135.645 505.366 165.841 888.845 93.92-302.566 114.375-849.291 581.792-888.845 1227.11 0 135.158 502.033 166.604 885.058 95.341-303.5 117.571-845.838 583.513-885.058 1225.42 0 136.083 503.82 167.7 887.112 95.95-302.729 115.471-847.558 582.075-887.112 1226.01 0 135.75 505.366 166.605 889.004 94.842-302.554 115.363-849.45 582.242-889.004 1226.18 0 196.192 1059.76 177.6 1273.14-60.875 185.038-208.108-49.625-1089.58-210.537-1187.29-11.563-7.096-34.18-3.959-52.463-4.405 116.425-31.62 213.55-74.283 263-129.329 185.038-208.279-49.625-1089.32-210.537-1187.63-11.563-6.754-34.18-3.454-52.463-4.063 116.425-32.279 213.55-74.283 263-129.987 185.038-207.792-49.625-1088.15-210.537-1186.8-11.563-7.258-33.671-4.288-51.955-4.738 115.917-31.779 213.375-73.783 262.492-128.995 185.038-208.28-49.625-1090.08-210.537-1188.4-12.055-6.93-34.18-4.117-52.904-4.567 116.358-31.671 213.991-73.779 263.441-129.046 185.038-207.462-49.625-1089.1-210.537-1187.3v.012zM4452.67 18414c0 183.155 996.816 167.425 1197.63-58.67 174.529-195.363-46.117-1023.06-197.479-1115.28-150.696-92.15-953.754 413.938-1000.15 1173.95zm0 1344.7c0 184.037 996.816 167.383 1197.63-57.734 174.529-195.087-46.117-1022.94-197.479-1115.11-150.696-91.542-953.754 412.946-1000.15 1172.84zm0 1345c0 183.762 996.816 168.308 1197.63-58.063 174.529-195.258-46.117-1023.56-197.479-1115.27-150.696-91.887-953.754 413.925-1000.15 1173.33zm-1516.7-1230.5c0 170.167 926.121 155.388 1113.39-53.671 160.592-181.07-43.729-951.8-183.812-1036.43-139.867-85.446-886.3 385.288-929.588 1090.1h.013zm0 1374.8c0 171.833 926.121 157.037 1113.39-52.68 160.592-181.07-43.729-950.095-183.812-1036.15-139.867-85.379-886.3 383.759-929.588 1088.83h.013zm0 1377.1c0 170.396 926.121 155.88 1113.39-53.495 160.592-182.509-43.729-951.034-183.812-1035.66-139.867-86.65-886.3 383.688-929.588 1089.16h.013zm-1817.84-1164.9c0 171.329 927.029 155.892 1113.84-53.829 160.083-181.4-44.013-950.704-185.533-1035.77-139.763-85.938-884.58 384.625-928.309 1089.6zm0 1375.5c0 170.684 927.029 156.38 1113.84-53.325 160.083-181.4-44.013-949.766-185.533-1036.59-139.763-84.788-884.58 385.879-928.309 1089.91zm3334.54-386.9c0 184.371 996.816 168.479 1197.63-57.617 174.529-194.979-46.117-1023.89-197.479-1115.6-150.696-91.546-953.754 413.933-1000.15 1173.17v.054z"/><path d="M8445.88 18385.4c.667 8.025.504 16.983.667 25.454-3.496-7.204-7.334-15.559-11.004-21.721 3.054-1.371 7.508-2.204 10.337-3.733zm14036.9-7813.12l-5845.42-8398.46S16044.36-.03 13840.18-.03c-1780.35 0-3033.45 2349.58-1912.27 4047.25 1034.32 1563.91 3629.3 5742.25 3958.42 6525.08 329.892 783.487 329.892 2023.63-1914.23 1632.08-2131.05-372.409-5686.71 1965.41-6373.67 3038.5-156.137 203.725-279.333 457.325-297.337 747.912 0 102.879 295.233 145.054 605.404 128.071-277.725 215.975-576.454 588.671-605.404 1057.97 0 103.379 295.112 145.991 605.296 128.996-277.617 215.379-576.346 588.233-605.296 1057.87 0 102.38 295.725 144.396 606.071 128.059-277.725 215.379-577.121 588.671-606.071 1057.98 0 103.367 295.233 145.212 605.404 128.996-277.725 215.866-576.454 589.171-605.404 1058.13 0 103.054 295.725 144.621 606.071 128.058-277.725 215.555-577.121 588.08-606.071 1058.03 0 150.229 618.125 174.312 1005.43 70.337 1389.39-35.25 2764.95-488.062 2764.95-488.062l724.654 4536.42 527.654-4830.25s4815.04-652.304 6464.21-5091.62c1648.16-4436.62-3574.68-9273.79-4034.6-11102.5l7729.42 5555-.037.009z"/></g><path d="M22482.8 10572.3l-8841.71-6354.58c180.491-2043.92 2608.98 37.45 2996.28-2043.92l5845.42 8398.5h.017z" fill="#faaf41"/><path d="M32180.2 15450.2h-5716v5666.08h5716v1888.2h-6345.42c-839.85 0-1258.33-420.034-1258.33-1258.88v-6925.04c0-838.842 418.475-1258.43 1258.33-1258.43h6345.42v1888.07zm3146.8 2518.2v3147.94h3776.93V17968.4H35327zm5665.58 3777.26c0 838.846-420.033 1258.88-1258.26 1258.88h-5036.96c-839.85 0-1259.27-420.033-1259.27-1258.88v-4406.88c0-839.625 419.417-1258.93 1259.27-1258.93l5036.96-.013c838.225.013 1258.26 419.321 1258.26 1258.95v4406.88zm8812.42-.06c0 838.842-418.475 1258.88-1257.99 1258.88h-5036.92c-838.225 0-1258.15-420.033-1258.15-1258.88v-4406.88c0-839.625 419.925-1258.93 1258.15-1258.93h3777.2l-411.23 1888.54h-2735.4v3147.94h3776.75v-7554.12h1887.6v8183.46l-.004-.005zm7555-5665.8c840.012 0 1259.55 419.308 1259.55 1258.93v1888.22c0 839.85-419.538 1259.39-1259.55 1259.39h-3775.76v-1889.17h3146.31v-628.825h-3776.93v3147.94h4400.58l-399.187 1888.2h-4630.5c-839.517 0-1259.56-420.033-1259.56-1258.88v-4406.88c0-839.625 420.046-1258.93 1259.56-1258.93h5035.46l.021.005z" fill="#fff"/><path d="M59883.8 14820.6c0-838.845 420.263-1258.43 1259.56-1258.43h5035.17c839.85 0 1259.39 419.587 1259.39 1258.43v4406.38c0 839.854-419.538 1259.38-1259.39 1259.38H62401.6v-1889.15h3148.1v-3146.99h-3777.37v7554.29h-1888.55v-8183.92l.021.016zm8812.9 8183.9v-6924.71l1887.93.017v6924.67H68696.7v.025zm2106.31-9442.33l-410.95 1888.04H68696.7v-1888.04m9442.9 2517.63c840.017 0 1260.23 419.308 1260.23 1258.93v1888.22c0 839.85-420.208 1259.39-1260.23 1259.39h-3775.58v-1889.17h3146.64l.012-628.825h-3777.44v3147.94h4400l-397.95 1888.2h-4630.67c-839.625 0-1259.83-420.033-1259.83-1258.88v-4406.88c0-839.625 420.209-1258.93 1259.83-1258.93h5035.04l-.05.005zm2518.7 6924.7v-5665.75c0-839.625 418.313-1258.93 1258.15-1258.93h3770.82l-411.121 1888.54h-2729.47l.017 5036.12h-1888.39v.017z" fill="#48acf0"/></g></svg>