<?xml version="1.0" encoding="UTF-8" standalone="no"?><!DOCTYPE svg PUBLIC "-//W3C//DTD SVG 1.1//EN" "http://www.w3.org/Graphics/SVG/1.1/DTD/svg11.dtd"><svg width="100%" height="100%" viewBox="0 0 5000 5000" version="1.1" xmlns="http://www.w3.org/2000/svg" xmlns:xlink="http://www.w3.org/1999/xlink" xml:space="preserve" style="fill-rule:evenodd;clip-rule:evenodd;stroke-linejoin:round;stroke-miterlimit:1.41421;"><g><g><g><path d="M2148.27,2320.44c-12.05,-7.413 -75.963,33.429 -79.679,94.62c0,10.279 37.895,12.567 66.65,7.117c-22.688,8.667 -63.684,44.087 -66.65,92.987c0,10.242 37.645,12.625 66.366,7.225c-22.758,8.909 -63.425,44.217 -66.366,92.859c0,10.312 37.779,12.708 66.52,7.271c-22.7,8.75 -63.554,44.108 -66.52,92.904c0,10.287 37.895,12.625 66.662,7.187c-22.687,8.742 -63.696,44.121 -66.662,92.917c0,14.867 79.466,13.458 95.466,-4.613c13.875,-15.77 -3.721,-82.566 -15.787,-89.97c-0.867,-0.538 -2.563,-0.3 -3.934,-0.334c8.73,-2.396 16.013,-5.629 19.721,-9.8c13.875,-15.783 -3.721,-82.546 -15.787,-89.996c-0.867,-0.512 -2.563,-0.262 -3.934,-0.308c8.73,-2.446 16.013,-5.629 19.721,-9.85c13.875,-15.746 -3.721,-82.458 -15.787,-89.933c-0.867,-0.55 -2.525,-0.325 -3.896,-0.359c8.692,-2.408 16,-5.591 19.683,-9.775c13.875,-15.783 -3.721,-82.604 -15.787,-90.054c-0.904,-0.525 -2.563,-0.312 -3.967,-0.346c8.725,-2.4 16.046,-5.591 19.754,-9.779c13.875,-15.721 -3.721,-82.529 -15.787,-89.971l0,0Z" style="fill:#2b2b2b;fill-rule:nonzero;"/><path d="M1955.57,2525.21c0,13.879 74.746,12.687 89.804,-4.446c13.087,-14.804 -3.458,-77.525 -14.808,-84.513c-11.3,-6.983 -71.517,31.367 -74.996,88.959Z" style="fill:#2b2b2b;fill-rule:nonzero;"/><path d="M1955.57,2627.11c0,13.946 74.746,12.684 89.804,-4.375c13.087,-14.783 -3.458,-77.516 -14.808,-84.5c-11.3,-6.937 -71.517,31.292 -74.996,88.875l0,0Z" style="fill:#2b2b2b;fill-rule:nonzero;"/><path d="M1955.57,2729.03c0,13.925 74.746,12.754 89.804,-4.4c13.087,-14.796 -3.458,-77.563 -14.808,-84.512c-11.3,-6.963 -71.517,31.366 -74.996,88.912l0,0Z" style="fill:#2b2b2b;fill-rule:nonzero;"/><path d="M1841.84,2635.79c0,12.895 69.445,11.775 83.487,-4.067c12.042,-13.721 -3.279,-72.125 -13.783,-78.538c-10.488,-6.475 -66.459,29.196 -69.705,82.605Z" style="fill:#2b2b2b;fill-rule:nonzero;"/><path d="M1841.84,2739.97c0,13.021 69.445,11.9 83.487,-3.992c12.042,-13.721 -3.279,-71.996 -13.783,-78.517c-10.488,-6.47 -66.459,29.08 -69.705,82.509Z" style="fill:#2b2b2b;fill-rule:nonzero;"/><path d="M1841.84,2844.32c0,12.912 69.445,11.812 83.487,-4.054c12.042,-13.83 -3.279,-72.067 -13.783,-78.48c-10.488,-6.566 -66.459,29.075 -69.705,82.534Z" style="fill:#2b2b2b;fill-rule:nonzero;"/><path d="M1705.53,2756.05c0,12.983 69.513,11.813 83.521,-4.079c12.004,-13.746 -3.3,-72.042 -13.912,-78.488c-10.48,-6.512 -66.33,29.146 -69.609,82.567Z" style="fill:#2b2b2b;fill-rule:nonzero;"/><path d="M1705.53,2860.28c0,12.934 69.513,11.85 83.521,-4.041c12.004,-13.746 -3.3,-71.971 -13.912,-78.55c-10.48,-6.425 -66.33,29.241 -69.609,82.591Z" style="fill:#2b2b2b;fill-rule:nonzero;"/><path d="M1955.57,2830.96c0,13.971 74.746,12.767 89.804,-4.366c13.087,-14.775 -3.458,-77.588 -14.808,-84.538c-11.3,-6.937 -71.517,31.367 -74.996,88.9l0,0.004Z" style="fill:#2b2b2b;fill-rule:nonzero;"/><path d="M2255,2523.05c0.05,0.608 0.038,1.287 0.05,1.929c-0.262,-0.546 -0.55,-1.179 -0.825,-1.646c0.229,-0.104 0.563,-0.167 0.775,-0.283Zm1052.55,-592.059l-438.317,-636.416c0,0 -44.466,-164.729 -209.746,-164.729c-133.499,0 -227.462,178.045 -143.391,306.691c77.558,118.509 272.142,435.134 296.821,494.454c24.737,59.371 24.737,153.346 -143.538,123.675c-159.796,-28.22 -426.416,148.934 -477.929,230.25c-11.708,15.438 -20.946,34.655 -22.296,56.675c0,7.796 22.138,10.992 45.396,9.705c-20.825,16.366 -43.225,44.608 -45.396,80.17c0,7.834 22.129,11.063 45.388,9.775c-20.817,16.321 -43.217,44.575 -45.388,80.163c0,7.758 22.175,10.942 45.446,9.704c-20.825,16.321 -43.275,44.608 -45.446,80.171c0,7.833 22.138,11.004 45.396,9.775c-20.825,16.358 -43.225,44.646 -45.396,80.183c0,7.809 22.175,10.959 45.446,9.704c-20.825,16.334 -43.275,44.563 -45.446,80.175c0,11.384 46.35,13.209 75.392,5.33c104.183,-2.671 207.329,-36.984 207.329,-36.984l54.338,343.759l39.566,-366.025c0,0 361.054,-49.43 484.717,-385.83c123.587,-336.195 -268.046,-702.745 -302.533,-841.32l579.587,420.945Z" style="fill:#2b2b2b;fill-rule:nonzero;"/></g><path d="M3307.55,1930.99l-662.992,-481.534c13.534,-154.883 195.634,2.838 224.675,-154.883l438.317,636.417Z" style="fill:#faaf41;fill-rule:nonzero;"/></g><g><g><path d="M794.704,3308.88l-424.691,0l0,420.984l424.691,0l0,140.291l-471.458,0c-62.4,0 -93.492,-31.208 -93.492,-93.533l0,-514.521c0,-62.325 31.092,-93.5 93.492,-93.5l471.458,0l0,140.279Z" style="fill:#2b2b2b;fill-rule:nonzero;"/><path d="M1028.51,3495.98l0,233.888l280.621,0l0,-233.888l-280.621,0l0,0Zm420.946,280.646c0,62.325 -31.208,93.533 -93.487,93.533l-374.238,0c-62.4,0 -93.562,-31.208 -93.562,-93.533l0,-327.425c0,-62.383 31.162,-93.537 93.562,-93.537l374.238,-0.001c62.279,0.001 93.487,31.155 93.487,93.538l0,327.425Z" style="fill:#2b2b2b;fill-rule:nonzero;"/><path d="M2104.22,3776.62c0,62.325 -31.092,93.533 -93.467,93.533l-374.237,0c-62.279,0 -93.479,-31.208 -93.479,-93.533l0,-327.425c0,-62.383 31.2,-93.537 93.479,-93.537l280.641,0l-30.554,140.316l-203.237,0l0,233.888l280.608,0l0,-561.263l140.246,0l0,608.021Z" style="fill:#2b2b2b;fill-rule:nonzero;"/><path d="M2665.52,3355.66c62.412,0 93.583,31.154 93.583,93.537l0,140.292c0,62.4 -31.171,93.571 -93.583,93.571l-280.534,0l0,-140.363l233.767,0l0,-46.721l-280.621,0l0,233.888l326.959,0l-29.659,140.291l-344.041,0c-62.375,0 -93.584,-31.208 -93.584,-93.533l0,-327.425c0,-62.383 31.209,-93.537 93.584,-93.537l374.129,0Z" style="fill:#2b2b2b;fill-rule:nonzero;"/></g><g><path d="M2853.05,3262.1c0,-62.325 31.225,-93.5 93.584,-93.5l374.108,0c62.4,0 93.571,31.175 93.571,93.5l0,327.388c0,62.4 -31.171,93.57 -93.571,93.57l-280.621,0l0,-140.362l233.9,0l0,-233.817l-280.654,0l0,561.275l-140.317,0l0,-608.054Z" style="fill:#48acf0;fill-rule:nonzero;"/><path d="M3507.83,3870.16l0,-514.496l140.271,0.001l0,514.495l-140.271,0Zm156.496,-701.554l-30.533,140.279l-125.963,0l0,-140.279" style="fill:#48acf0;fill-rule:nonzero;"/><path d="M4209.42,3355.66c62.412,0 93.633,31.154 93.633,93.537l0,140.292c0,62.4 -31.221,93.571 -93.633,93.571l-280.521,0l0,-140.363l233.791,0l0.001,-46.721l-280.659,0l0,233.888l326.913,0l-29.567,140.291l-344.054,0c-62.383,0 -93.604,-31.208 -93.604,-93.533l0,-327.425c0,-62.383 31.221,-93.537 93.604,-93.537l374.096,0Z" style="fill:#48acf0;fill-rule:nonzero;"/><path d="M4396.58,3870.16l0,-420.958c0,-62.383 31.08,-93.537 93.479,-93.537l280.167,0l-30.546,140.316l-202.796,0l0.001,374.179l-140.305,0l0,0Z" style="fill:#48acf0;fill-rule:nonzero;"/></g></g></g></svg>