<svg viewBox="0 0 5000 2917" xmlns="http://www.w3.org/2000/svg" fill-rule="evenodd" clip-rule="evenodd" stroke-linejoin="round" stroke-miterlimit="1.414"><g fill-rule="nonzero"><g fill="#fff"><path d="M2148.27 1278.77c-12.05-7.413-75.963 33.429-79.679 94.621 0 10.279 37.895 12.566 66.65 7.116-22.688 8.667-63.684 44.088-66.65 92.988 0 10.241 37.645 12.625 66.366 7.225-22.758 8.908-63.425 44.216-66.366 92.858 0 10.313 37.779 12.708 66.52 7.271-22.7 8.75-63.554 44.108-66.52 92.904 0 10.288 37.895 12.625 66.662 7.188-22.687 8.741-63.696 44.121-66.662 92.916 0 14.867 79.466 13.459 95.466-4.612 13.875-15.771-3.721-82.567-15.787-89.971-.867-.537-2.563-.3-3.934-.333 8.73-2.396 16.013-5.63 19.721-9.8 13.875-15.784-3.721-82.546-15.787-89.996-.867-.513-2.563-.263-3.934-.308 8.73-2.446 16.013-5.63 19.721-9.851 13.875-15.745-3.721-82.458-15.787-89.933-.867-.55-2.525-.325-3.896-.358 8.692-2.408 16-5.592 19.683-9.775 13.875-15.784-3.721-82.604-15.787-90.054-.904-.525-2.563-.313-3.967-.346 8.725-2.4 16.046-5.592 19.754-9.779 13.875-15.721-3.721-82.529-15.787-89.971zm-192.7 204.78c0 13.879 74.746 12.687 89.804-4.446 13.087-14.804-3.458-77.525-14.808-84.512-11.3-6.984-71.517 31.366-74.996 88.958zm0 101.89c0 13.946 74.746 12.683 89.804-4.375 13.087-14.784-3.458-77.517-14.808-84.5-11.3-6.938-71.517 31.291-74.996 88.875zm0 101.92c0 13.925 74.746 12.755 89.804-4.4 13.087-14.796-3.458-77.562-14.808-84.512-11.3-6.963-71.517 31.367-74.996 88.912zm-113.73-93.24c0 12.896 69.445 11.775 83.487-4.067 12.042-13.721-3.279-72.125-13.783-78.537-10.488-6.475-66.459 29.195-69.705 82.604zm0 104.18c0 13.021 69.445 11.9 83.487-3.992 12.042-13.72-3.279-71.995-13.783-78.516-10.488-6.471-66.459 29.079-69.705 82.508zm0 104.35c0 12.913 69.445 11.813 83.487-4.054 12.042-13.829-3.279-72.067-13.783-78.479-10.488-6.567-66.459 29.075-69.705 82.533zm-136.31-88.27c0 12.984 69.513 11.813 83.521-4.079 12.004-13.746-3.3-72.042-13.912-78.487-10.48-6.513-66.33 29.145-69.609 82.566zm0 104.23c0 12.933 69.513 11.85 83.521-4.042 12.004-13.746-3.3-71.971-13.912-78.55-10.48-6.425-66.33 29.241-69.609 82.591zm250.04-29.32c0 13.97 74.746 12.766 89.804-4.367 13.087-14.775-3.458-77.588-14.808-84.538-11.3-6.937-71.517 31.367-74.996 88.9v.005z"/><path d="M2255 1481.38c.05.608.038 1.288.05 1.929-.262-.546-.55-1.179-.825-1.646.229-.104.563-.166.775-.283zm1052.55-592.058l-438.317-636.417s-44.466-164.729-209.746-164.729c-133.499 0-227.462 178.046-143.391 306.692 77.558 118.508 272.142 435.133 296.821 494.454 24.737 59.371 24.737 153.346-143.538 123.675-159.796-28.221-426.416 148.933-477.929 230.25-11.708 15.437-20.946 34.654-22.296 56.675 0 7.796 22.138 10.991 45.396 9.704-20.825 16.367-43.225 44.608-45.396 80.171 0 7.833 22.129 11.062 45.388 9.775-20.817 16.321-43.217 44.575-45.388 80.162 0 7.759 22.175 10.942 45.446 9.704-20.825 16.321-43.275 44.609-45.446 80.171 0 7.834 22.138 11.004 45.396 9.775-20.825 16.359-43.225 44.646-45.396 80.184 0 7.808 22.175 10.958 45.446 9.704-20.825 16.333-43.275 44.562-45.446 80.175 0 11.383 46.35 13.208 75.392 5.329 104.183-2.671 207.329-36.983 207.329-36.983l54.338 343.758 39.566-366.025s361.054-49.429 484.717-385.829c123.587-336.196-268.046-702.746-302.533-841.321l579.587 420.946z"/></g><path d="M3307.55 889.321l-662.992-481.533c13.534-154.884 195.634 2.837 224.675-154.884l438.317 636.417z" fill="#faaf41"/><path d="M794.704 2267.22H370.013v420.983h424.691v140.292H323.246c-62.4 0-93.492-31.209-93.492-93.534V2220.44c0-62.325 31.092-93.5 93.492-93.5h471.458v140.28zm233.806 187.09v233.887h280.621v-233.888H1028.51zm420.946 280.646c0 62.325-31.208 93.534-93.487 93.534H981.731c-62.4 0-93.562-31.209-93.562-93.534v-327.425c0-62.383 31.162-93.537 93.562-93.537h374.238c62.279 0 93.487 31.154 93.487 93.537v327.425zm654.764.004c0 62.325-31.092 93.534-93.467 93.534h-374.237c-62.279 0-93.479-31.209-93.479-93.534v-327.425c0-62.383 31.2-93.537 93.479-93.537h280.641l-30.554 140.317h-203.237v233.887h280.608V2126.94h140.246v608.02zm561.3-420.96c62.412 0 93.583 31.154 93.583 93.537v140.292c0 62.4-31.171 93.571-93.583 93.571h-280.534v-140.363h233.767v-46.72l-280.621-.001v233.888h326.959l-29.659 140.292h-344.041c-62.375 0-93.584-31.209-93.584-93.534v-327.425c0-62.383 31.209-93.537 93.584-93.537h374.129z" fill="#fff"/><path d="M2853.05 2220.44c0-62.325 31.225-93.501 93.584-93.501l374.108.001c62.4-.001 93.571 31.174 93.571 93.499v327.388c0 62.4-31.171 93.571-93.571 93.571h-280.621v-140.363h233.9v-233.816h-280.654v561.275H2853.05v-608.055zm654.78 608.05v-514.496h140.271v514.496H3507.83zm156.496-701.555l-30.533 140.28H3507.83v-140.28M4209.42 2314c62.412 0 93.633 31.154 93.633 93.537v140.292c0 62.4-31.221 93.571-93.633 93.571h-280.521v-140.363h233.791l.001-46.72-280.659-.001v233.888h326.913l-29.567 140.292h-344.054c-62.383 0-93.604-31.209-93.604-93.534v-327.425c0-62.383 31.221-93.537 93.604-93.537h374.096zm187.16 514.49v-420.959c0-62.383 31.08-93.537 93.479-93.537h280.167l-30.546 140.317h-202.796l.001 374.179H4396.58z" fill="#48acf0"/></g></svg>