<svg viewBox="0 0 3236 500" xmlns="http://www.w3.org/2000/svg" fill-rule="evenodd" clip-rule="evenodd" stroke-linejoin="round" stroke-miterlimit="1.414"><g fill-rule="nonzero"><path d="M402.642 99.977H99.962v300.037h302.68V500H66.632C22.16 500 0 477.758 0 433.34V66.638C0 22.218 22.16 0 66.632 0h336.01v99.977zm166.634 133.344v166.693h200V233.32h-200zm300.01 200.018c0 44.42-22.243 66.661-66.627 66.661H535.936c-44.473 0-66.683-22.242-66.683-66.661V199.982c0-44.462 22.21-66.665 66.683-66.665h266.723c44.384 0 66.628 22.203 66.628 66.665v233.357zm466.658 0c0 44.42-22.159 66.661-66.618 66.661h-266.718c-44.384 0-66.618-22.242-66.618-66.661V199.982c0-44.462 22.234-66.665 66.618-66.665h200.015l-21.78 100.004h-144.846v166.693h199.996V0h99.95v433.339zm400.039-300.022c44.478 0 66.694 22.203 66.694 66.665v99.986c0 44.473-22.216 66.688-66.694 66.688h-199.939V266.62h166.606v-33.298h-199.996v166.693h233.025L1714.536 500H1469.34c-44.46 0-66.704-22.242-66.704-66.661V199.982c0-44.462 22.244-66.665 66.704-66.665h266.642z" fill="#fff"/><path d="M1869.636 66.638c0-44.42 22.253-66.638 66.694-66.638h266.632c44.47 0 66.685 22.218 66.685 66.638v233.33c0 44.473-22.216 66.688-66.685 66.688h-199.995V266.62h166.7V99.977h-200.024V500h-100.007V66.638zM2336.303 500V133.317h99.969V500h-99.97zM2447.835 0l-21.76 99.977h-89.772V0m500.017 133.317c44.479 0 66.732 22.203 66.732 66.665v99.986c0 44.473-22.253 66.688-66.731 66.688h-199.93V266.62h166.625v-33.298h-200.024v166.693h232.987L2814.911 500h-245.214c-44.459 0-66.703-22.242-66.703-66.661V199.982c0-44.462 22.244-66.665 66.703-66.665h266.624zM2969.718 500V199.982c0-44.462 22.149-66.665 66.627-66.665h199.673l-21.77 100.004h-144.532v266.68h-99.998z" fill="#48acf0"/></g></svg>