<?xml version="1.0" encoding="UTF-8" standalone="no"?><!DOCTYPE svg PUBLIC "-//W3C//DTD SVG 1.1//EN" "http://www.w3.org/Graphics/SVG/1.1/DTD/svg11.dtd"><svg width="100%" height="100%" viewBox="0 0 900 200" version="1.1" xmlns="http://www.w3.org/2000/svg" xmlns:xlink="http://www.w3.org/1999/xlink" xml:space="preserve" style="fill-rule:evenodd;clip-rule:evenodd;stroke-linejoin:round;stroke-miterlimit:1.41421;"><text x="365.823px" y="140.411px" style="font-family:'Akashi';font-size:109.379px;fill:#fff;">Code</text><text x="654.273px" y="140.411px" style="font-family:'Akashi';font-size:109.379px;fill:#48adf0;">Pier</text><g id="Kodi"><path d="M216.746,32.055c0.89,-1.436 3.234,-1.597 5.231,-0.359c1.997,1.238 2.895,3.41 2.004,4.846c-0.89,1.436 -3.234,1.597 -5.231,0.359c-1.997,-1.238 -2.895,-3.41 -2.004,-4.846Z" style="fill:#fff;"/><path d="M167.912,49.463c0,0 -0.224,-20.613 14.265,-29.574c0,0 -20.015,28.155 -1.942,54.293c-9.783,-7.468 -12.323,-24.719 -12.323,-24.719Z" style="fill:#fff;fill-rule:nonzero;"/><path d="M207.718,25.042c0,0 12.994,1.717 19.044,8.961c6.049,7.245 0,13.368 0,13.368l-1.643,-1.941c0,0 9.858,-8.439 -15.758,-18.447c0,0 1.568,4.481 2.987,6.124l-1.195,0.448c0.075,0.075 -1.195,-1.045 -3.435,-8.513Z" style="fill:#fff;fill-rule:nonzero;"/><path d="M215.261,29.523c1.194,0.298 3.734,1.792 5.451,2.763c0.299,0.224 0.672,0.373 0.971,0.597c0.971,0.598 1.494,1.27 1.643,2.091c0.075,0.747 -0.149,1.569 -0.747,2.166c-0.298,0.299 -0.746,0.448 -1.344,0.448c-1.27,0 -2.838,-0.747 -4.182,-1.942c-1.568,-1.269 -2.166,-3.51 -1.792,-6.123M214.887,28.029c-0.597,0 -0.971,0.224 -1.045,0.821c-0.598,3.286 0.224,6.199 2.165,7.991c1.643,1.494 3.585,2.315 5.228,2.315c0.971,0 1.867,-0.298 2.465,-0.97c1.643,-1.718 1.867,-4.78 -1.195,-6.647c-2.764,-1.494 -5.975,-3.51 -7.618,-3.51Z" style="fill:#fff;fill-rule:nonzero;"/><path d="M292.407,140.649c0,0 -56.385,-77.072 -67.587,-84.316c0,0 4.779,-5.078 4.705,-8.439c0,0 38.834,48.021 64.002,89.469l-1.12,3.286Z" style="fill:#fff;fill-rule:nonzero;"/><path d="M221.235,49.388c0,0 -4.331,3.883 -2.614,5.75c46.154,48.618 26.363,31.964 72.89,88.2c0,0 1.419,-0.523 -4.407,12.173c0,0 -17.625,-20.314 -24.869,-26.96c-7.244,-6.647 -31.441,-26.214 -38.461,-36.893c-7.02,-10.68 -13.293,-23.749 -19.268,-27.408c-4.779,-2.913 -3.958,2.539 -3.958,2.539c0,0 21.882,24.794 24.272,40.104c0.971,6.422 4.107,24.869 -13.742,42.718c-2.987,2.987 11.576,-18.073 9.336,-38.611c-1.121,-10.306 -10.605,-31.739 -26.363,-47.497c-9.41,-9.41 -6.124,-20.164 2.838,-17.401c3.585,1.12 8.738,5.004 13.517,5.526c5.751,0.672 10.829,-2.24 10.829,-2.24Z" style="fill:#fff;fill-rule:nonzero;"/><path d="M224.521,139.678c19.044,0 48.469,26.363 57.58,22.255c9.111,-4.107 11.053,-40.925 24.271,-41.523c13.294,-0.597 26.662,22.031 32.337,54.593c0,0 1.419,7.318 -4.779,-2.988c0,0 -8.29,-45.033 -23.45,-44.137c-15.833,0.897 -15.982,25.99 -23.749,34.503c-10.381,11.352 -48.17,-19.043 -62.21,-13.741l0,-8.962Z" style="fill:#fff;fill-rule:nonzero;"/><path d="M180.235,18.022c21.583,-16.206 46.078,12.397 46.078,12.397c-14.787,-23.077 -35.1,-25.467 -48.617,-21.135c-20.09,6.497 -18.895,14.637 -18.895,14.637c4.63,-3.808 7.543,-3.808 7.543,-3.808c0,0 -4.257,6.572 -2.987,5.675c3.211,-2.24 5.153,-2.016 5.153,-2.016c0,0 -2.763,2.763 -5.004,12.771c-5.9,26.586 30.022,54.741 28.753,74.457c-0.673,10.605 -10.157,17.999 -20.837,27.633c-8.588,7.766 -36.818,31.291 -52.501,29.424c-22.33,-2.614 -54.667,-56.086 -82.598,-38.386c-24.495,15.534 -11.426,58.849 -11.426,58.849c0,0 4.406,12.845 2.091,-7.692c-2.465,-21.285 2.688,-33.159 21.21,-37.117c45.63,-9.709 44.958,33.532 78.565,26.587c20.089,-4.108 37.789,-22.405 46.676,-28.603c9.932,-6.946 23.226,-18.746 23.749,-33.085c0.448,-12.322 -8.589,-21.583 -17.924,-35.921c-12.024,-18.521 -20.986,-38.163 0.971,-54.667ZM39.46,137.288c-6.722,3.66 -11.725,9.335 -11.725,9.335c0,0 2.838,-7.841 10.231,-12.023c8.29,-4.705 20.986,-1.569 20.986,-1.569c0,0 -12.547,0.523 -19.492,4.257Z" style="fill:#fff;fill-rule:nonzero;"/></g></svg>