<?xml version="1.0" encoding="UTF-8" standalone="no"?><!DOCTYPE svg PUBLIC "-//W3C//DTD SVG 1.1//EN" "http://www.w3.org/Graphics/SVG/1.1/DTD/svg11.dtd"><svg width="100%" height="100%" viewBox="0 0 478 334" version="1.1" xmlns="http://www.w3.org/2000/svg" xmlns:xlink="http://www.w3.org/1999/xlink" xml:space="preserve" style="fill-rule:evenodd;clip-rule:evenodd;stroke-linejoin:round;stroke-miterlimit:1.41421;"><text x="49.225px" y="299.927px" style="font-family:'Akashi';font-size:86.229px;fill:#fff;">Code</text><text x="276.625px" y="299.927px" style="font-family:'Akashi';font-size:86.229px;fill:#48adf0;">Pier</text><g id="Kodi"><path d="M285.59,47.888c1.193,-1.923 4.332,-2.138 7.005,-0.481c2.674,1.658 3.876,4.566 2.684,6.489c-1.193,1.923 -4.331,2.139 -7.005,0.481c-2.674,-1.658 -3.876,-4.566 -2.684,-6.489Z" style="fill:#fff;"/><path d="M220.202,71.197c0,0 -0.3,-27.6 19.1,-39.6c0,0 -26.8,37.7 -2.6,72.7c-13.1,-10 -16.5,-33.1 -16.5,-33.1Z" style="fill:#fff;fill-rule:nonzero;"/><path d="M273.502,38.497c0,0 17.4,2.3 25.5,12c8.1,9.7 0,17.9 0,17.9l-2.2,-2.6c0,0 13.2,-11.3 -21.1,-24.7c0,0 2.1,6 4,8.2l-1.6,0.6c0.1,0.1 -1.6,-1.4 -4.6,-11.4Z" style="fill:#fff;fill-rule:nonzero;"/><path d="M283.602,44.497c1.6,0.4 5,2.4 7.3,3.7c0.4,0.3 0.9,0.5 1.3,0.8c1.3,0.8 2,1.7 2.2,2.8c0.1,1 -0.2,2.1 -1,2.9c-0.4,0.4 -1,0.6 -1.8,0.6c-1.7,0 -3.8,-1 -5.6,-2.6c-2.1,-1.7 -2.9,-4.7 -2.4,-8.2M283.102,42.497c-0.8,0 -1.3,0.3 -1.4,1.1c-0.8,4.4 0.3,8.3 2.9,10.7c2.2,2 4.8,3.1 7,3.1c1.3,0 2.5,-0.4 3.3,-1.3c2.2,-2.3 2.5,-6.4 -1.6,-8.9c-3.7,-2 -8,-4.7 -10.2,-4.7Z" style="fill:#fff;fill-rule:nonzero;"/><path d="M386.902,193.297c0,0 -75.5,-103.2 -90.5,-112.9c0,0 6.4,-6.8 6.3,-11.3c0,0 52,64.3 85.7,119.8l-1.5,4.4Z" style="fill:#fff;fill-rule:nonzero;"/><path d="M291.602,71.097c0,0 -5.8,5.2 -3.5,7.7c61.8,65.1 35.3,42.8 97.6,118.1c0,0 1.9,-0.7 -5.9,16.3c0,0 -23.6,-27.2 -33.3,-36.1c-9.7,-8.9 -42.1,-35.1 -51.5,-49.4c-9.4,-14.3 -17.8,-31.8 -25.8,-36.7c-6.4,-3.9 -5.3,3.4 -5.3,3.4c0,0 29.3,33.2 32.5,53.7c1.3,8.6 5.5,33.3 -18.4,57.2c-4,4 15.5,-24.2 12.5,-51.7c-1.5,-13.8 -14.2,-42.5 -35.3,-63.6c-12.6,-12.6 -8.2,-27 3.8,-23.3c4.8,1.5 11.7,6.7 18.1,7.4c7.7,0.9 14.5,-3 14.5,-3Z" style="fill:#fff;fill-rule:nonzero;"/><path d="M296.002,191.997c25.5,0 64.9,35.3 77.1,29.8c12.2,-5.5 14.8,-54.8 32.5,-55.6c17.8,-0.8 35.7,29.5 43.3,73.1c0,0 1.9,9.8 -6.4,-4c0,0 -11.1,-60.3 -31.4,-59.1c-21.2,1.2 -21.4,34.8 -31.8,46.2c-13.9,15.2 -64.5,-25.5 -83.3,-18.4l0,-12Z" style="fill:#fff;fill-rule:nonzero;"/><path d="M236.702,29.097c28.9,-21.7 61.7,16.6 61.7,16.6c-19.8,-30.9 -47,-34.1 -65.1,-28.3c-26.9,8.7 -25.3,19.6 -25.3,19.6c6.2,-5.1 10.1,-5.1 10.1,-5.1c0,0 -5.7,8.8 -4,7.6c4.3,-3 6.9,-2.7 6.9,-2.7c0,0 -3.7,3.7 -6.7,17.1c-7.9,35.6 40.2,73.3 38.5,99.7c-0.9,14.2 -13.6,24.1 -27.9,37c-11.5,10.4 -49.3,41.9 -70.3,39.4c-29.9,-3.5 -73.2,-75.1 -110.6,-51.4c-32.8,20.8 -15.3,78.8 -15.3,78.8c0,0 5.9,17.2 2.8,-10.3c-3.3,-28.5 3.6,-44.4 28.4,-49.7c61.1,-13 60.2,44.9 105.2,35.6c26.9,-5.5 50.6,-30 62.5,-38.3c13.3,-9.3 31.1,-25.1 31.8,-44.3c0.6,-16.5 -11.5,-28.9 -24,-48.1c-16.1,-24.8 -28.1,-51.1 1.3,-73.2ZM48.202,188.797c-9,4.9 -15.7,12.5 -15.7,12.5c0,0 3.8,-10.5 13.7,-16.1c11.1,-6.3 28.1,-2.1 28.1,-2.1c0,0 -16.8,0.7 -26.1,5.7Z" style="fill:#fff;fill-rule:nonzero;"/></g></svg>