<svg viewBox="0 0 5000 5000" xmlns="http://www.w3.org/2000/svg" fill-rule="evenodd" clip-rule="evenodd" stroke-linejoin="round" stroke-miterlimit="1.414"><g fill-rule="nonzero"><g fill="#2b2b2b"><path d="M1708.89 2950.27c-26.613-16.375-167.738 73.812-175.955 208.933 0 22.692 83.688 27.746 147.179 15.717-50.091 19.137-140.625 97.35-147.179 205.329 0 22.616 83.134 27.879 146.55 15.954-50.254 19.662-140.045 97.637-146.55 205.042 0 22.77 83.425 28.062 146.892 16.058-50.121 19.321-140.338 97.4-146.892 205.146 0 22.716 83.688 27.875 147.209 15.871-50.096 19.295-140.655 97.429-147.209 205.175 0 32.825 175.479 29.716 210.809-10.188 30.641-34.829-8.213-182.325-34.855-198.671-1.92-1.183-5.658-.658-8.687-.737 19.271-5.292 35.354-12.425 43.542-21.638 30.641-34.854-8.213-182.271-34.855-198.725-1.92-1.129-5.658-.579-8.687-.683 19.271-5.396 35.354-12.425 43.542-21.746 30.641-34.775-8.213-182.083-34.855-198.587-1.92-1.213-5.579-.713-8.608-.792 19.192-5.317 35.329-12.346 43.463-21.588 30.641-34.854-8.213-182.4-34.855-198.854-2-1.158-5.658-.683-8.766-.762 19.271-5.292 35.433-12.346 43.621-21.588 30.641-34.721-8.213-182.241-34.855-198.666zm-425.51 452.17c0 30.641 165.054 28.008 198.304-9.817 28.905-32.696-7.637-171.188-32.695-186.613-24.959-15.429-157.921 69.259-165.609 196.43zm0 224.99c0 30.8 165.054 28.009 198.304-9.662 28.905-32.642-7.637-171.159-32.695-186.588-24.959-15.32-157.921 69.105-165.609 196.25zm0 225.05c0 30.75 165.054 28.167 198.304-9.712 28.905-32.667-7.637-171.267-32.695-186.613-24.959-15.375-157.921 69.258-165.609 196.325zm-251.13-205.88c0 28.483 153.337 26.008 184.35-8.975 26.587-30.3-7.242-159.263-30.433-173.425-23.163-14.296-146.759 64.467-153.917 182.4zm0 230.05c0 28.746 153.337 26.271 184.35-8.817 26.587-30.3-7.242-158.975-30.433-173.375-23.163-14.291-146.759 64.208-153.917 182.192zm0 230.41c0 28.508 153.337 26.087 184.35-8.95 26.587-30.538-7.242-159.13-30.433-173.292-23.163-14.504-146.759 64.204-153.917 182.241v.001zm-300.996-194.9c0 28.667 153.496 26.088 184.425-9.004 26.509-30.35-7.292-159.079-30.716-173.321-23.142-14.37-146.471 64.367-153.709 182.325zm0 230.15c0 28.562 153.496 26.166 184.425-8.926 26.509-30.349-7.292-158.92-30.716-173.45-23.142-14.191-146.471 64.571-153.709 182.376v-.001zm552.126-64.76c0 30.85 165.054 28.192 198.304-9.633 28.905-32.617-7.637-171.321-32.695-186.667-24.959-15.321-157.921 69.258-165.609 196.3z"/><path d="M1944.57 3397.65c.104 1.342.079 2.842.104 4.263-.579-1.213-1.213-2.605-1.817-3.634.5-.237 1.238-.366 1.713-.629zM4268.75 2090.3L3300.883 685s-98.191-363.75-463.15-363.75c-294.779 0-502.271 393.154-316.629 677.221 171.267 261.691 600.933 960.842 655.425 1091.83 54.621 131.096 54.621 338.613-316.946 273.092-352.854-62.313-941.596 328.866-1055.35 508.429-25.85 34.087-46.25 76.521-49.225 125.146 0 17.212 48.884 24.271 100.242 21.425-45.987 36.145-95.45 98.508-100.242 177.033 0 17.296 48.859 24.429 100.217 21.588-45.962 36.037-95.425 98.424-100.217 177.004 0 17.137 48.963 24.166 100.346 21.425-45.987 36.037-95.554 98.508-100.346 177.033 0 17.296 48.884 24.296 100.242 21.583-45.987 36.121-95.45 98.588-100.242 177.059 0 17.245 48.963 24.195 100.346 21.429-45.987 36.066-95.554 98.4-100.346 177.033 0 25.138 102.35 29.167 166.475 11.767 230.046-5.896 457.809-81.658 457.809-81.658l119.983 759.062 87.371-808.237s797.262-109.142 1070.33-851.963c272.904-742.375-591.879-1551.77-668.033-1857.76l1279.81 929.512z"/></g><path d="M4268.75 2090.3L2804.77 1027.01c29.879-342.008 431.983 6.263 496.108-342.008l967.867 1405.3z" fill="#fec07a"/></g></svg>