<?xml version="1.0" encoding="UTF-8" standalone="no"?>
<!DOCTYPE svg PUBLIC "-//W3C//DTD SVG 1.1//EN" "http://www.w3.org/Graphics/SVG/1.1/DTD/svg11.dtd">
<svg width="100%" height="100%" viewBox="0 0 478 334" version="1.1" xmlns="http://www.w3.org/2000/svg" xmlns:xlink="http://www.w3.org/1999/xlink" xml:space="preserve" style="fill-rule:evenodd;clip-rule:evenodd;stroke-linejoin:round;stroke-miterlimit:1.41421;">
    <g transform="matrix(1,0,0,1,49.225,299.927)">
        <path d="M37.894,-50.525L12.631,-50.525L12.631,-12.631L42.104,-12.631L42.104,0L8.421,0C2.807,0 0,-2.807 0,-8.421L0,-54.735C0,-60.349 2.807,-63.156 8.421,-63.156L42.104,-63.156L37.894,-50.525Z" style="fill:white;fill-rule:nonzero;"/>
        <path d="M101.05,-8.421C101.05,-2.807 98.243,0 92.629,0L58.946,0C53.332,0 50.525,-2.807 50.525,-8.421L50.525,-37.894C50.525,-43.507 53.332,-46.314 58.946,-46.314L92.629,-46.314C98.243,-46.314 101.05,-43.507 101.05,-37.894L101.05,-8.421ZM63.156,-33.683L63.156,-12.631L88.418,-12.631L88.418,-33.683L63.156,-33.683Z" style="fill:white;fill-rule:nonzero;"/>
        <path d="M159.995,-8.421C159.995,-2.807 157.188,0 151.574,0L117.891,0C112.277,0 109.47,-2.807 109.47,-8.421L109.47,-37.894C109.47,-43.507 112.277,-46.314 117.891,-46.314L143.154,-46.314L138.943,-33.683L122.102,-33.683L122.102,-12.631L147.364,-12.631L147.364,-63.156L159.995,-63.156L159.995,-8.421Z" style="fill:white;fill-rule:nonzero;"/>
        <path d="M210.52,-46.314C216.134,-46.314 218.941,-43.507 218.941,-37.894L218.941,-25.262C218.941,-19.649 216.134,-16.842 210.52,-16.842L185.258,-16.842L185.258,-29.473L206.31,-29.473L206.31,-33.683L181.047,-33.683L181.047,-12.631L210.478,-12.631L206.352,0L176.837,0C171.223,0 168.416,-2.807 168.416,-8.421L168.416,-37.894C168.416,-43.507 171.223,-46.314 176.837,-46.314L210.52,-46.314Z" style="fill:white;fill-rule:nonzero;"/>
    </g>
    <g transform="matrix(1,0,0,1,276.625,299.927)">
        <path d="M0,-54.735C0,-60.349 2.807,-63.156 8.421,-63.156L42.104,-63.156C47.718,-63.156 50.525,-60.349 50.525,-54.735L50.525,-25.262C50.525,-19.649 47.718,-16.842 42.104,-16.842L16.842,-16.842L21.052,-29.473L37.894,-29.473L37.894,-50.525L12.631,-50.525L12.631,0L0,0L0,-54.735Z" style="fill:rgb(72,173,240);fill-rule:nonzero;"/>
        <path d="M71.577,-63.156L67.366,-50.525L58.946,-50.525L58.946,-63.156L71.577,-63.156ZM58.946,0L58.946,-46.314L71.577,-46.314L71.577,0L58.946,0Z" style="fill:rgb(72,173,240);fill-rule:nonzero;"/>
        <path d="M122.102,-46.314C127.715,-46.314 130.522,-43.507 130.522,-37.894L130.522,-25.262C130.522,-19.649 127.715,-16.842 122.102,-16.842L96.839,-16.842L96.839,-29.473L117.891,-29.473L117.891,-33.683L92.629,-33.683L92.629,-12.631L122.06,-12.631L117.933,0L88.418,0C82.805,0 79.998,-2.807 79.998,-8.421L79.998,-37.894C79.998,-43.507 82.805,-46.314 88.418,-46.314L122.102,-46.314Z" style="fill:rgb(72,173,240);fill-rule:nonzero;"/>
        <path d="M138.943,0L138.943,-37.894C138.943,-43.507 141.75,-46.314 147.364,-46.314L172.584,-46.314L168.374,-33.683L151.574,-33.683L151.574,0L138.943,0Z" style="fill:rgb(72,173,240);fill-rule:nonzero;"/>
    </g>
    <g id="Kodi">
        <path d="M285.59,47.888C286.783,45.965 289.922,45.75 292.595,47.407C295.269,49.065 296.471,51.973 295.279,53.896C294.086,55.819 290.948,56.035 288.274,54.377C285.6,52.719 284.398,49.811 285.59,47.888Z" style="fill:white;"/>
        <path d="M220.202,71.197C220.202,71.197 219.902,43.597 239.302,31.597C239.302,31.597 212.502,69.297 236.702,104.297C223.602,94.297 220.202,71.197 220.202,71.197Z" style="fill:white;fill-rule:nonzero;"/>
        <path d="M273.502,38.497C273.502,38.497 290.902,40.797 299.002,50.497C307.102,60.197 299.002,68.397 299.002,68.397L296.802,65.797C296.802,65.797 310.002,54.497 275.702,41.097C275.702,41.097 277.802,47.097 279.702,49.297L278.102,49.897C278.202,49.997 276.502,48.497 273.502,38.497L273.502,38.497Z" style="fill:white;fill-rule:nonzero;"/>
        <path d="M283.602,44.497C285.202,44.897 288.602,46.897 290.902,48.197C291.302,48.497 291.802,48.697 292.202,48.997C293.502,49.797 294.202,50.697 294.402,51.797C294.502,52.797 294.202,53.897 293.402,54.697C293.002,55.097 292.402,55.297 291.602,55.297C289.902,55.297 287.802,54.297 286.002,52.697C283.902,50.997 283.102,47.997 283.602,44.497M283.102,42.497C282.302,42.497 281.802,42.797 281.702,43.597C280.902,47.997 282.002,51.897 284.602,54.297C286.802,56.297 289.402,57.397 291.602,57.397C292.902,57.397 294.102,56.997 294.902,56.097C297.102,53.797 297.402,49.697 293.302,47.197C289.602,45.197 285.302,42.497 283.102,42.497Z" style="fill:white;fill-rule:nonzero;"/>
        <path d="M386.902,193.297C386.902,193.297 311.402,90.097 296.402,80.397C296.402,80.397 302.802,73.597 302.702,69.097C302.702,69.097 354.702,133.397 388.402,188.897L386.902,193.297Z" style="fill:white;fill-rule:nonzero;"/>
        <path d="M291.602,71.097C291.602,71.097 285.802,76.297 288.102,78.797C349.902,143.897 323.402,121.597 385.702,196.897C385.702,196.897 387.602,196.197 379.802,213.197C379.802,213.197 356.202,185.997 346.502,177.097C336.802,168.197 304.402,141.997 295.002,127.697C285.602,113.397 277.202,95.897 269.202,90.997C262.802,87.097 263.902,94.397 263.902,94.397C263.902,94.397 293.202,127.597 296.402,148.097C297.702,156.697 301.902,181.397 278.002,205.297C274.002,209.297 293.502,181.097 290.502,153.597C289.002,139.797 276.302,111.097 255.202,89.997C242.602,77.397 247.002,62.997 259.002,66.697C263.802,68.197 270.702,73.397 277.102,74.097C284.802,74.997 291.602,71.097 291.602,71.097L291.602,71.097Z" style="fill:white;fill-rule:nonzero;"/>
        <path d="M296.002,191.997C321.502,191.997 360.902,227.297 373.102,221.797C385.302,216.297 387.902,166.997 405.602,166.197C423.402,165.397 441.302,195.697 448.902,239.297C448.902,239.297 450.802,249.097 442.502,235.297C442.502,235.297 431.402,174.997 411.102,176.197C389.902,177.397 389.702,210.997 379.302,222.397C365.402,237.597 314.802,196.897 296.002,203.997L296.002,191.997L296.002,191.997Z" style="fill:white;fill-rule:nonzero;"/>
        <path d="M236.702,29.097C265.602,7.397 298.402,45.697 298.402,45.697C278.602,14.797 251.402,11.597 233.302,17.397C206.402,26.097 208.002,36.997 208.002,36.997C214.202,31.897 218.102,31.897 218.102,31.897C218.102,31.897 212.402,40.697 214.102,39.497C218.402,36.497 221.002,36.797 221.002,36.797C221.002,36.797 217.302,40.497 214.302,53.897C206.402,89.497 254.502,127.197 252.802,153.597C251.902,167.797 239.202,177.697 224.902,190.597C213.402,200.997 175.602,232.497 154.602,229.997C124.702,226.497 81.402,154.897 44.002,178.597C11.202,199.397 28.702,257.397 28.702,257.397C28.702,257.397 34.602,274.597 31.502,247.097C28.202,218.597 35.102,202.697 59.902,197.397C121.002,184.397 120.102,242.297 165.102,232.997C192.002,227.497 215.702,202.997 227.602,194.697C240.902,185.397 258.702,169.597 259.402,150.397C260.002,133.897 247.902,121.497 235.402,102.297C219.302,77.497 207.302,51.197 236.702,29.097L236.702,29.097ZM48.202,188.797C39.202,193.697 32.502,201.297 32.502,201.297C32.502,201.297 36.302,190.797 46.202,185.197C57.302,178.897 74.302,183.097 74.302,183.097C74.302,183.097 57.502,183.797 48.202,188.797L48.202,188.797Z" style="fill:white;fill-rule:nonzero;"/>
    </g>
</svg>
