<!-- Generated by IcoMoon.io -->
<svg version="1.1" xmlns="http://www.w3.org/2000/svg" width="448" height="448" viewBox="0 0 448 448">
<title></title>
<g id="icomoon-ignore">
</g>
<path fill="#000" d="M77.175 359.887c2.8 4.2 6.038 8.138 9.888 11.463 2.013 1.75 4.288 3.412 6.563 4.725s4.638 2.363 7.087 3.238c1.837 0.613 3.675 1.137 5.6 1.488 2.275 0.438 4.55 0.612 6.825 0.7 1.138 0 2.362 0 3.5-0.088 1.837-0.088 3.763-0.35 5.6-0.612 1.75-0.35 3.5-0.788 5.163-1.313 2.013-0.613 3.938-1.488 5.775-2.45s3.588-2.012 5.25-3.237c0.7-0.525 1.4-1.050 2.1-1.575 0.875-0.787 1.75-1.487 2.625-2.362 2.625-2.45 4.9-5.163 7-8.050 1.837-2.625 3.5-5.338 4.9-8.137 0.525-0.963 0.963-1.925 1.4-2.975 0.087-0.262 0.263-0.612 0.35-0.875 0.088-0.087 0.088-0.262 0.175-0.35 0 0 0-0.088 0-0.088s0-0.087 0-0.087v0l1.225-2.625 1.75-2.275c1.925-1.662 2.275-2.275 4.638-3.325 1.75-0.787 3.675-1.137 5.6-1.137s3.85 0.35 5.6 1.137c0.875 0.35 1.75 0.875 2.538 1.4s1.487 1.225 2.188 1.838c1.75 1.838 1.925 2.625 2.975 4.9 0.088 0.175 0.088 0.262 0.175 0.438 0.613 1.487 1.313 2.975 2.013 4.375 0.35 0.7 0.787 1.4 1.138 2.188 0.7 1.225 1.4 2.45 2.188 3.675 1.487 2.188 3.063 4.375 4.813 6.388 1.487 1.75 3.15 3.412 4.9 4.9 1.925 1.662 3.938 3.15 6.125 4.462 2.275 1.4 4.638 2.538 7.175 3.413 2.012 0.7 4.025 1.225 6.125 1.662 2.275 0.438 4.55 0.612 6.825 0.7 1.225 0 2.45 0 3.675-0.088 1.838-0.087 3.675-0.262 5.425-0.612 1.838-0.35 3.588-0.787 5.338-1.313 2.012-0.613 3.938-1.488 5.775-2.45s3.588-2.012 5.25-3.237c0.7-0.525 1.4-1.050 2.1-1.575 0.875-0.787 1.75-1.487 2.625-2.362 2.625-2.45 4.9-5.162 7-8.050 1.838-2.625 3.5-5.338 4.9-8.137 0.525-0.963 0.962-1.925 1.4-2.975 0.088-0.263 0.263-0.613 0.35-0.875 0.087-0.088 0.087-0.263 0.175-0.35 0 0 0-0.087 0-0.087s0-0.088 0-0.088v0l1.225-2.625 1.75-2.275c1.925-1.662 2.275-2.275 4.638-3.325 0.875-0.35 1.838-0.7 2.713-0.875 1.837-0.35 3.85-0.438 5.688 0 1.837 0.35 3.675 1.137 5.25 2.275 0.787 0.525 1.487 1.225 2.188 1.838 1.75 1.838 1.925 2.625 2.975 4.9 0.088 0.175 0.088 0.262 0.175 0.438 0.613 1.488 1.313 2.975 2.013 4.375 0.35 0.7 0.787 1.4 1.137 2.188 0.7 1.225 1.4 2.45 2.188 3.675 1.488 2.188 3.063 4.375 4.813 6.387 1.488 1.75 3.15 3.412 4.9 4.9 1.925 1.662 3.938 3.15 6.125 4.462 2.275 1.4 4.637 2.538 7.175 3.413 2.012 0.7 4.025 1.225 6.125 1.662 2.275 0.438 4.55 0.613 6.825 0.7 1.225 0 2.45 0 3.675-0.087 1.837-0.088 3.675-0.263 5.425-0.613 0.263 0 0.438-0.088 0.7-0.175l4.813-30.712c4.375-27.913-8.488-38.325-29.838-41.65l-10.063-1.575-15.488-141.137 12.25 1.925 11.287-72.275c0 0 1.488-15.4-6.737-23.538-9.537-9.45-51.275-35.087-51.275-35.087s-46.725 11.287-59.5 17.763c-10.237 5.25-13.563 20.3-13.563 20.3l-11.287 72.275 12.25 1.925-57.575 130.025-10.063-1.575c-21.35-3.325-36.75 2.625-41.125 30.537l-7.175 46.025c0.087 0.087 0.087 0.175 0.175 0.35 1.050 2.012 2.188 4.025 3.412 5.862zM206.675 151.463l72.275 11.287 15.138 141.313-144.988-22.662 57.575-129.938z"></path>
<path fill="#000" d="M393.838 354.113v-0.088c0 0-13.037 37.362-49.875 41.213-0.963 0.087-1.838 0.175-2.8 0.175-0.175 0-0.35 0-0.438 0-0.963 0.088-1.925 0.088-2.887 0.088-0.787 0-1.575 0-2.363-0.088-0.175 0-0.35 0-0.612 0-0.7 0-1.488-0.088-2.188-0.175-0.088 0-0.088 0-0.175 0-0.787-0.088-1.575-0.175-2.363-0.263-0.175 0-0.35-0.088-0.525-0.088-0.788-0.087-1.575-0.262-2.363-0.35-0.787-0.175-1.662-0.35-2.45-0.525-0.175 0-0.263-0.087-0.438-0.087-0.788-0.175-1.575-0.438-2.363-0.613-0.088 0-0.175-0.088-0.35-0.088-1.575-0.438-3.15-1.050-4.725-1.662-0.087 0-0.175-0.088-0.35-0.088-0.7-0.262-1.313-0.525-1.925-0.875-0.087-0.087-0.262-0.087-0.35-0.175-0.612-0.35-1.313-0.613-1.925-0.963 0 0 0 0 0 0-0.613-0.35-1.313-0.7-1.925-1.050-0.088-0.087-0.262-0.087-0.35-0.175-0.613-0.35-1.225-0.7-1.838-1.138-0.088-0.087-0.175-0.087-0.262-0.175-0.525-0.35-1.138-0.7-1.663-1.138-0.087 0-0.087-0.087-0.175-0.087-0.613-0.438-1.138-0.788-1.662-1.225-0.088-0.087-0.175-0.175-0.263-0.262-0.525-0.438-1.050-0.875-1.662-1.313-0.088-0.088-0.175-0.175-0.262-0.175-0.525-0.438-1.138-0.962-1.663-1.4s-1.050-0.963-1.575-1.488c-0.088-0.088-0.175-0.175-0.262-0.175-0.525-0.438-0.963-0.962-1.4-1.4-0.088-0.088-0.175-0.175-0.263-0.263-0.438-0.438-0.875-0.962-1.313-1.4-0.087-0.088-0.175-0.175-0.262-0.35-0.438-0.525-0.875-0.962-1.313-1.487-0.088-0.088-0.175-0.175-0.262-0.35-0.438-0.525-0.875-1.050-1.225-1.575-0.087-0.088-0.175-0.175-0.175-0.262-0.438-0.525-0.787-1.050-1.225-1.575-0.088-0.087-0.088-0.175-0.175-0.262-0.438-0.525-0.787-1.137-1.225-1.662-0.088-0.088-0.088-0.088-0.175-0.175-0.438-0.613-0.787-1.137-1.137-1.75 0-0.088-0.088-0.088-0.088-0.175-0.35-0.525-0.7-1.050-1.050-1.575 0-0.088-0.087-0.175-0.087-0.175-0.35-0.525-0.613-1.137-0.963-1.662 0-0.088-0.088-0.088-0.088-0.175-0.35-0.612-0.613-1.137-0.963-1.75 0-0.087-0.088-0.087-0.088-0.175-0.35-0.613-0.612-1.225-0.962-1.838-0.438-0.963-0.963-1.925-1.313-2.887-0.175-0.35-0.35-0.788-0.525-1.138 0 0 0-0.087 0-0.087-0.175-0.438-0.35-0.788-0.438-1.225v-0.087c-0.088 0.175-0.088 0.262-0.175 0.438 0 0 0 0 0 0-0.087 0.175-0.175 0.35-0.175 0.525-0.438 0.963-0.788 1.925-1.225 2.888 0 0 0 0.087-0.087 0.087-0.438 0.963-0.875 1.838-1.4 2.8 0 0 0 0.088 0 0.088-0.613 1.137-1.225 2.275-1.838 3.325 0 0 0 0.088-0.087 0.088-0.613 1.050-1.313 2.188-2.013 3.238 0 0.087-0.088 0.087-0.088 0.175-0.35 0.525-0.787 1.138-1.137 1.662-0.088 0.088-0.088 0.175-0.175 0.263-0.35 0.525-0.787 1.050-1.137 1.575-0.088 0.088-0.175 0.175-0.262 0.263-0.35 0.525-0.788 1.050-1.138 1.487-0.088 0.088-0.175 0.175-0.262 0.35-0.438 0.525-0.787 0.963-1.225 1.488-0.088 0.088-0.175 0.175-0.263 0.262-0.438 0.438-0.787 0.963-1.225 1.4-0.088 0.088-0.088 0.088-0.175 0.175-0.438 0.525-0.875 0.963-1.4 1.487-0.088 0.088-0.175 0.175-0.263 0.263-0.438 0.438-0.963 0.963-1.4 1.4-0.087 0.087-0.175 0.175-0.262 0.262-0.525 0.438-1.050 0.963-1.488 1.4-0.525 0.525-1.137 0.963-1.75 1.487-0.087 0.088-0.175 0.088-0.262 0.175-0.525 0.438-1.137 0.875-1.662 1.313-0.088 0.088-0.175 0.175-0.263 0.262-0.612 0.438-1.225 0.875-1.75 1.313-0.087 0-0.087 0.088-0.175 0.088-0.613 0.438-1.138 0.787-1.75 1.138-0.088 0.087-0.175 0.087-0.35 0.175-0.525 0.35-1.050 0.613-1.575 0.963 0 0 0 0-0.088 0-0.525 0.262-0.963 0.525-1.487 0.875-0.175 0.088-0.263 0.175-0.438 0.262-0.438 0.175-0.787 0.438-1.225 0.613-0.175 0.088-0.35 0.175-0.438 0.262-0.438 0.175-0.875 0.438-1.225 0.613-6.388 2.887-13.912 4.725-22.575 4.725-8.575 0-16.1-1.838-22.487-4.637-0.7-0.35-1.4-0.613-2.1-0.963-0.087-0.088-0.262-0.088-0.35-0.175-0.7-0.35-1.4-0.7-2.1-1.137-0.088 0-0.088-0.088-0.175-0.088-0.7-0.438-1.4-0.787-2.1-1.225 0 0-0.088 0-0.088-0.088-0.7-0.438-1.4-0.875-2.012-1.313-0.088-0.088-0.175-0.088-0.175-0.175-0.612-0.438-1.313-0.875-1.925-1.4-0.087-0.088-0.175-0.088-0.263-0.175-0.612-0.438-1.225-0.963-1.837-1.4-0.088-0.087-0.175-0.175-0.263-0.262-0.612-0.525-1.138-0.963-1.75-1.488-0.088-0.087-0.175-0.175-0.263-0.175-0.525-0.525-1.138-1.050-1.662-1.575-0.088-0.087-0.175-0.175-0.175-0.175-0.525-0.525-1.050-1.138-1.575-1.662-0.088-0.088-0.175-0.175-0.175-0.175-0.525-0.525-1.050-1.137-1.575-1.75-0.088-0.088-0.088-0.088-0.175-0.175-0.875-1.050-1.75-2.1-2.625-3.237 0 0 0 0 0 0-0.875-1.138-1.663-2.275-2.45-3.412 0 0 0-0.088-0.088-0.088-0.7-0.963-1.313-2.013-1.925-3.063 0 0-0.088-0.088-0.088-0.088-0.612-1.050-1.225-2.1-1.837-3.15 0 0 0-0.088-0.088-0.088-0.35-0.7-0.787-1.4-1.138-2.1 0 0 0-0.088-0.087-0.088-0.35-0.7-0.7-1.487-1.050-2.188 0 0 0 0 0 0-0.263-0.525-0.525-1.050-0.7-1.662 0-0.088-0.088-0.175-0.088-0.175-0.263-0.525-0.438-1.138-0.7-1.663v-0.087c-0.087 0.175-0.087 0.35-0.175 0.438-0.087 0.175-0.175 0.35-0.263 0.525-0.438 0.963-0.787 1.925-1.225 2.888 0 0 0 0.088 0 0.088-0.438 0.962-0.875 1.837-1.4 2.8 0 0 0 0.088-0.087 0.088-0.612 1.137-1.225 2.188-1.838 3.325 0 0 0 0.088-0.087 0.088-0.613 1.050-1.313 2.188-2.013 3.238 0 0.087-0.088 0.087-0.088 0.175-0.35 0.525-0.787 1.138-1.138 1.663-0.087 0.087-0.087 0.175-0.175 0.262-0.35 0.525-0.787 1.050-1.138 1.575-0.087 0.088-0.175 0.175-0.262 0.263-0.35 0.525-0.788 1.050-1.138 1.487-0.088 0.088-0.175 0.175-0.263 0.35-0.438 0.525-0.787 0.962-1.225 1.487-0.088 0.088-0.175 0.175-0.263 0.263-0.438 0.438-0.787 0.962-1.225 1.4-0.088 0.088-0.088 0.088-0.175 0.175-0.438 0.525-0.875 0.963-1.4 1.488-0.088 0.087-0.175 0.175-0.263 0.262-0.438 0.438-0.963 0.963-1.4 1.4-0.087 0.087-0.175 0.175-0.262 0.262-0.525 0.438-0.963 0.963-1.488 1.4-0.612 0.525-1.137 0.962-1.75 1.487-0.087 0.088-0.175 0.088-0.175 0.175-0.612 0.438-1.138 0.875-1.75 1.4-0.088 0.087-0.175 0.175-0.263 0.262-0.612 0.438-1.225 0.875-1.837 1.313-0.088 0.088-0.175 0.088-0.263 0.175-0.612 0.438-1.225 0.787-1.838 1.137-0.087 0-0.087 0.088-0.175 0.088-0.525 0.262-0.963 0.612-1.487 0.875-0.088 0.088-0.175 0.088-0.263 0.175-0.438 0.263-0.875 0.438-1.313 0.7-0.175 0.088-0.263 0.175-0.438 0.262-0.35 0.175-0.7 0.35-1.138 0.525-0.175 0.088-0.35 0.175-0.525 0.262-0.35 0.175-0.7 0.35-1.050 0.525-6.475 2.888-14 4.813-22.837 4.813-41.388 0-55.825-41.387-55.825-41.475 0 0.088-14.525 41.475-55.912 41.475-0.875 0-1.662 0-2.45-0.088v16.1c0.787 0 1.663 0.087 2.45 0.087 32.375 0 55.912-25.462 55.912-25.462 0.087 0.087 23.45 25.462 55.825 25.462 22.662 0 41.037-12.512 49.962-19.95 0 0 0 0 0 0 0.35-0.262 0.613-0.525 0.963-0.787 1.138-0.963 2.1-1.838 2.888-2.625 0 0 0 0 0 0s0 0 0 0c1.050-1.050 1.75-1.75 2.013-1.925l0.087-0.088c0 0 0.263 0.263 0.788 0.788 0 0 0 0 0.087 0.087 0 0 0 0 0 0 0.525 0.525 1.313 1.313 2.362 2.275 0.088 0 0.088 0.088 0.175 0.088 0.7 0.613 1.487 1.313 2.362 2.012 0 0 0.088 0.088 0.088 0.088s0 0 0 0c8.925 7.438 27.212 20.037 50.050 20.037 21.612 0 39.2-11.287 48.563-18.813 0 0 0 0 0 0s0 0 0 0c2.188-1.75 3.938-3.325 5.162-4.55 0 0 0 0 0 0s0 0 0 0c1.050-1.050 1.75-1.75 2.012-1.925l0.088-0.088c0 0 0.263 0.263 0.787 0.788 0 0 0 0 0.088 0.087 0 0 0 0 0 0 0.525 0.525 1.4 1.4 2.537 2.363 0.088 0.088 0.088 0.088 0.175 0.175 0.7 0.612 1.575 1.4 2.45 2.1 0 0 0.088 0.088 0.088 0.088s0.088 0.087 0.088 0.087c0.613 0.525 1.225 1.050 1.925 1.575 0.175 0.087 0.262 0.262 0.438 0.35 0.612 0.525 1.313 0.963 1.925 1.488 0 0 0 0 0.088 0.087 0 0 0 0 0 0 9.887 7.263 25.988 16.275 45.238 16.275 1.137 0 2.362 0 3.5-0.088 0 0 0 0 0 0h0.262c29.488-1.75 50.838-23.8 52.15-25.287l0.088-0.088c0 0 22.575 24.588 54.162 25.463v-16.1c-38.5-1.838-52.938-39.725-53.813-42.088z"></path>
</svg>
