<svg xmlns="http://www.w3.org/2000/svg" width="448" height="448"><path d="M77.175 359.887c2.8 4.2 6.038 8.138 9.888 11.463 2.013 1.75 4.288 3.412 6.563 4.725s4.638 2.363 7.087 3.238c1.837.613 3.675 1.137 5.6 1.488 2.275.438 4.55.612 6.825.7 1.138 0 2.362 0 3.5-.088 1.837-.088 3.763-.35 5.6-.612 1.75-.35 3.5-.788 5.163-1.313 2.013-.613 3.938-1.488 5.775-2.45s3.588-2.012 5.25-3.237l2.1-1.575c.875-.787 1.75-1.487 2.625-2.362 2.625-2.45 4.9-5.163 7-8.05 1.837-2.625 3.5-5.338 4.9-8.137.525-.963.963-1.925 1.4-2.975.087-.262.263-.612.35-.875.088-.087.088-.262.175-.35v-.175l1.225-2.625 1.75-2.275c1.925-1.662 2.275-2.275 4.638-3.325 1.75-.787 3.675-1.137 5.6-1.137s3.85.35 5.6 1.137c.875.35 1.75.875 2.538 1.4s1.487 1.225 2.188 1.838c1.75 1.838 1.925 2.625 2.975 4.9.088.175.088.262.175.438a67.01 67.01 0 0 0 2.013 4.375c.35.7.787 1.4 1.138 2.188.7 1.225 1.4 2.45 2.188 3.675 1.487 2.188 3.063 4.375 4.813 6.388a43.187 43.187 0 0 0 4.9 4.9c1.925 1.662 3.938 3.15 6.125 4.462a35.98 35.98 0 0 0 7.175 3.413c2.012.7 4.025 1.225 6.125 1.662 2.275.438 4.55.612 6.825.7 1.225 0 2.45 0 3.675-.088 1.838-.087 3.675-.262 5.425-.612a52.517 52.517 0 0 0 5.338-1.313c2.012-.613 3.938-1.488 5.775-2.45s3.588-2.012 5.25-3.237l2.1-1.575c.875-.787 1.75-1.487 2.625-2.362 2.625-2.45 4.9-5.162 7-8.05 1.838-2.625 3.5-5.338 4.9-8.137.525-.963.962-1.925 1.4-2.975.088-.263.263-.613.35-.875.087-.088.087-.263.175-.35v-.175l1.225-2.625 1.75-2.275c1.925-1.662 2.275-2.275 4.638-3.325.875-.35 1.838-.7 2.713-.875 1.837-.35 3.85-.438 5.688 0a13.346 13.346 0 0 1 5.25 2.275c.787.525 1.487 1.225 2.188 1.838 1.75 1.838 1.925 2.625 2.975 4.9.088.175.088.262.175.438a66.77 66.77 0 0 0 2.013 4.375c.35.7.787 1.4 1.137 2.188.7 1.225 1.4 2.45 2.188 3.675 1.488 2.188 3.063 4.375 4.813 6.387a43.27 43.27 0 0 0 4.9 4.9c1.925 1.662 3.938 3.15 6.125 4.462a35.954 35.954 0 0 0 7.175 3.413c2.012.7 4.025 1.225 6.125 1.662 2.275.438 4.55.613 6.825.7 1.225 0 2.45 0 3.675-.087 1.837-.088 3.675-.263 5.425-.613.263 0 .438-.088.7-.175l4.813-30.712c4.375-27.913-8.488-38.325-29.838-41.65l-10.063-1.575-15.488-141.137 12.25 1.925 11.287-72.275s1.488-15.4-6.737-23.538c-9.537-9.45-51.275-35.087-51.275-35.087s-46.725 11.287-59.5 17.763c-10.237 5.25-13.563 20.3-13.563 20.3l-11.287 72.275 12.25 1.925-57.575 130.025-10.063-1.575c-21.35-3.325-36.75 2.625-41.125 30.537l-7.175 46.025c.087.087.087.175.175.35 1.05 2.012 2.188 4.025 3.412 5.862zm129.5-208.424l72.275 11.287 15.138 141.313L149.1 281.401l57.575-129.938z"/><path d="M393.838 354.113v-.088s-13.037 37.362-49.875 41.213c-.963.087-1.838.175-2.8.175h-.438c-.963.088-1.925.088-2.887.088-.787 0-1.575 0-2.363-.088h-.612c-.7 0-1.488-.088-2.188-.175h-.175l-2.363-.263c-.175 0-.35-.088-.525-.088-.788-.087-1.575-.262-2.363-.35-.787-.175-1.662-.35-2.45-.525-.175 0-.263-.087-.438-.087-.788-.175-1.575-.438-2.363-.613-.088 0-.175-.088-.35-.088-1.575-.438-3.15-1.05-4.725-1.662-.087 0-.175-.088-.35-.088-.7-.262-1.313-.525-1.925-.875-.087-.087-.262-.087-.35-.175-.612-.35-1.313-.613-1.925-.963-.613-.35-1.313-.7-1.925-1.05-.088-.087-.262-.087-.35-.175-.613-.35-1.225-.7-1.838-1.138-.088-.087-.175-.087-.262-.175-.525-.35-1.138-.7-1.663-1.138-.087 0-.087-.087-.175-.087-.613-.438-1.138-.788-1.662-1.225l-.263-.262a27.722 27.722 0 0 0-1.662-1.313c-.088-.088-.175-.175-.262-.175-.525-.438-1.138-.962-1.663-1.4s-1.05-.963-1.575-1.488c-.088-.088-.175-.175-.262-.175-.525-.438-.963-.962-1.4-1.4l-.263-.263c-.438-.438-.875-.962-1.313-1.4-.087-.088-.175-.175-.262-.35-.438-.525-.875-.962-1.313-1.487-.088-.088-.175-.175-.262-.35-.438-.525-.875-1.05-1.225-1.575-.087-.088-.175-.175-.175-.262-.438-.525-.787-1.05-1.225-1.575-.088-.087-.088-.175-.175-.262-.438-.525-.787-1.137-1.225-1.662l-.175-.175a19.681 19.681 0 0 1-1.137-1.75c0-.088-.088-.088-.088-.175l-1.05-1.575c0-.088-.087-.175-.087-.175-.35-.525-.613-1.137-.963-1.662 0-.088-.088-.088-.088-.175-.35-.612-.613-1.137-.963-1.75 0-.087-.088-.087-.088-.175-.35-.613-.612-1.225-.962-1.838-.438-.963-.963-1.925-1.313-2.887-.175-.35-.35-.788-.525-1.138v-.087c-.175-.438-.35-.788-.438-1.225v-.087c-.088.175-.088.262-.175.438-.087.175-.175.35-.175.525-.438.963-.788 1.925-1.225 2.888 0 0 0 .087-.087.087a41.751 41.751 0 0 1-1.4 2.8v.088c-.613 1.137-1.225 2.275-1.838 3.325 0 0 0 .088-.087.088a65.59 65.59 0 0 1-2.013 3.238c0 .087-.088.087-.088.175-.35.525-.787 1.138-1.137 1.662-.088.088-.088.175-.175.263-.35.525-.787 1.05-1.137 1.575l-.262.263c-.35.525-.788 1.05-1.138 1.487-.088.088-.175.175-.262.35-.438.525-.787.963-1.225 1.488l-.263.262c-.438.438-.787.963-1.225 1.4l-.175.175c-.438.525-.875.963-1.4 1.487l-.263.263-1.4 1.4-.262.262c-.525.438-1.05.963-1.488 1.4-.525.525-1.137.963-1.75 1.487-.087.088-.175.088-.262.175-.525.438-1.137.875-1.662 1.313l-.263.262c-.612.438-1.225.875-1.75 1.313-.087 0-.087.088-.175.088-.613.438-1.138.787-1.75 1.138-.088.087-.175.087-.35.175-.525.35-1.05.613-1.575.963h-.088c-.525.262-.963.525-1.487.875-.175.088-.263.175-.438.262-.438.175-.787.438-1.225.613-.175.088-.35.175-.438.262-.438.175-.875.438-1.225.613-6.388 2.887-13.912 4.725-22.575 4.725-8.575 0-16.1-1.838-22.487-4.637-.7-.35-1.4-.613-2.1-.963-.087-.088-.262-.088-.35-.175-.7-.35-1.4-.7-2.1-1.137-.088 0-.088-.088-.175-.088-.7-.438-1.4-.787-2.1-1.225 0 0-.088 0-.088-.088-.7-.438-1.4-.875-2.012-1.313-.088-.088-.175-.088-.175-.175-.612-.438-1.313-.875-1.925-1.4-.087-.088-.175-.088-.263-.175-.612-.438-1.225-.963-1.837-1.4l-.263-.262c-.612-.525-1.138-.963-1.75-1.488-.088-.087-.175-.175-.263-.175-.525-.525-1.138-1.05-1.662-1.575l-.175-.175c-.525-.525-1.05-1.138-1.575-1.662l-.175-.175c-.525-.525-1.05-1.137-1.575-1.75l-.175-.175c-.875-1.05-1.75-2.1-2.625-3.237-.875-1.138-1.663-2.275-2.45-3.412 0 0 0-.088-.088-.088-.7-.963-1.313-2.013-1.925-3.063l-.088-.088-1.837-3.15s0-.088-.088-.088c-.35-.7-.787-1.4-1.138-2.1 0 0 0-.088-.087-.088-.35-.7-.7-1.487-1.05-2.188-.263-.525-.525-1.05-.7-1.662 0-.088-.088-.175-.088-.175-.263-.525-.438-1.138-.7-1.663v-.087c-.087.175-.087.35-.175.438l-.263.525c-.438.963-.787 1.925-1.225 2.888v.088a42.233 42.233 0 0 1-1.4 2.8s0 .088-.087.088c-.612 1.137-1.225 2.188-1.838 3.325 0 0 0 .088-.087.088a65.59 65.59 0 0 1-2.013 3.238c0 .087-.088.087-.088.175-.35.525-.787 1.138-1.138 1.663-.087.087-.087.175-.175.262-.35.525-.787 1.05-1.138 1.575l-.262.263c-.35.525-.788 1.05-1.138 1.487-.088.088-.175.175-.263.35-.438.525-.787.962-1.225 1.487l-.263.263c-.438.438-.787.962-1.225 1.4l-.175.175c-.438.525-.875.963-1.4 1.488l-.263.262-1.4 1.4-.262.262c-.525.438-.963.963-1.488 1.4-.612.525-1.137.962-1.75 1.487-.087.088-.175.088-.175.175-.612.438-1.138.875-1.75 1.4l-.263.262-1.837 1.313c-.088.088-.175.088-.263.175-.612.438-1.225.787-1.838 1.137-.087 0-.087.088-.175.088-.525.262-.963.612-1.487.875-.088.088-.175.088-.263.175-.438.263-.875.438-1.313.7-.175.088-.263.175-.438.262-.35.175-.7.35-1.138.525l-.525.262-1.05.525c-6.475 2.888-14 4.813-22.837 4.813-41.388 0-55.825-41.387-55.825-41.475 0 .088-14.525 41.475-55.912 41.475-.875 0-1.662 0-2.45-.088v16.1c.787 0 1.663.087 2.45.087 32.375 0 55.912-25.462 55.912-25.462.087.087 23.45 25.462 55.825 25.462 22.662 0 41.037-12.512 49.962-19.95.35-.262.613-.525.963-.787a48.04 48.04 0 0 0 2.888-2.625c1.05-1.05 1.75-1.75 2.013-1.925l.087-.088.788.788.087.087a71.75 71.75 0 0 0 2.362 2.275c.088 0 .088.088.175.088.7.613 1.487 1.313 2.362 2.012l.088.088c8.925 7.438 27.212 20.037 50.05 20.037 21.612 0 39.2-11.287 48.563-18.813 2.188-1.75 3.938-3.325 5.162-4.55 1.05-1.05 1.75-1.75 2.012-1.925l.088-.088.787.788.088.087c.525.525 1.4 1.4 2.537 2.363l.175.175c.7.612 1.575 1.4 2.45 2.1l.088.088.088.087c.613.525 1.225 1.05 1.925 1.575.175.087.262.262.438.35.612.525 1.313.963 1.925 1.488l.088.087c9.887 7.263 25.988 16.275 45.238 16.275 1.137 0 2.362 0 3.5-.088h.262c29.488-1.75 50.838-23.8 52.15-25.287l.088-.088s22.575 24.588 54.162 25.463v-16.1c-38.5-1.838-52.938-39.725-53.813-42.088z"/></svg>