<?xml version="1.0" encoding="UTF-8" standalone="no"?><!DOCTYPE svg PUBLIC "-//W3C//DTD SVG 1.1//EN" "http://www.w3.org/Graphics/SVG/1.1/DTD/svg11.dtd"><svg width="100%" height="100%" viewBox="0 0 55559 55559" version="1.1" xmlns="http://www.w3.org/2000/svg" xmlns:xlink="http://www.w3.org/1999/xlink" xml:space="preserve" style="fill-rule:evenodd;clip-rule:evenodd;stroke-linejoin:round;stroke-miterlimit:1.41421;"><path d="M27777.8,4665.79c12803.8,0 23112,10308.2 23112,23112c0,12803.8 -10308.2,23112 -23112,23112c-12803.8,0 -23112,-10308.2 -23112,-23112c0,-12803.8 10308.2,-23112 23112,-23112l0,0Z" style="fill:#fec07a;fill-rule:nonzero;"/><g><path d="M32343.6,37274.7c-2042.44,0 -4086.4,-777.71 -5641.82,-2331.61c-1926.77,-1925.25 -5057.4,-1923.73 -6979.6,0c-595.077,595.077 -1556.94,595.077 -2152.02,0c-595.077,-595.078 -595.077,-1556.94 0,-2152.02c3109.32,-3109.32 8171.28,-3109.32 11283.6,0c1925.25,1923.73 5055.87,1922.21 6979.6,0c595.078,-595.077 1556.94,-595.077 2152.02,0c595.077,595.077 595.077,1556.94 0,2152.02c-1553.9,1553.9 -3597.86,2331.61 -5641.82,2331.61Z" style="fill:#fff;fill-rule:nonzero;"/><path d="M32343.6,31187c-2042.44,0 -4086.4,-777.71 -5641.82,-2331.61c-1926.77,-1925.25 -5057.4,-1923.73 -6979.6,0c-595.077,595.078 -1556.94,595.078 -2152.02,0c-595.077,-595.077 -595.077,-1556.94 0,-2152.02c3109.32,-3109.32 8171.28,-3109.32 11283.6,0c1925.25,1923.73 5055.87,1922.21 6979.6,0c595.078,-595.078 1556.94,-595.078 2152.02,0c595.077,595.077 595.077,1556.94 0,2152.02c-1553.9,1553.9 -3597.86,2331.61 -5641.82,2331.61Z" style="fill:#fff;fill-rule:nonzero;"/><path d="M32343.6,25099.2c-2042.44,0 -4086.4,-777.71 -5641.82,-2331.61c-1926.77,-1925.25 -5057.4,-1923.73 -6979.6,0c-595.077,595.077 -1556.94,595.077 -2152.02,0c-595.077,-595.077 -595.077,-1556.94 0,-2152.02c3109.32,-3107.8 8171.28,-3110.84 11283.6,0c1925.25,1923.73 5055.87,1922.21 6979.6,0c595.078,-595.077 1556.94,-595.077 2152.02,0c595.077,595.078 595.077,1556.94 0,2152.02c-1553.9,1553.9 -3597.86,2331.61 -5641.82,2331.61Z" style="fill:#fff;fill-rule:nonzero;"/></g></svg>