<?xml version="1.0" encoding="UTF-8" standalone="no"?><!DOCTYPE svg PUBLIC "-//W3C//DTD SVG 1.1//EN" "http://www.w3.org/Graphics/SVG/1.1/DTD/svg11.dtd"><svg width="100%" height="100%" viewBox="0 0 17917 3475" version="1.1" xmlns="http://www.w3.org/2000/svg" xmlns:xlink="http://www.w3.org/1999/xlink" xml:space="preserve" style="fill-rule:evenodd;clip-rule:evenodd;stroke-linejoin:round;stroke-miterlimit:1.41421;"><g><g><path d="M2051.9,812.8l-897.779,0l0,1346.65l1047.41,0l0,448.875l-1197.02,0c-199.5,0 -299.266,-99.762 -299.266,-299.267l0,-1645.9c0,-199.5 99.766,-299.266 299.266,-299.266l1197.02,0l-149.633,448.904l0,0Z" style="fill:#fff;fill-rule:nonzero;"/><path d="M4296.33,2309.06c0,199.505 -99.762,299.267 -299.266,299.267l-1197.02,0c-199.504,0 -299.267,-99.762 -299.267,-299.267l0,-1047.38c0,-199.504 99.763,-299.242 299.267,-299.242l1197.02,0c199.504,0 299.266,99.738 299.266,299.242l0,1047.38Zm-1346.65,-897.75l0,748.142l897.754,0l0,-748.142l-897.754,0Z" style="fill:#fff;fill-rule:nonzero;"/><path d="M6391.08,2309.06c0,199.505 -99.737,299.267 -299.241,299.267l-1197.02,0c-199.504,0 -299.271,-99.762 -299.271,-299.267l0,-1047.38c0,-199.504 99.767,-299.242 299.271,-299.242l897.75,0l-149.638,448.875l-598.508,0l0,748.142l897.779,0l0,-1795.55l448.875,0l0,1945.16Z" style="fill:#fff;fill-rule:nonzero;"/><path d="M8186.67,962.433c199.504,0 299.241,99.738 299.241,299.242l0,448.875c0,199.5 -99.737,299.267 -299.241,299.267l-897.775,0l0,-448.875l748.141,0l0,-149.634l-897.779,0l0,748.142l1045.9,0l-146.633,448.875l-1048.9,0c-199.504,0 -299.242,-99.762 -299.242,-299.267l0,-1047.38c0,-199.504 99.738,-299.242 299.242,-299.242l1197.05,0Z" style="fill:#fff;fill-rule:nonzero;"/></g><g><path d="M8786.5,663.163c0,-199.5 99.767,-299.267 299.271,-299.267l1197.02,0c199.5,0 299.237,99.766 299.237,299.267l0,1047.39c0,199.5 -99.737,299.267 -299.237,299.267l-897.78,0l149.634,-448.875l598.508,0l0,-748.142l-897.779,0l0,1795.53l-448.875,0l0,-1945.16l0,0Z" style="fill:#48adf0;fill-rule:nonzero;"/><path d="M11330.2,363.896l-149.634,448.904l-299.241,0l0,-448.904l448.875,0Zm-448.875,2244.43l0,-1645.89l448.875,0l0,1645.89l-448.875,0Z" style="fill:#48adf0;fill-rule:nonzero;"/><path d="M13125.7,962.433c199.5,0 299.267,99.738 299.267,299.242l0,448.875c0,199.5 -99.767,299.267 -299.267,299.267l-897.75,0l0,-448.875l748.142,0l0,-149.634l-897.779,0l0,748.142l1045.9,0l-146.633,448.875l-1048.9,0c-199.505,0 -299.242,-99.762 -299.242,-299.267l0,-1047.38c0,-199.504 99.737,-299.242 299.242,-299.242l1197.02,0Z" style="fill:#48adf0;fill-rule:nonzero;"/><path d="M13724.2,2608.33l0,-1346.65c0,-199.504 99.767,-299.242 299.267,-299.242l896.267,0l-149.634,448.875l-596.995,0l0,1197.02l-448.905,0Z" style="fill:#48adf0;fill-rule:nonzero;"/></g></g><path d="M17695.4,1208.79c-48.785,-182.071 -236.212,-290.282 -418.283,-241.496l-4107.02,1100.47c-182.072,48.786 -290.282,236.212 -241.497,418.284l176.788,659.78c48.786,182.071 236.212,290.282 418.284,241.496l4107.02,-1100.47c182.071,-48.786 290.282,-236.213 241.496,-418.284l-176.788,-659.78Z" style="fill:#fff;"/><g transform="matrix(0.965926,-0.258819,0.258819,0.965926,-325.052,3024.36)"><text x="13856.6px" y="3673.24px" style="font-family:'PTMono-Regular', 'PT Mono', monospace;font-size:1293.51px;fill:#f4645f;">BETA</text></g></svg>