<?xml version="1.0" encoding="UTF-8" standalone="no"?><!DOCTYPE svg PUBLIC "-//W3C//DTD SVG 1.1//EN" "http://www.w3.org/Graphics/SVG/1.1/DTD/svg11.dtd"><svg width="100%" height="100%" viewBox="0 0 1992 1125" version="1.1" xmlns="http://www.w3.org/2000/svg" xmlns:xlink="http://www.w3.org/1999/xlink" xml:space="preserve" style="fill-rule:evenodd;clip-rule:evenodd;stroke-linejoin:round;stroke-miterlimit:1.41421;"><g id="Kodi"><path d="M1200.11,183.419c4.97,-8.012 18.05,-8.908 29.187,-2.004c11.142,6.908 16.15,19.025 11.183,27.037c-4.97,8.013 -18.045,8.913 -29.187,2.005c-11.142,-6.909 -16.15,-19.025 -11.183,-27.038Z"/><path d="M927.659,280.54c0,0 -1.25,-115 79.583,-165c0,0 -111.667,157.083 -10.833,302.917c-54.584,-41.667 -68.75,-137.917 -68.75,-137.917Z" style="fill-rule:nonzero;"/><path d="M1149.74,144.29c0,0 72.5,9.583 106.25,50c33.75,40.417 0,74.583 0,74.583l-9.167,-10.833c0,0 55,-47.083 -87.916,-102.917c0,0 8.75,25 16.666,34.167l-6.666,2.5c0.416,0.417 -6.667,-5.833 -19.167,-47.5Z" style="fill-rule:nonzero;"/><path d="M1191.83,169.29c6.667,1.667 20.834,10 30.417,15.417c1.667,1.25 3.75,2.083 5.417,3.333c5.416,3.333 8.333,7.083 9.166,11.667c0.417,4.166 -0.833,8.75 -4.166,12.083c-1.667,1.667 -4.167,2.5 -7.5,2.5c-7.084,0 -15.834,-4.167 -23.334,-10.833c-8.75,-7.084 -12.083,-19.584 -10,-34.167m-2.083,-8.333c-3.333,0 -5.417,1.25 -5.833,4.583c-3.334,18.333 1.25,34.583 12.083,44.583c9.167,8.334 20,12.917 29.167,12.917c5.416,0 10.416,-1.667 13.75,-5.417c9.166,-9.583 10.416,-26.666 -6.667,-37.083c-15.417,-8.333 -33.333,-19.583 -42.5,-19.583Z" style="fill-rule:nonzero;"/><path d="M1622.24,789.29c0,0 -314.583,-430 -377.083,-470.417c0,0 26.666,-28.333 26.25,-47.083c0,0 216.666,267.917 357.083,499.167l-6.25,18.333Z" style="fill-rule:nonzero;"/><path d="M1225.16,280.123c0,0 -24.167,21.667 -14.584,32.084c257.5,271.25 147.084,178.333 406.667,492.083c0,0 7.917,-2.917 -24.583,67.917c0,0 -98.334,-113.334 -138.75,-150.417c-40.417,-37.083 -175.417,-146.25 -214.584,-205.833c-39.166,-59.584 -74.166,-132.5 -107.5,-152.917c-26.666,-16.25 -22.083,14.167 -22.083,14.167c0,0 122.083,138.333 135.417,223.75c5.416,35.833 22.916,138.75 -76.667,238.333c-16.667,16.667 64.583,-100.833 52.083,-215.417c-6.25,-57.5 -59.166,-177.083 -147.083,-265c-52.5,-52.5 -34.167,-112.5 15.833,-97.083c20,6.25 48.75,27.917 75.417,30.833c32.083,3.75 60.417,-12.5 60.417,-12.5Z" style="fill-rule:nonzero;"/><path d="M1243.49,783.873c106.25,0 270.417,147.084 321.25,124.167c50.833,-22.917 61.667,-228.333 135.417,-231.667c74.166,-3.333 148.75,122.917 180.416,304.584c0,0 7.917,40.833 -26.666,-16.667c0,0 -46.25,-251.25 -130.834,-246.25c-88.333,5 -89.166,145 -132.5,192.5c-57.916,63.333 -268.75,-106.25 -347.083,-76.667l0,-50Z" style="fill-rule:nonzero;"/><path d="M996.409,105.123c120.416,-90.416 257.083,69.167 257.083,69.167c-82.5,-128.75 -195.833,-142.083 -271.25,-117.917c-112.083,36.25 -105.417,81.667 -105.417,81.667c25.834,-21.25 42.084,-21.25 42.084,-21.25c0,0 -23.75,36.667 -16.667,31.667c17.917,-12.5 28.75,-11.25 28.75,-11.25c0,0 -15.417,15.416 -27.917,71.25c-32.916,148.333 167.5,305.416 160.417,415.416c-3.75,59.167 -56.667,100.417 -116.25,154.167c-47.917,43.333 -205.417,174.583 -292.917,164.167c-124.583,-14.584 -305,-312.917 -460.833,-214.167c-136.667,86.667 -63.75,328.333 -63.75,328.333c0,0 24.583,71.667 11.667,-42.916c-13.75,-118.75 15,-185 118.333,-207.084c254.583,-54.166 250.833,187.084 438.333,148.334c112.084,-22.917 210.834,-125 260.417,-159.584c55.417,-38.75 129.583,-104.583 132.5,-184.583c2.5,-68.75 -47.917,-120.417 -100,-200.417c-67.083,-103.333 -117.083,-212.916 5.417,-305Zm-785.417,665.417c-37.5,20.417 -65.417,52.083 -65.417,52.083c0,0 15.834,-43.75 57.084,-67.083c46.25,-26.25 117.083,-8.75 117.083,-8.75c0,0 -70,2.917 -108.75,23.75Z" style="fill-rule:nonzero;"/></g></svg>