<?xml version="1.0" encoding="UTF-8" standalone="no"?><!DOCTYPE svg PUBLIC "-//W3C//DTD SVG 1.1//EN" "http://www.w3.org/Graphics/SVG/1.1/DTD/svg11.dtd"><svg width="100%" height="100%" viewBox="0 0 3750 834" version="1.1" xmlns="http://www.w3.org/2000/svg" xmlns:xlink="http://www.w3.org/1999/xlink" xml:space="preserve" style="fill-rule:evenodd;clip-rule:evenodd;stroke-linejoin:round;stroke-miterlimit:1.41421;"><g><path d="M1724.54,318.008l-133.521,0l0,200.28l155.775,0l0,66.758l-178.025,0c-29.671,0 -44.509,-14.838 -44.509,-44.509l0,-244.783c0,-29.671 14.838,-44.508 44.509,-44.508l178.025,0l-22.254,66.762Z" style="fill-rule:nonzero;"/><path d="M2058.34,540.538c0,29.67 -14.838,44.508 -44.509,44.508l-178.025,0c-29.67,0 -44.508,-14.838 -44.508,-44.509l0,-155.77c0,-29.671 14.838,-44.505 44.508,-44.505l178.025,0c29.671,0 44.509,14.834 44.509,44.505l0,155.77Zm-200.28,-133.516l0,111.266l133.517,0l0,-111.266l-133.517,0Z" style="fill-rule:nonzero;"/><path d="M2369.88,540.538c0,29.67 -14.833,44.508 -44.504,44.508l-178.025,0c-29.671,0 -44.508,-14.838 -44.508,-44.509l0,-155.77c0,-29.671 14.837,-44.505 44.508,-44.505l133.517,0l-22.254,66.759l-89.013,0l0,111.266l133.521,0l0,-267.041l66.758,0l0,289.292Z" style="fill-rule:nonzero;"/><path d="M2636.93,340.263c29.671,0 44.504,14.833 44.504,44.504l0,66.758c0,29.671 -14.833,44.508 -44.504,44.508l-133.521,0l0,-66.758l111.267,0l0,-22.254l-133.521,0l0,111.267l155.55,0l-21.808,66.758l-155.996,0c-29.671,0 -44.504,-14.838 -44.504,-44.509l0,-155.77c0,-29.671 14.833,-44.505 44.504,-44.505l178.029,0Z" style="fill-rule:nonzero;"/></g><g><path d="M2726.14,295.754c0,-29.671 14.837,-44.508 44.508,-44.508l178.025,0c29.671,0 44.504,14.837 44.504,44.508l0,155.771c0,29.671 -14.833,44.508 -44.504,44.508l-133.521,0l22.254,-66.758l89.013,0l0,-111.267l-133.521,0l0,267.038l-66.758,0l0,-289.292Z" style="fill:#48adf0;fill-rule:nonzero;"/><path d="M3104.44,251.246l-22.254,66.762l-44.505,0l0,-66.762l66.759,0Zm-66.759,333.8l0,-244.784l66.759,0l0,244.784l-66.759,0Z" style="fill:#48adf0;fill-rule:nonzero;"/><path d="M3371.48,340.263c29.671,0 44.508,14.833 44.508,44.504l0.001,66.758c-0.001,29.671 -14.838,44.508 -44.509,44.508l-133.517,0l0,-66.758l111.267,0l0,-22.254l-133.521,0l0,111.267l155.55,0l-21.808,66.758l-155.996,0c-29.671,0 -44.504,-14.838 -44.504,-44.509l0,-155.77c0,-29.671 14.833,-44.505 44.504,-44.505l178.025,0Z" style="fill:#48adf0;fill-rule:nonzero;"/><path d="M3460.49,585.046l0,-200.279c0,-29.671 14.837,-44.505 44.508,-44.505l133.296,0l-22.254,66.759l-88.788,0l0,178.025l-66.762,0Z" style="fill:#48adf0;fill-rule:nonzero;"/></g><g id="Kodi"><path d="M903.108,133.563c3.709,-5.984 13.475,-6.655 21.796,-1.496c8.321,5.158 12.063,14.208 8.35,20.191c-3.708,5.984 -13.475,6.655 -21.796,1.496c-8.321,-5.158 -12.062,-14.208 -8.35,-20.192Z"/><path d="M699.633,206.096c0,0 -0.933,-85.888 59.438,-123.225c0,0 -83.396,117.312 -8.092,226.221c-40.762,-31.117 -51.346,-102.996 -51.346,-102.996Z" style="fill-rule:nonzero;"/><path d="M865.492,104.342c0,0 54.141,7.154 79.35,37.337c25.204,30.188 0,55.7 0,55.7l-6.846,-8.087c0,0 41.075,-35.163 -65.659,-76.863c0,0 6.534,18.671 12.446,25.517l-4.979,1.866c0.313,0.313 -4.979,-4.354 -14.312,-35.47Z" style="fill-rule:nonzero;"/><path d="M896.921,123.013c4.975,1.241 15.558,7.466 22.712,11.512c1.246,0.933 2.8,1.554 4.046,2.488c4.046,2.491 6.225,5.291 6.846,8.712c0.313,3.113 -0.621,6.538 -3.112,9.025c-1.242,1.246 -3.109,1.867 -5.601,1.867c-5.291,0 -11.825,-3.113 -17.425,-8.092c-6.533,-5.287 -9.025,-14.625 -7.466,-25.512m-1.559,-6.225c-2.487,0 -4.045,0.933 -4.354,3.42c-2.491,13.692 0.934,25.83 9.021,33.296c6.846,6.225 14.938,9.646 21.784,9.646c4.045,0 7.779,-1.242 10.27,-4.042c6.846,-7.158 7.779,-19.916 -4.979,-27.695c-11.516,-6.225 -24.896,-14.625 -31.741,-14.625Z" style="fill-rule:nonzero;"/><path d="M1218.36,586.038c-0.001,0 -234.938,-321.134 -281.613,-351.317c0,0 19.913,-21.158 19.604,-35.163c0,0 161.808,200.088 266.675,372.788l-4.667,13.692Z" style="fill-rule:nonzero;"/><path d="M921.813,205.783c0,0 -18.046,16.179 -10.892,23.959c192.308,202.575 109.846,133.183 303.708,367.5c0,0 5.913,-2.179 -18.362,50.721c0,0 -73.438,-84.642 -103.621,-112.334c-30.183,-27.696 -131.004,-109.225 -160.254,-153.721c-29.25,-44.5 -55.388,-98.954 -80.284,-114.2c-19.912,-12.137 -16.491,10.58 -16.491,10.58c0,0 91.175,103.308 101.133,167.1c4.046,26.758 17.113,103.62 -57.258,177.991c-12.446,12.446 48.233,-75.304 38.9,-160.879c-4.671,-42.942 -44.188,-132.246 -109.846,-197.904c-39.208,-39.208 -25.517,-84.017 11.825,-72.504c14.937,4.666 36.408,20.85 56.321,23.025c23.962,2.8 45.121,-9.334 45.121,-9.334Z" style="fill-rule:nonzero;"/><path d="M935.504,581.992c79.35,0 201.954,109.846 239.917,92.729c37.962,-17.113 46.054,-170.521 101.129,-173.013c55.392,-2.487 111.092,91.796 134.738,227.471c0,0 5.912,30.492 -19.913,-12.45c0,0 -34.542,-187.637 -97.708,-183.904c-65.971,3.738 -66.592,108.292 -98.954,143.763c-43.255,47.3 -200.709,-79.346 -259.209,-57.255l0,-37.341Z" style="fill-rule:nonzero;"/><path d="M750.979,75.092c89.929,-67.525 191.992,51.654 191.992,51.654c-61.613,-96.154 -146.25,-106.113 -202.571,-88.063c-83.708,27.071 -78.729,60.988 -78.729,60.988c19.292,-15.867 31.429,-15.867 31.429,-15.867c0,0 -17.737,27.383 -12.446,23.646c13.379,-9.333 21.471,-8.4 21.471,-8.4c0,0 -11.512,11.513 -20.85,53.213c-24.583,110.775 125.092,228.087 119.804,310.237c-2.804,44.188 -42.321,74.996 -86.821,115.138c-35.783,32.358 -153.408,130.379 -218.754,122.599c-93.041,-10.891 -227.779,-233.691 -344.158,-159.941c-102.063,64.725 -47.608,245.204 -47.608,245.204c0,0 18.358,53.521 8.712,-32.05c-10.271,-88.688 11.2,-138.162 88.375,-154.654c190.125,-40.454 187.325,139.717 327.354,110.779c83.704,-17.117 157.454,-93.354 194.484,-119.179c41.383,-28.942 96.775,-78.109 98.954,-137.854c1.866,-51.342 -35.788,-89.93 -74.684,-149.671c-50.1,-77.171 -87.441,-159.013 4.046,-227.779Zm-586.562,496.941c-28.009,15.25 -48.854,38.896 -48.854,38.896c0,0 11.825,-32.671 42.629,-50.096c34.541,-19.604 87.441,-6.537 87.441,-6.537c0,0 -52.279,2.179 -81.216,17.737Z" style="fill-rule:nonzero;"/></g></svg>