<?xml version="1.0" encoding="UTF-8" standalone="no"?>
<!DOCTYPE svg PUBLIC "-//W3C//DTD SVG 1.1//EN" "http://www.w3.org/Graphics/SVG/1.1/DTD/svg11.dtd">
<svg width="100%" height="100%" viewBox="0 0 900 200" version="1.1" xmlns="http://www.w3.org/2000/svg" xmlns:xlink="http://www.w3.org/1999/xlink" xml:space="preserve" style="fill-rule:evenodd;clip-rule:evenodd;stroke-linejoin:round;stroke-miterlimit:1.41421;">
    <g transform="matrix(1,0,0,1,365.823,140.411)">
        <path d="M48.067,-64.089L16.022,-64.089L16.022,-16.022L53.408,-16.022L53.408,0L10.682,0C3.561,0 0,-3.561 0,-10.682L0,-69.43C0,-76.551 3.561,-80.112 10.682,-80.112L53.408,-80.112L48.067,-64.089Z" style="fill:white;fill-rule:nonzero;"/>
        <path d="M128.179,-10.682C128.179,-3.561 124.618,0 117.497,0L74.771,0C67.65,0 64.089,-3.561 64.089,-10.682L64.089,-48.067C64.089,-55.188 67.65,-58.748 74.771,-58.748L117.497,-58.748C124.618,-58.748 128.179,-55.188 128.179,-48.067L128.179,-10.682ZM80.112,-42.726L80.112,-16.022L112.156,-16.022L112.156,-42.726L80.112,-42.726Z" style="fill:white;fill-rule:nonzero;"/>
        <path d="M202.949,-10.682C202.949,-3.561 199.389,0 192.268,0L149.542,0C142.421,0 138.86,-3.561 138.86,-10.682L138.86,-48.067C138.86,-55.188 142.421,-58.748 149.542,-58.748L181.586,-58.748L176.245,-42.726L154.882,-42.726L154.882,-16.022L186.927,-16.022L186.927,-80.112L202.949,-80.112L202.949,-10.682Z" style="fill:white;fill-rule:nonzero;"/>
        <path d="M267.039,-58.748C274.16,-58.748 277.72,-55.188 277.72,-48.067L277.72,-32.045C277.72,-24.924 274.16,-21.363 267.039,-21.363L234.994,-21.363L234.994,-37.385L261.698,-37.385L261.698,-42.726L229.653,-42.726L229.653,-16.022L266.985,-16.022L261.751,0L224.312,0C217.191,0 213.631,-3.561 213.631,-10.682L213.631,-48.067C213.631,-55.188 217.191,-58.748 224.312,-58.748L267.039,-58.748Z" style="fill:white;fill-rule:nonzero;"/>
    </g>
    <g transform="matrix(1,0,0,1,654.273,140.411)">
        <path d="M0,-69.43C0,-76.551 3.561,-80.112 10.682,-80.112L53.408,-80.112C60.529,-80.112 64.089,-76.551 64.089,-69.43L64.089,-32.045C64.089,-24.924 60.529,-21.363 53.408,-21.363L21.363,-21.363L26.704,-37.385L48.067,-37.385L48.067,-64.089L16.022,-64.089L16.022,0L0,0L0,-69.43Z" style="fill:rgb(72,173,240);fill-rule:nonzero;"/>
        <path d="M90.793,-80.112L85.452,-64.089L74.771,-64.089L74.771,-80.112L90.793,-80.112ZM74.771,0L74.771,-58.748L90.793,-58.748L90.793,0L74.771,0Z" style="fill:rgb(72,173,240);fill-rule:nonzero;"/>
        <path d="M154.882,-58.748C162.003,-58.748 165.564,-55.188 165.564,-48.067L165.564,-32.045C165.564,-24.924 162.003,-21.363 154.882,-21.363L122.838,-21.363L122.838,-37.385L149.542,-37.385L149.542,-42.726L117.497,-42.726L117.497,-16.022L154.829,-16.022L149.595,0L112.156,0C105.035,0 101.475,-3.561 101.475,-10.682L101.475,-48.067C101.475,-55.188 105.035,-58.748 112.156,-58.748L154.882,-58.748Z" style="fill:rgb(72,173,240);fill-rule:nonzero;"/>
        <path d="M176.245,0L176.245,-48.067C176.245,-55.188 179.806,-58.748 186.927,-58.748L218.918,-58.748L213.577,-42.726L192.268,-42.726L192.268,0L176.245,0Z" style="fill:rgb(72,173,240);fill-rule:nonzero;"/>
    </g>
    <g id="Kodi">
        <path d="M216.746,32.055C217.636,30.619 219.98,30.458 221.977,31.696C223.974,32.934 224.872,35.106 223.981,36.542C223.091,37.978 220.747,38.139 218.75,36.901C216.753,35.663 215.855,33.491 216.746,32.055L216.746,32.055Z" style="fill:white;"/>
        <path d="M167.912,49.463C167.912,49.463 167.688,28.85 182.177,19.889C182.177,19.889 162.162,48.044 180.235,74.182C170.452,66.714 167.912,49.463 167.912,49.463Z" style="fill:white;fill-rule:nonzero;"/>
        <path d="M207.718,25.042C207.718,25.042 220.712,26.759 226.762,34.003C232.811,41.248 226.762,47.371 226.762,47.371L225.119,45.43C225.119,45.43 234.977,36.991 209.361,26.983C209.361,26.983 210.929,31.464 212.348,33.107L211.153,33.555C211.228,33.63 209.958,32.51 207.718,25.042Z" style="fill:white;fill-rule:nonzero;"/>
        <path d="M215.261,29.523C216.455,29.821 218.995,31.315 220.712,32.286C221.011,32.51 221.384,32.659 221.683,32.883C222.654,33.481 223.177,34.153 223.326,34.974C223.401,35.721 223.177,36.543 222.579,37.14C222.281,37.439 221.833,37.588 221.235,37.588C219.965,37.588 218.397,36.841 217.053,35.646C215.485,34.377 214.887,32.136 215.261,29.523M214.887,28.029C214.29,28.029 213.916,28.253 213.842,28.85C213.244,32.136 214.066,35.049 216.007,36.841C217.65,38.335 219.592,39.156 221.235,39.156C222.206,39.156 223.102,38.858 223.7,38.186C225.343,36.468 225.567,33.406 222.505,31.539C219.741,30.045 216.53,28.029 214.887,28.029L214.887,28.029Z" style="fill:white;fill-rule:nonzero;"/>
        <path d="M292.407,140.649C292.407,140.649 236.022,63.577 224.82,56.333C224.82,56.333 229.599,51.255 229.525,47.894C229.525,47.894 268.359,95.915 293.527,137.363L292.407,140.649Z" style="fill:white;fill-rule:nonzero;"/>
        <path d="M221.235,49.388C221.235,49.388 216.904,53.271 218.621,55.138C264.775,103.756 244.984,87.102 291.511,143.338C291.511,143.338 292.93,142.815 287.104,155.511C287.104,155.511 269.479,135.197 262.235,128.551C254.991,121.904 230.794,102.337 223.774,91.658C216.754,80.978 210.481,67.909 204.506,64.25C199.727,61.337 200.548,66.789 200.548,66.789C200.548,66.789 222.43,91.583 224.82,106.893C225.791,113.315 228.927,131.762 211.078,149.611C208.091,152.598 222.654,131.538 220.414,111C219.293,100.694 209.809,79.261 194.051,63.503C184.641,54.093 187.927,43.339 196.889,46.102C200.474,47.222 205.627,51.106 210.406,51.628C216.157,52.3 221.235,49.388 221.235,49.388Z" style="fill:white;fill-rule:nonzero;"/>
        <path d="M224.521,139.678C243.565,139.678 272.99,166.041 282.101,161.933C291.212,157.826 293.154,121.008 306.372,120.41C319.666,119.813 333.034,142.441 338.709,175.003C338.709,175.003 340.128,182.321 333.93,172.015C333.93,172.015 325.64,126.982 310.48,127.878C294.647,128.775 294.498,153.868 286.731,162.381C276.35,173.733 238.561,143.338 224.521,148.64L224.521,139.678Z" style="fill:white;fill-rule:nonzero;"/>
        <path d="M180.235,18.022C201.818,1.816 226.313,30.419 226.313,30.419C211.526,7.342 191.213,4.952 177.696,9.284C157.606,15.781 158.801,23.921 158.801,23.921C163.431,20.113 166.344,20.113 166.344,20.113C166.344,20.113 162.087,26.685 163.357,25.788C166.568,23.548 168.51,23.772 168.51,23.772C168.51,23.772 165.747,26.535 163.506,36.543C157.606,63.129 193.528,91.284 192.259,111C191.586,121.605 182.102,128.999 171.422,138.633C162.834,146.399 134.604,169.924 118.921,168.057C96.591,165.443 64.254,111.971 36.323,129.671C11.828,145.205 24.897,188.52 24.897,188.52C24.897,188.52 29.303,201.365 26.988,180.828C24.523,159.543 29.676,147.669 48.198,143.711C93.828,134.002 93.156,177.243 126.763,170.298C146.852,166.19 164.552,147.893 173.439,141.695C183.371,134.749 196.665,122.949 197.188,108.61C197.636,96.288 188.599,87.027 179.264,72.689C167.24,54.168 158.278,34.526 180.235,18.022L180.235,18.022ZM39.46,137.288C32.738,140.948 27.735,146.623 27.735,146.623C27.735,146.623 30.573,138.782 37.966,134.6C46.256,129.895 58.952,133.031 58.952,133.031C58.952,133.031 46.405,133.554 39.46,137.288L39.46,137.288Z" style="fill:white;fill-rule:nonzero;"/>
    </g>
</svg>
