<?xml version="1.0" standalone="no"?>
<!DOCTYPE svg PUBLIC "-//W3C//DTD SVG 20010904//EN"
 "http://www.w3.org/TR/2001/REC-SVG-20010904/DTD/svg10.dtd">
<svg version="1.0" xmlns="http://www.w3.org/2000/svg"
 width="600.000000pt" height="600.000000pt" viewBox="0 0 600.000000 600.000000"
 preserveAspectRatio="xMidYMid meet">
<metadata>
Created by potrace 1.11, written by Peter Selinger 2001-2013
</metadata>
<g transform="translate(0.000000,600.000000) scale(0.100000,-0.100000)"
fill="#000000" stroke="none">
<path d="M2752 4838 c-9 -9 -12 -90 -12 -305 l0 -293 -700 0 -700 0 0 281 c0
174 -4 288 -10 300 -10 18 -24 19 -255 19 -134 0 -250 -3 -259 -6 -14 -5 -16
-41 -16 -300 l0 -294 -230 0 -230 0 0 -385 0 -385 115 0 115 0 0 -195 0 -195
115 0 115 0 0 -864 c0 -775 -2 -865 -16 -877 -9 -7 -29 -40 -46 -73 -108 -214
-334 -372 -560 -392 -112 -10 -108 -7 -108 -69 l0 -55 55 0 c231 0 511 148
646 341 23 32 45 59 49 59 4 0 19 -18 34 -40 68 -103 196 -213 316 -272 264
-130 586 -113 831 44 76 49 181 149 231 220 41 58 41 58 56 36 165 -247 425
-388 712 -388 287 0 547 141 712 388 15 22 15 22 56 -36 50 -71 155 -171 231
-220 246 -158 571 -174 833 -42 126 63 244 164 313 268 15 23 31 42 35 42 4 0
26 -27 49 -59 80 -115 225 -225 372 -283 77 -31 200 -58 264 -58 l45 0 0 59 0
58 -73 6 c-140 10 -300 81 -415 183 -64 56 -115 124 -165 219 l-37 69 0 868 0
868 110 0 110 0 0 195 0 195 120 0 120 0 0 385 0 385 -230 0 -230 0 0 288 c0
211 -3 291 -12 300 -17 17 -499 17 -516 0 -9 -9 -12 -89 -12 -300 l0 -288
-700 0 -700 0 0 293 c0 215 -3 296 -12 305 -17 17 -499 17 -516 0z m2838 -980
l0 -303 -2580 0 -2580 0 0 303 0 302 2580 0 2580 0 0 -302z m-2850 -948 l0
-169 -37 -30 c-21 -16 -174 -131 -341 -255 -242 -180 -307 -224 -320 -216 -9
5 -170 124 -357 263 l-340 255 -3 161 -2 161 700 0 700 0 0 -170z m1940 3 l-1
-168 -196 -145 c-108 -80 -265 -196 -349 -258 l-153 -113 -348 259 -348 259
-3 167 -2 166 700 0 700 0 0 -167z m-3049 -582 l281 -210 -273 -203 c-151
-112 -280 -207 -286 -211 -10 -7 -13 79 -13 412 0 232 2 421 5 421 2 0 131
-94 286 -209z m1929 -2 c149 -111 269 -205 268 -210 -3 -7 -497 -379 -535
-402 -10 -7 -13 76 -13 402 0 226 2 411 5 411 2 0 126 -91 275 -201z m1118
-413 l-3 -204 -272 202 c-150 110 -271 204 -270 208 1 4 124 98 272 208 l270
200 3 -205 c1 -113 1 -297 0 -409z m-1940 5 l-3 -199 -268 200 -269 200 269
199 268 199 3 -200 c1 -110 1 -290 0 -399z m-337 -163 l339 -253 0 -293 0
-293 -22 7 c-38 11 -110 55 -176 107 -70 55 -138 138 -191 235 -41 74 -57 88
-94 78 -20 -5 -36 -25 -69 -89 -32 -63 -64 -104 -133 -173 -78 -79 -104 -98
-185 -137 -52 -24 -125 -52 -162 -61 -78 -19 -238 -20 -313 -2 l-50 11 -2 295
-2 295 352 262 c194 144 356 262 360 262 5 1 161 -113 348 -251z m1940 -10
l339 -253 0 -297 0 -296 -69 -16 c-96 -22 -238 -20 -331 4 -41 10 -113 38
-160 62 -118 59 -247 187 -308 305 -33 64 -49 84 -69 89 -37 10 -53 -4 -98
-84 -56 -100 -123 -182 -191 -234 -65 -49 -147 -98 -163 -98 -8 0 -11 88 -11
283 l1 282 347 257 c191 142 353 256 360 253 8 -3 166 -119 353 -257z"/>
</g>
</svg>
