<?xml version="1.0" standalone="no"?>
<!DOCTYPE svg PUBLIC "-//W3C//DTD SVG 20010904//EN"
 "http://www.w3.org/TR/2001/REC-SVG-20010904/DTD/svg10.dtd">
<svg version="1.0" xmlns="http://www.w3.org/2000/svg"
 width="800.000000pt" height="800.000000pt" viewBox="0 0 800.000000 800.000000"
 preserveAspectRatio="xMidYMid meet">
<metadata>
Created by potrace 1.11, written by Peter Selinger 2001-2013
</metadata>
<g transform="translate(0.000000,800.000000) scale(0.100000,-0.100000)"
fill="#000000" stroke="none">
<path d="M3680 6462 c-8 -3 -18 -10 -22 -16 -4 -6 -8 -185 -8 -398 0 -303 -3
-388 -12 -389 -7 -1 -428 -2 -935 -3 l-922 -1 0 384 c0 333 -2 386 -15 400
-14 13 -62 15 -343 15 -299 1 -330 -1 -345 -16 -17 -17 -18 -50 -18 -400 l0
-383 -303 0 -302 0 0 -512 c-1 -507 -1 -511 20 -515 11 -2 80 -3 153 -2 l132
1 1 -26 c0 -14 1 -131 1 -258 l1 -233 148 0 149 0 0 -1156 c0 -1003 -2 -1158
-15 -1168 -8 -6 -33 -47 -56 -91 -23 -44 -61 -107 -85 -141 -77 -107 -222
-232 -342 -293 -106 -54 -280 -100 -387 -102 -76 -2 -88 -13 -88 -84 0 -72 12
-83 90 -78 348 20 659 189 859 466 31 43 58 76 60 75 1 -2 20 -29 41 -60 70
-103 208 -237 313 -303 118 -74 310 -149 414 -161 28 -3 67 -9 86 -13 58 -11
228 -4 318 14 294 56 568 235 724 471 l36 56 58 -79 c328 -443 902 -590 1399
-357 156 73 333 221 432 362 58 83 55 80 60 64 11 -29 102 -142 169 -208 374
-372 948 -434 1399 -151 28 17 55 36 62 42 6 5 26 21 44 35 59 45 169 164 211
227 23 35 42 63 43 63 1 0 32 -40 68 -89 187 -250 479 -417 782 -448 131 -13
120 -20 122 73 l1 80 -26 1 c-194 3 -415 82 -564 201 -131 106 -205 197 -282
346 l-45 88 0 1159 0 1159 150 0 149 0 0 258 0 258 138 -1 c75 0 145 2 155 4
16 3 17 34 15 515 l-3 511 -290 1 c-159 1 -295 2 -302 3 -10 1 -12 90 -12 382
0 324 -2 384 -15 398 -13 14 -50 16 -344 16 -259 -1 -333 -4 -346 -14 -14 -12
-16 -58 -16 -400 l0 -386 -933 0 -932 1 -5 396 c-3 218 -9 400 -13 405 -9 9
-651 14 -677 5z m-30 -2585 c0 -220 -1 -233 -20 -244 -15 -10 -539 -399 -730
-543 -14 -11 -50 -37 -80 -59 -30 -22 -61 -45 -67 -51 -10 -8 -61 25 -200 130
-104 78 -303 226 -443 330 -140 104 -272 203 -292 220 l-38 31 0 209 1 210
934 0 935 0 0 -233z m2590 10 l0 -223 -247 -184 c-137 -102 -346 -258 -466
-347 l-219 -163 -96 73 c-53 40 -194 145 -312 233 -225 167 -456 339 -502 375
l-28 21 0 219 0 219 935 0 935 0 0 -223z m-4399 -532 c15 -11 39 -29 54 -40
160 -115 641 -477 643 -484 1 -4 -17 -23 -42 -42 -83 -64 -689 -514 -702 -522
-11 -6 -13 95 -13 564 0 633 -7 576 60 524z m3052 -359 c197 -146 226 -171
210 -180 -10 -6 -117 -85 -238 -175 -441 -329 -484 -361 -489 -361 -8 0 -8
1085 -1 1092 3 3 70 -42 148 -101 78 -58 245 -182 370 -275z m1345 -441 l-3
-274 -125 93 c-69 51 -234 175 -367 274 l-243 181 368 273 367 274 3 -273 c1
-150 1 -397 0 -548z m-2592 -252 c-3 -3 -447 322 -511 374 -5 5 -44 33 -85 63
-90 66 -110 82 -110 91 0 3 21 21 48 40 26 18 52 37 57 42 8 6 232 173 535
398 l65 49 3 -527 c1 -289 0 -528 -2 -530z m-734 255 c90 -67 177 -132 193
-143 17 -12 39 -29 50 -38 11 -9 127 -95 258 -192 l237 -177 0 -393 0 -394
-47 21 c-199 88 -365 249 -469 452 -49 97 -81 122 -130 101 -25 -10 -43 -34
-85 -115 -118 -226 -312 -392 -552 -474 -162 -55 -370 -64 -532 -22 l-50 12
-2 387 -2 387 197 148 c108 81 203 152 212 159 8 6 107 80 220 164 113 83 230
171 260 194 30 24 60 44 67 44 7 1 85 -54 175 -121z m2555 11 c81 -61 159
-119 173 -129 14 -11 129 -96 255 -190 127 -94 237 -176 245 -183 8 -7 34 -26
57 -42 l43 -30 0 -396 0 -397 -62 -15 c-344 -86 -706 21 -947 278 -67 72 -113
140 -166 245 -37 74 -56 90 -105 90 -33 0 -33 0 -135 -177 -83 -143 -254 -301
-400 -367 -22 -10 -43 -21 -47 -23 -5 -2 -8 166 -8 375 l0 379 101 74 c55 41
110 82 122 91 124 98 705 527 714 527 7 1 79 -49 160 -110z"/>
</g>
</svg>
