<svg version="1" xmlns="http://www.w3.org/2000/svg" width="1600" height="1600" viewBox="0 0 1200 1200"><path d="M682.9.4c-.2.2-2.6.7-5.4 1.1-12.2 1.6-30.6 9.8-42.1 18.9-15 11.7-26.9 26.5-35.1 43.6-2.5 5.2-4.9 10.2-5.3 11-.6 1.3-3.8 11.5-4.5 14.5-.1.5-.5 2.1-.8 3.5-.7 2.6-1.3 6.6-2.3 14-1.3 8.8-.5 33.3 1 35.8.2.4.7 2.4 1 4.6 1 6.1 5.4 18.4 9.5 26.6 4.2 8.3 6.1 11.4 24.1 39.5 6.9 10.7 13 20.3 13.5 21.2.6 1 3.2 5.1 5.8 9.2 8.7 13.3 68 110 86.9 141.6 44.6 74.8 59.6 103.4 62.4 118.8.2 1.7.7 3.4 1 3.9.6 1 .6 17.2 0 21.3-3.1 19.4-19.3 32.3-44.6 35.3-10.3 1.3-38.3.3-41-1.3-.3-.2-3.5-.7-7-1-3.6-.4-6.8-.9-7.3-1.2-1-.6-31.4-.6-32.4 0-.5.3-3.6.8-7.1 1.1-14 1.4-49.3 10.7-61.7 16.2-1.6.7-7.7 3.2-13.5 5.4-21.7 8.6-55.3 26.2-80 41.8-55.4 35.3-91.2 69.8-100.4 97.2-.8 2.5-1.8 6.8-2.1 9.5-.6 4.2-.4 5.3 1.2 6.7 2 1.9 12.1 3.8 19.8 3.8h5l-6.7 7c-10.8 11.2-17.7 24.6-19.3 37.3-.7 5.1-.5 5.6 1.7 7.1 2.7 1.8 12.2 3.3 19.1 3.1 2.6-.1 4.7.1 4.7.4 0 .3-2.1 2.6-4.6 5-11.8 11.2-19.5 25.9-21.1 39.9l-.5 5.2 3.8 1.6c2.3 1 7.9 1.9 13.5 2.2l9.6.5-6.4 6.4c-11.4 11.5-18.5 25.3-19.9 38.6-.5 4.5-.3 5.4 1.5 6.4 2.5 1.6 13 3.3 20 3.3h5.3l-5.1 4.6c-9.8 8.8-19.1 24.6-20.6 34.9-.4 2.5-.9 4.4-1.1 4.3-.1-.2-.6-3.5-.9-7.3-1.3-14.1-7.9-33.9-12.2-36.3-1.4-.8-.7-1.4 3.6-3.2 6.5-2.8 8.3-6.1 8.6-15.1.5-14.3-6.7-39.6-12-42.6-1.2-.7-.6-1.3 2.7-2.8 2.4-1 5.3-3 6.5-4.3 2.5-2.9 3.9-11.8 2.8-18.4-.4-2.4-.9-5.7-1.1-7.3-1.7-10.9-8.1-27-11.1-28.2-1-.4.3-1.4 3.9-3.2 8.1-4 9.7-9.4 7.7-25.4-1.8-14.3-7.2-29.1-11.8-32.3-1.7-1.2-2.6-1.2-6-.1-14.1 4.9-30.6 21.4-37.5 37.6-3.5 8.3-5.4 19.4-3.8 21.4 2.9 3.4 21.1 5.2 33.7 3.3l5-.7-6.2 3.8c-16.2 9.9-29.3 28.4-32.7 46.1l-1.4 7.2 2.7 2c4.4 3.1 18 4.2 31.6 2.6l6-.7-4 2.2c-15.2 8.2-29.6 26.6-33.9 43.5-2.5 9.6-2.2 12 1.7 14.1 2.7 1.5 5.8 1.8 19.5 1.8 8.9 0 15.6.2 15 .4-3.3 1-12.4 7.9-18.1 13.7-10.5 10.8-18.1 25.4-19.4 37.4-.6 5.8-.6 5.8 2.8 7.7 2.9 1.5 5.7 1.8 19.4 1.8h16l-3.8 2c-17.2 9.2-32.6 31.7-34.4 50.3l-.5 5.2 3.8 1.7c5.3 2.3 28.3 2.8 36.9.7 14.7-3.5 18.6-6.2 19.9-14 .2-1.6.5-3 .5-3.2.1-.1 1.4.4 2.9 1.2 5.8 3 23.3 3.8 35.2 1.6 3.3-.6 7-1.3 8.2-1.5 1.3-.2 7.5-.6 13.8-.9 6.3-.4 12.9-.8 14.5-1.1 1.7-.2 5.3-.7 8-1 5.1-.6 32-5 36.5-6 1.4-.4 3.6-.8 5-1.1 6.8-1.3 42.8-10.6 46.4-12 1-.4 1.6.6 2.1 3.8.3 2.4 1.3 8.6 2.1 13.8.9 5.2 1.8 10.8 2 12.5.3 1.6.9 5.5 1.4 8.5 1 6.1 2 12.2 2.5 16 .2 1.4 1.3 8.3 2.5 15.5 1.1 7.1 2.5 15.9 3 19.5.6 3.6 1.2 7.6 1.4 9 .3 1.4 1.6 9.9 3.1 19 1.4 9.1 2.8 18.1 3.1 20 2.1 13.8 9.1 57.3 9.8 61 .2 1.4.5 4 .5 5.9.2 8 1.6-.4 3.6-20.9.3-3 .7-6.9 1-8.5.3-1.7.7-6.1 1.1-9.8.3-3.8.7-7.6.9-8.5.1-1 .6-5.5 1-10.2.4-4.7.9-9.3 1-10.2.2-.9.7-4.8 1-8.5.4-3.7.8-7.9 1-9.3.5-3.5 1.3-11.4 2.1-19 .3-3.6.7-7.2.9-8 .2-.8.6-4.9 1-9 .3-4.1.8-8.6 1-10 .2-1.4.6-5.4 1-9 .3-3.6.8-8.1 1-10 .2-1.9.7-6 1-9 .3-3 .8-7.1 1-9 .2-1.9.7-6 1-9 .9-9.6 1.5-15.4 2-19 .2-1.9.7-6 1-9 1.3-13.2 1.1-12.7 6.3-13.5 19.8-2.8 64.8-17 91.2-28.8 34.4-15.4 72.3-38.7 95.2-58.4 27.5-23.8 43.6-41.5 64.4-70.5 3.8-5.3 14.1-22.4 17.9-29.8 1.6-3 3.8-6.9 5-8.5 1.1-1.7 1.9-3.2 1.8-3.5-.1-.3 1.4-3.9 3.4-8 8.3-17.8 16.4-40.7 18.9-53.3.2-1 .6-2.6.8-3.5.9-2.8 3.6-19 4.4-26.1.9-8.8.9-47.8-.1-56.6-.8-6.6-1.1-8.7-2.3-16-.3-1.7-.7-4.4-1-6-.4-2.3-3.2-15.4-5.9-27-4-17.8-17.2-53.9-28.8-79-9.8-21.1-32.3-63.2-39.8-74.3-1.6-2.4-2.9-4.6-2.9-4.9 0-.4-1.1-2.3-2.4-4.2-1.3-2-6.8-10.6-12.1-19.1-5.4-8.5-22.8-35.1-38.8-58.9-30.1-45.2-40-60.7-48.1-75.1-4.7-8.4-4.9-8.6-19.3-19-8.1-5.8-21.4-15.5-29.7-21.5-8.3-6.1-18.9-13.7-23.5-17l-8.3-6 .6-7.5c1.6-17.5 7-32.4 15.3-41.9 7.3-8.4 19.4-15 30.4-16.6 2.4-.4 4.7-.9 5.2-1.2.5-.3 11-.7 23.5-.9 26.4-.3 32.9-.9 39.7-3.5 13.7-5.1 18.6-13.1 23.8-38.6 3.2-15.6 3.3-16.2 1.5-18.5-1-1.3-1.8-2.7-1.8-3.1 0-.5-2.4-4.6-5.3-9-21-32.2-48.6-51.5-83-58.2C711.3 1 683.9-.6 682.9.4zM397.3 958.5c2.7 1.7 11.3 3.1 18.5 3 2.9-.1 5.1.2 5 .6-.2.3-3.4 4-7.3 8.1-3.8 4.1-7.7 8.8-8.5 10.4-.8 1.6-2.2 4-3.1 5.4-2 3.1-5.9 14.3-5.9 17 0 1.1-.5 2-1 2-.6 0-1-.6-.8-1.3.5-2.6-2.2-16.4-4.2-21.2-.5-1.1-1.2-3.1-1.6-4.5-.3-1.4-2-4.5-3.6-6.9-1.6-2.4-2.8-4.4-2.6-4.5.2-.1 2.2-1.1 4.6-2.1 4.4-1.9 7.1-5.4 7.3-9.7l.2-2.3.4 2.3c.2 1.2 1.4 2.9 2.6 3.7z"/><path d="M819.6 104.1c-1 6.4-6.3 18.9-10.1 24.1-4.7 6.3-12.2 12.2-19.2 14.8-8.8 3.3-19.1 4.6-38.5 4.8-28.6.3-35.7 1.2-45.3 5.7-12.3 5.9-19.6 18-22 36.5l-.5 4.5 45.5 33c25.1 18.1 46.4 33.6 47.3 34.3 2.1 1.6 59.5 43.2 114.6 83.2 22.4 16.2 41.4 30.1 42.4 30.8 2.1 1.6 40.3 29.3 45.5 33 4.2 3 7.9 5.7 21.7 15.9 5.2 3.8 13.8 10 19 13.8 5.2 3.7 13.1 9.4 17.5 12.7 12.8 9.4 45.9 33.3 47.4 34.2 1 .6 1.2.5.7-.3-.8-1.2-45.3-66-55.1-80.1-8.9-12.8-49.7-72.3-52.9-77-1.7-2.5-3.4-5-3.9-5.5-.9-1.1-11.6-16.6-26.2-38.1-5.5-8-10.6-15.2-11.2-16-.7-.7-1.3-1.5-1.3-1.7 0-.3-4.8-7.4-10.6-15.9-5.9-8.4-15-21.6-20.3-29.3-12.8-18.8-13.9-20.4-34.1-49.6-9.6-13.9-18.2-26.3-19-27.5-.8-1.2-3.8-5.5-6.5-9.6-2.8-4-8.6-12.5-13-18.8-4.3-6.3-8.6-12.5-9.5-13.7l-1.8-2.3-.6 4.1zM303.5 795.2c-7.6 2.7-19.2 12.3-26.1 21.3-6.2 8.3-10.9 19.4-12 28.5-.6 4.6-.4 4.9 2.3 6.3 3.8 1.9 9 2.8 17.1 2.8 18.6.1 32.5-3.9 35.8-10.2 1.6-3.3 2.3-14.9 1-20.4-.3-1.7-.8-4.1-1.1-5.4-.9-4.9-3.7-13.7-5.6-17.2-3.5-6.9-5.4-7.8-11.4-5.7zm0 62c-5.3 1.9-13.6 7.8-19.3 13.6-11 11.4-17.5 23.9-18.8 36.4-.4 4.4-.3 4.8 2.3 6.1 9 4.6 34.3 3.3 46.9-2.2 2.7-1.2 4.9-3.1 5.9-5.2 4-7.6.9-30-6-43.8-3.2-6.3-4.9-7-11-4.9zm-75.4 10.9c-7.5 3.8-18.4 14.1-23.6 22.2-6.2 9.9-10.3 25-7.4 27.3 8 6.2 42 3.2 49.1-4.3 7.1-7.5-1.4-48.3-10.1-48.3-1 0-4.6 1.4-8 3.1zm72.4 52.5c-18.1 9.3-33 29.8-35.1 48.4-.5 4.7-.4 4.9 2.8 6.7 2.6 1.4 5.9 1.8 15.9 1.9 19.1.3 33.2-3.4 36.3-9.5 5.9-11.4-3.7-50.2-12.4-50.1-1.4 0-4.7 1.2-7.5 2.6zm-68.1 8.9c-15.8 4.7-34.1 28-36 46-.6 5-.5 5.2 2.3 6.3 6.4 2.7 16.9 3.3 29.2 1.8 9.5-1.2 17.6-4.8 19.7-8.8 3.7-7.2-.6-33.3-7.2-43.2-2.1-3.3-3.2-3.5-8-2.1zM145 941.2c-15.7 8-32 31.5-31.6 45.7.1 3.8 2 5.4 8.1 6.6 3.4.6 18 .7 21 .1 1.1-.2 4-.7 6.5-1.1 7.3-1.2 13.9-4.4 15.6-7.7 1.5-2.9 2-13.5.9-18.8-.3-1.4-.7-3.7-1-5.1-2-11.1-7.4-22.2-11-22.7-1.1-.1-4.9 1.2-8.5 3zm157.8 40.3c-3.5 1.3-8.1 3.9-10.4 6-.7.5-2.6 2.1-4.4 3.5-8.3 6.6-18.2 21.7-21 32-2.2 8.2-2.3 12.8-.2 13.9 4.9 2.6 21.6 4.2 28.7 2.7 1.1-.2 4.4-.7 7.4-1.1 9.7-1.3 17.4-5.8 18.7-10.9 2.3-9.2-1.2-29.9-6.8-41-3.6-7-5.1-7.6-12-5.1zm-74.4 13.1c-16.8 8.9-30.3 27.7-32 44.8l-.5 5.2 4.3 1.4c7.2 2.3 28.2 2 35.6-.5.7-.3 1.3-.4 1.5-.3.8.4 8.8-4.5 10-6.2 4.4-6.3-.5-35.6-7.4-44.4-2.6-3.3-5.3-3.3-11.5 0zm-77.6 7.4c-16.4 4.6-35.3 28.2-37.5 47-.5 4.3-.4 4.7 2.3 5.9 1.6.7 4.3 1.6 5.9 1.9 4.2.7 19.3.7 23.5-.1 1.9-.4 4.9-.9 6.5-1.2 5.3-1 11.9-4.9 13.3-7.8 2-4.2 1.5-18.3-.9-26.2-3.1-10.3-4.3-13.3-6-16.2-2.3-3.7-3.5-4.2-7.1-3.3z"/></svg>