<?xml version="1.0" encoding="UTF-8" standalone="no"?>
<!DOCTYPE svg PUBLIC "-//W3C//DTD SVG 1.1//EN" "http://www.w3.org/Graphics/SVG/1.1/DTD/svg11.dtd">
<svg width="100%" height="100%" viewBox="0 0 500 320" version="1.1" xmlns="http://www.w3.org/2000/svg" xmlns:xlink="http://www.w3.org/1999/xlink" xml:space="preserve" xmlns:serif="http://www.serif.com/" style="fill-rule:evenodd;clip-rule:evenodd;stroke-linejoin:round;stroke-miterlimit:1.41421;">
    <g transform="matrix(1,0,0,1,-83.4332,-73.9232)">
        <path id="path2748" d="M195.601,391.112C199.887,373.586 199.929,373.29 198.556,370.402C197.799,368.809 196.194,366.729 194.989,365.779C192.138,363.531 192.225,362.166 195.381,359.66C199.201,356.626 205.393,355.245 213.377,355.645C221.709,356.063 223.245,355.026 217.427,352.908C214.23,351.745 211.629,351.587 206.189,352.228C202.297,352.686 196.328,352.989 192.925,352.9C184.647,352.685 182.344,350.35 180.384,340.188C179.495,335.583 178.147,332.005 176.962,331.107C175.887,330.292 170.616,328.176 165.25,326.406C159.883,324.636 155.002,322.777 154.402,322.275C152.918,321.033 149.179,321.118 149.179,322.394C149.179,322.961 149.951,323.683 150.895,323.998C151.838,324.314 152.347,324.942 152.026,325.395C151.705,325.848 152.442,326.495 153.665,326.833C157.575,327.914 164.397,335.322 163.693,337.721C161.593,344.866 161.602,345.396 163.878,348.756C165.159,350.647 165.905,352.458 165.537,352.779C165.168,353.1 161.87,353.362 158.207,353.362C152.759,353.362 151.668,353.635 152.208,354.862C152.571,355.687 152.297,356.362 151.598,356.362C150.899,356.362 150.327,356.812 150.327,357.362C150.327,357.912 151.576,358.362 153.102,358.362C154.628,358.362 158.373,359.34 161.424,360.535C164.475,361.73 169.777,362.967 173.205,363.285L179.439,363.862L183.805,370.862C186.207,374.712 188.179,379.073 188.189,380.553C188.199,382.033 188.723,383.522 189.355,383.862C189.986,384.202 190.503,385.354 190.503,386.421C190.503,387.489 191.019,388.362 191.651,388.362C192.282,388.362 192.798,389.487 192.798,390.862C192.798,393.974 194.856,394.158 195.601,391.112L195.601,391.112ZM394.823,363.025C394.823,362.825 392.24,361.262 389.083,359.553C382.612,356.048 382.028,354.867 386.307,353.931C387.936,353.575 391.186,352.178 393.528,350.828C396.531,349.097 400.652,348.047 407.497,347.271C420.766,345.767 421.49,345.447 415.599,343.691C411.551,342.484 409.616,342.41 405.843,343.314C398.884,344.981 383.607,345.046 377.181,343.436C369.452,341.5 367.979,338.349 368.295,324.434C368.559,312.801 368.093,311.359 360.709,300.908C358.006,297.083 355.787,293.033 355.778,291.908C355.768,290.783 355.259,289.187 354.647,288.362C353.853,287.292 353.53,288.421 353.517,292.303C353.501,297.408 353.388,297.624 351.695,295.803C349.983,293.961 349.923,294.028 350.519,297.112C350.983,299.518 350.72,300.362 349.505,300.362C346.662,300.362 346.135,306.897 348.39,314.187C351.616,324.614 351.809,333.267 348.996,341.336L346.596,348.22L340.2,348.916C336.682,349.299 331.392,349.341 328.443,349.01C323.542,348.46 323.273,348.535 325.309,349.885C326.536,350.698 326.892,351.362 326.102,351.362C325.313,351.362 324.987,351.812 325.377,352.362C325.767,352.912 327.736,353.362 329.753,353.362C331.769,353.362 337.033,354.296 341.45,355.438C348.97,357.382 364.64,358.28 367.179,356.914C367.733,356.615 371.486,357.716 375.519,359.361C381.58,361.832 394.823,364.345 394.823,363.025L394.823,363.025ZM232.546,351.305C222.568,343.36 222.444,342.789 230.048,339.756C235.121,337.733 238.184,337.221 245.03,337.252C249.763,337.273 253.635,336.947 253.635,336.527C253.635,334.4 245.069,333.21 234.648,333.891C220.35,334.825 213.46,333.948 213.46,331.195C213.46,330.071 214.803,327.761 216.443,326.062C220.2,322.173 219.64,317.684 214.674,311.878C212.785,309.669 209.211,305.369 206.731,302.322C204.252,299.275 201.364,296.161 200.315,295.402C198.562,294.135 198.473,294.457 199.218,299.348C199.995,304.455 199.927,304.651 197.561,304.112C194.701,303.46 194.44,304.528 196.696,307.647C199.69,311.785 199.835,313.906 197.299,316.443C194.195,319.548 194.857,324.94 199.013,330.412C200.646,332.561 201.981,334.731 201.981,335.234C201.981,336.553 199.046,337.347 191.692,338.016C186.609,338.479 185.198,338.983 185.077,340.379C184.948,341.878 185.618,342.072 189.394,341.631C192.027,341.323 196.21,341.777 199.573,342.735C202.713,343.63 206.246,344.362 207.423,344.362C208.601,344.362 211.603,345.658 214.095,347.241C220.584,351.365 229.386,355.057 234.596,355.839L239.089,356.514L232.546,351.305L232.546,351.305ZM444.446,349.362C444.808,348.537 445.763,345.612 446.569,342.862C447.375,340.112 449.466,335.056 451.218,331.626C456.108,322.046 456.34,319.491 452.891,313.14C451.257,310.131 449.921,307.263 449.922,306.766C449.924,305.227 463.238,302.362 470.388,302.362C474.125,302.362 478.851,302.071 480.89,301.716L484.598,301.07L480.849,299.697C478.004,298.655 473.88,298.483 463.734,298.982C454.215,299.451 449.623,299.294 447.785,298.437C446.313,297.751 443.571,294.143 441.407,290.048C436.956,281.623 434.28,279.248 426.079,276.444C422.752,275.306 417.474,273.248 414.352,271.869C407.548,268.866 405.173,268.619 407.848,271.193C408.894,272.2 409.473,273.266 409.134,273.561C408.796,273.856 410.814,276.069 413.619,278.48C417.242,281.593 418.965,284.02 419.57,286.862C420.039,289.062 421.175,291.87 422.095,293.102C424.022,295.683 424.457,295.444 413.429,297.858C409.186,298.786 404.572,299.17 402.238,298.789C399.042,298.266 398.266,298.455 398.266,299.751C398.266,300.637 398.137,301.667 397.979,302.039C397.821,302.411 400.275,302.847 403.432,303.006C406.588,303.166 413.96,304.302 419.813,305.531L430.455,307.766L432.117,312.643C433.032,315.325 434.124,319.117 434.544,321.07C435.044,323.392 436.078,324.795 437.53,325.126C439.605,325.599 439.699,326.272 438.959,335.364C438.435,341.809 438.575,345.316 439.373,345.746C440.036,346.103 440.998,345.825 441.511,345.128C442.125,344.295 442.674,345.059 443.116,347.362C443.521,349.474 444.049,350.267 444.446,349.362L444.446,349.362ZM127.944,349.629C129.207,349.354 131.702,348.224 133.49,347.119C136.192,345.449 138.371,345.138 146.404,345.276C151.718,345.367 156.067,345.205 156.067,344.915C156.067,344.626 154.13,343.664 151.762,342.778C148.874,341.698 144.53,341.217 138.562,341.317C133.669,341.399 129.666,341.212 129.666,340.901C129.666,340.59 130.303,339.446 131.082,338.359C132.319,336.634 132.028,336.008 128.787,333.429C126.745,331.804 125.074,330.027 125.074,329.479C125.074,328.4 105.139,317.34 101.837,316.588C98.596,315.85 99.489,318.16 104.413,323.247C109.622,328.629 109.738,328.998 107.052,331.584C105.441,333.134 105.324,333.977 106.379,336.412C107.884,339.886 107.554,339.959 99.059,338.039C94.225,336.947 92.846,336.945 91.145,338.029C90.011,338.751 89.305,339.493 89.574,339.679C89.844,339.864 94.455,341.636 99.821,343.617C105.187,345.597 111.128,347.922 113.022,348.784C116.335,350.291 123.144,350.677 127.944,349.629L127.944,349.629ZM293.738,336.327C296.539,335.818 303.434,334.014 309.06,332.317C314.686,330.62 320.659,329.309 322.333,329.403C329.434,329.802 336.282,329.291 336.282,328.362C336.282,327.812 335.105,327.362 333.667,327.362C332.229,327.362 329.885,326.649 328.457,325.778C326.372,324.506 325.157,324.408 322.291,325.278C318.413,326.456 304.971,326.708 298.185,325.73C291.565,324.777 291.32,320.396 297.72,317.412C302.499,315.184 302.742,312.378 298.427,309.239C296.379,307.75 295.025,306.077 295.419,305.521C296.715,303.695 293.649,299.651 289.388,297.567C282.279,294.089 252.227,285.362 247.358,285.362C244.638,285.362 245.279,286.914 248.535,288.206C250.148,288.847 251.149,289.822 250.758,290.374C250.366,290.925 250.851,291.645 251.834,291.974C252.817,292.303 253.336,292.975 252.987,293.467C252.638,293.959 252.881,294.362 253.527,294.362C255.513,294.362 262.975,300.593 264.113,303.2C264.978,305.182 264.596,306.405 262.151,309.479C259.869,312.349 259.233,314.181 259.592,316.86C260.215,321.511 258.213,321.965 245.487,320.058C235.488,318.56 233.971,318.631 236.117,320.501C236.815,321.109 237.121,322.207 236.797,322.942C236.422,323.794 237.391,324.511 239.469,324.919C241.263,325.271 246.863,326.921 251.913,328.585C277.245,336.931 283.761,338.137 293.738,336.327L293.738,336.327ZM556.672,271.935C556.672,271.699 553.451,269.802 549.514,267.719C541.268,263.355 533.714,257.696 533.714,255.882C533.714,255.195 536.045,253.859 538.893,252.911C543.228,251.468 546.357,251.292 558.12,251.827C565.846,252.178 573.33,252.676 574.75,252.933C579.369,253.769 577.475,251.682 571.881,249.772C567.812,248.382 564.188,247.992 557.596,248.236C548.082,248.587 538.732,246.519 529.697,242.066C522.032,238.288 521.06,232.388 524.097,208.097C524.698,203.294 524.181,200.456 520.996,191.097C518.376,183.399 517.157,177.738 517.122,173.114C517.065,165.685 515.701,164.848 513.545,170.921C512.775,173.089 512.091,174.3 512.025,173.612C511.811,171.385 509.61,172.291 509.593,174.612C509.585,175.85 509.25,177.93 508.849,179.235L508.12,181.609L506.609,179.235C505.146,176.936 505.098,176.981 505.058,180.671C505.034,182.948 504.556,184.232 503.87,183.862C503.177,183.489 502.722,184.852 502.722,187.303C502.722,189.536 502.178,191.362 501.514,191.362C500.703,191.362 500.563,194.113 501.086,199.735C501.794,207.338 501.651,208.295 499.527,210.146C496.329,212.931 495.095,223.521 496.832,233.257C497.56,237.336 497.878,240.915 497.54,241.21C497.201,241.505 494.742,241.857 492.075,241.991C483.583,242.419 471.84,243.932 470.942,244.715C470.465,245.131 470.834,245.89 471.763,246.401C473.044,247.107 472.69,247.335 470.295,247.347C468.559,247.355 467.138,247.763 467.138,248.254C467.138,250.845 489.039,255.362 501.606,255.362C508.799,255.362 510.364,255.719 514.775,258.362C517.527,260.012 520.123,261.362 520.544,261.362C520.964,261.362 522.678,262.195 524.354,263.212C528.041,265.451 537.691,268.362 541.426,268.362C542.917,268.362 546.162,269.262 548.637,270.362C552.78,272.204 556.672,272.965 556.672,271.935L556.672,271.935ZM438.596,265.862C438.997,265.312 439.705,262.837 440.17,260.362C440.635,257.887 442.18,253.837 443.603,251.362C446.786,245.828 448.772,237.985 448.772,230.953C448.772,227.026 447.874,224.109 445.325,219.753C443.429,216.513 441.58,212.501 441.216,210.838C440.584,207.951 440.821,207.731 446.471,205.961C451.56,204.367 454.549,204.19 467.841,204.7C477.655,205.076 483.044,204.94 482.61,204.327C482.233,203.796 481.295,203.362 480.526,203.362C479.757,203.362 477.85,202.575 476.29,201.612C473.976,200.186 470.905,199.856 459.677,199.828C447.826,199.799 445.073,199.472 439.961,197.487C434.862,195.506 433.626,194.448 431.247,190.021C429.722,187.184 427.842,182.612 427.07,179.862C425.331,173.674 422.956,170.362 420.254,170.362C416.72,170.362 407.166,167.153 400.369,163.684C392.986,159.915 392.33,159.751 393.282,161.913C393.838,163.176 393.37,163.334 390.761,162.763C388.085,162.178 387.677,162.334 388.285,163.712C388.684,164.62 388.511,165.362 387.899,165.362C385.543,165.362 386.96,167.441 390.791,169.603C392.993,170.846 394.801,172.2 394.808,172.612C394.831,173.813 374.906,173.477 368.387,172.166C365.115,171.508 362.202,170.434 361.913,169.78C361.625,169.126 362.455,166.858 363.758,164.741C368.722,156.673 366.822,153.337 351.763,143.676C338.504,135.17 336.701,134.267 337.756,136.661C338.137,137.526 337.832,138.421 337.078,138.651C336.113,138.946 336.278,139.631 337.634,140.966C338.694,142.009 339.469,143.115 339.356,143.423C339.243,143.732 341.088,145.466 343.456,147.277C346.831,149.859 347.76,151.297 347.76,153.94C347.76,156.67 347.109,157.604 344.333,158.855C339.479,161.042 338.88,164.351 342.358,169.772C343.934,172.229 344.933,174.491 344.579,174.8C344.224,175.109 340.146,175.362 335.516,175.362C328.799,175.362 327.099,175.665 327.099,176.862C327.099,177.883 325.925,178.362 323.425,178.362C317.962,178.362 320.683,179.699 332.264,182.706C349.106,187.078 370.532,186.047 379.9,180.413C384.313,177.76 386.809,177.135 393.947,176.896C401.287,176.651 401.747,176.925 406.768,184.528C410.542,190.241 412.088,194.677 410.893,196.361C409.922,197.73 402.682,197.879 390.518,196.778C385.557,196.329 383.344,196.474 383.344,197.246C383.344,197.86 383.99,198.376 384.779,198.393C385.575,198.409 385.32,198.877 384.205,199.442C380.757,201.192 381.963,202.054 388.796,202.724C392.427,203.08 399.234,204.489 403.924,205.855C408.614,207.221 414.038,208.605 415.977,208.93C419.159,209.463 419.874,210.339 423.334,217.938C426.47,224.826 427.021,227.105 426.365,230.485C425.799,233.404 425.937,234.414 426.837,233.93C427.692,233.47 428.111,234.614 428.111,237.41C428.111,240.638 428.485,241.451 429.775,241.02C431.072,240.586 431.514,241.607 431.783,245.663C432.027,249.339 432.574,250.782 433.649,250.587C434.837,250.372 435.012,251.576 434.446,256.087C433.79,261.317 433.883,261.687 435.436,260.007C437.027,258.285 437.176,258.464 437.509,262.507C437.706,264.902 438.195,266.412 438.596,265.862L438.596,265.862ZM271.306,161.138C271.761,158.54 273.911,152.468 276.084,147.645C278.258,142.822 280.036,137.619 280.036,136.084C280.036,133.723 280.88,132.955 285.488,131.122C290.018,129.32 293.447,128.906 305.747,128.675C313.891,128.522 320.807,128.177 321.116,127.908C321.425,127.638 320.365,126.983 318.76,126.452C317.156,125.92 315.482,124.977 315.041,124.355C314.498,123.59 311.928,123.44 307.08,123.893C298.58,124.686 287.881,122.627 280.247,118.73C273.63,115.352 271.64,111.265 272.686,103.209L273.468,97.192L266.017,90.527C261.919,86.861 256.853,81.725 254.758,79.112C250.462,73.753 249.633,73.287 250.645,76.801C251.032,78.142 250.855,79.505 250.254,79.829C249.621,80.17 250.064,81.777 251.305,83.64C256.014,90.712 257.52,101.547 254.343,105.499C251.845,108.606 252.004,113.617 254.75,118.306C257.458,122.931 256.816,123.362 247.228,123.362C242.465,123.362 241.009,123.713 241.009,124.862C241.009,125.687 240.234,126.362 239.287,126.362C238.34,126.362 237.565,126.812 237.565,127.362C237.565,127.912 239.244,128.361 241.296,128.359C243.347,128.357 248.681,129.299 253.147,130.453L261.268,132.55L263.231,137.706C267.364,148.561 268.715,153.826 268.126,156.791C267.791,158.48 268.184,161.212 268.998,162.862L270.48,165.862L271.306,161.138L271.306,161.138ZM192.224,141.286C197.161,136.147 200.397,134.834 199.057,138.513C198.433,140.224 198.653,140.538 200.127,140.045C201.363,139.632 201.981,139.964 201.981,141.043C201.981,141.932 204.693,139.618 208.008,135.898C216.394,126.488 218.038,124.173 218.045,121.767C218.06,116.691 224.796,115.176 240.148,116.796C243.778,117.179 246.748,117.247 246.748,116.948C246.748,116.648 244.737,115.509 242.28,114.417C238.898,112.914 236.455,112.564 232.236,112.979C227.624,113.433 225.341,113.001 219.026,110.48C209.818,106.804 199.215,105.197 185.999,105.476C180.584,105.59 175.067,105.376 173.738,105.001C172.409,104.626 170.084,104.732 168.573,105.235C166.089,106.062 166.877,106.579 176.728,110.576C182.726,113.01 189.312,115.587 191.363,116.303C193.415,117.019 195.094,117.719 195.094,117.859C195.094,117.999 193.803,120.657 192.224,123.766C190.646,126.875 189.355,130.026 189.355,130.768C189.355,131.51 188.556,132.694 187.581,133.4C186.605,134.105 186.097,135.343 186.453,136.149C186.808,136.956 186.477,138.268 185.718,139.065C184.634,140.203 184.665,140.691 185.865,141.337C186.706,141.79 187.083,142.866 186.703,143.729C185.257,147.011 187.808,145.882 192.224,141.286L192.224,141.286Z" style="fill:rgb(182,182,182);fill-rule:nonzero;"/>
    </g>
</svg>
