<svg viewBox="0 0 500 320" xmlns="http://www.w3.org/2000/svg" fill-rule="evenodd" clip-rule="evenodd" stroke-linejoin="round" stroke-miterlimit="1.414"><path d="M112.168 317.189c4.286-17.526 4.328-17.822 2.955-20.71-.757-1.593-2.362-3.673-3.567-4.623-2.851-2.248-2.764-3.613.392-6.12 3.82-3.033 10.012-4.414 17.996-4.014 8.332.418 9.868-.62 4.05-2.737-3.197-1.163-5.798-1.321-11.238-.68-3.892.458-9.861.76-13.264.672-8.278-.215-10.581-2.55-12.541-12.712-.89-4.605-2.237-8.183-3.422-9.081-1.075-.815-6.346-2.931-11.712-4.701-5.367-1.77-10.248-3.63-10.848-4.131-1.484-1.242-5.223-1.157-5.223.119 0 .567.772 1.289 1.716 1.604.943.316 1.452.944 1.13 1.397-.32.453.417 1.1 1.64 1.438 3.91 1.08 10.732 8.489 10.028 10.888-2.1 7.145-2.091 7.675.185 11.035 1.28 1.89 2.027 3.702 1.659 4.023-.37.32-3.667.583-7.33.583-5.448 0-6.54.273-6 1.5.364.825.09 1.5-.61 1.5-.698 0-1.27.45-1.27 1s1.249 1 2.775 1c1.526 0 5.27.978 8.322 2.173 3.05 1.195 8.353 2.432 11.78 2.75l6.235.577 4.366 7c2.402 3.85 4.374 8.21 4.384 9.69.01 1.48.534 2.97 1.166 3.31.63.34 1.148 1.492 1.148 2.559 0 1.068.516 1.94 1.148 1.94.63 0 1.147 1.126 1.147 2.5 0 3.113 2.058 3.297 2.803.25zm199.222-28.087c0-.2-2.583-1.763-5.74-3.472-6.471-3.505-7.055-4.686-2.776-5.622 1.629-.356 4.879-1.753 7.22-3.103 3.004-1.731 7.125-2.781 13.97-3.557 13.269-1.504 13.993-1.824 8.102-3.58-4.048-1.207-5.983-1.281-9.756-.377-6.96 1.667-22.236 1.732-28.662.122-7.73-1.936-9.202-5.087-8.886-19.002.264-11.633-.202-13.075-7.586-23.526-2.703-3.825-4.922-7.875-4.931-9-.01-1.125-.52-2.721-1.131-3.546-.794-1.07-1.117.059-1.13 3.94-.016 5.106-.13 5.322-1.822 3.5-1.712-1.841-1.772-1.774-1.176 1.31.464 2.406.2 3.25-1.014 3.25-2.843 0-3.37 6.535-1.115 13.825 3.226 10.427 3.419 19.08.606 27.149l-2.4 6.884-6.396.696c-3.518.383-8.808.425-11.757.094-4.901-.55-5.17-.475-3.134.875 1.227.813 1.583 1.477.793 1.477-.79 0-1.115.45-.725 1s2.359 1 4.376 1c2.016 0 7.28.934 11.697 2.076 7.52 1.944 23.19 2.842 25.729 1.476.554-.3 4.307.802 8.34 2.447 6.06 2.47 19.304 4.984 19.304 3.664zm-162.277-11.72c-9.978-7.945-10.102-8.516-2.498-11.55 5.073-2.022 8.136-2.534 14.982-2.503 4.733.02 8.605-.305 8.605-.725 0-2.127-8.566-3.317-18.987-2.636-14.298.934-21.188.057-21.188-2.696 0-1.124 1.343-3.434 2.983-5.133 3.757-3.89 3.197-8.378-1.77-14.184a648.49 648.49 0 0 1-7.942-9.556c-2.48-3.047-5.367-6.161-6.416-6.92-1.753-1.267-1.842-.945-1.097 3.946.777 5.107.709 5.303-1.657 4.764-2.86-.652-3.121.416-.865 3.535 2.994 4.138 3.139 6.259.603 8.796-3.104 3.105-2.442 8.497 1.714 13.969 1.633 2.149 2.968 4.319 2.968 4.822 0 1.319-2.935 2.113-10.29 2.782-5.082.463-6.493.967-6.614 2.363-.13 1.499.54 1.693 4.317 1.252 2.633-.308 6.816.146 10.179 1.104 3.14.895 6.673 1.627 7.85 1.627 1.178 0 4.18 1.296 6.672 2.879 6.489 4.124 15.29 7.816 20.5 8.598l4.494.675-6.543-5.21zm211.9-1.943c.362-.825 1.317-3.75 2.123-6.5.806-2.75 2.897-7.806 4.649-11.236 4.89-9.58 5.122-12.135 1.673-18.486-1.634-3.01-2.97-5.877-2.97-6.374.003-1.54 13.317-4.404 20.467-4.404 3.737 0 8.463-.291 10.502-.646l3.708-.646-3.75-1.373c-2.844-1.042-6.968-1.214-17.114-.715-9.52.469-14.111.312-15.95-.545-1.471-.686-4.213-4.294-6.377-8.39-4.451-8.424-7.127-10.8-15.328-13.603-3.327-1.138-8.605-3.196-11.727-4.575-6.804-3.003-9.18-3.25-6.504-.676 1.046 1.007 1.625 2.073 1.286 2.368-.338.295 1.68 2.508 4.485 4.919 3.623 3.113 5.346 5.54 5.95 8.382.47 2.2 1.606 5.008 2.526 6.24 1.927 2.58 2.362 2.342-8.666 4.756-4.243.928-8.857 1.312-11.191.93-3.196-.522-3.972-.333-3.972.963 0 .886-.13 1.916-.287 2.288-.158.372 2.296.808 5.453.967 3.156.16 10.528 1.296 16.38 2.525l10.643 2.235 1.662 4.877c.915 2.682 2.007 6.474 2.427 8.427.5 2.322 1.534 3.725 2.986 4.056 2.075.473 2.169 1.146 1.429 10.238-.524 6.445-.384 9.952.414 10.382.663.357 1.625.079 2.138-.618.614-.833 1.163-.07 1.605 2.234.405 2.112.933 2.905 1.33 2zm-316.502.267c1.263-.275 3.758-1.405 5.546-2.51 2.702-1.67 4.88-1.981 12.914-1.843 5.314.09 9.663-.071 9.663-.361s-1.937-1.251-4.305-2.137c-2.888-1.08-7.232-1.561-13.2-1.461-4.893.082-8.896-.105-8.896-.416s.637-1.455 1.416-2.542c1.237-1.725.946-2.351-2.295-4.93-2.042-1.625-3.713-3.402-3.713-3.95 0-1.08-19.935-12.14-23.237-12.891-3.241-.738-2.348 1.572 2.576 6.659 5.209 5.382 5.325 5.75 2.639 8.337-1.611 1.55-1.728 2.393-.673 4.828 1.505 3.474 1.175 3.547-7.32 1.627-4.834-1.092-6.213-1.094-7.914-.01-1.134.722-1.84 1.464-1.571 1.65.27.185 4.88 1.957 10.247 3.938 5.366 1.98 11.307 4.305 13.2 5.167 3.314 1.507 10.123 1.893 14.923.845zm165.794-13.302c2.8-.51 9.696-2.313 15.322-4.01 5.626-1.697 11.599-3.008 13.273-2.914 7.1.399 13.949-.112 13.949-1.041 0-.55-1.177-1-2.615-1-1.438 0-3.782-.713-5.21-1.584-2.085-1.272-3.3-1.37-6.166-.5-3.878 1.178-17.32 1.43-24.106.452-6.62-.953-6.865-5.334-.465-8.318 4.779-2.228 5.022-5.034.707-8.173-2.048-1.49-3.402-3.162-3.008-3.718 1.296-1.826-1.77-5.87-6.031-7.954-7.11-3.478-37.161-12.205-42.03-12.205-2.72 0-2.08 1.552 1.177 2.844 1.613.64 2.614 1.616 2.223 2.168-.392.55.093 1.27 1.076 1.6.983.329 1.502 1 1.153 1.493-.35.492-.106.895.54.895 1.986 0 9.448 6.23 10.586 8.838.865 1.982.483 3.205-1.962 6.279-2.282 2.87-2.918 4.702-2.56 7.38.624 4.652-1.378 5.106-14.104 3.199-10-1.498-11.516-1.427-9.37.443.698.608 1.004 1.706.68 2.44-.375.853.594 1.57 2.672 1.978 1.794.352 7.394 2.002 12.444 3.666 25.332 8.346 31.848 9.552 41.825 7.742zm262.934-64.392c0-.236-3.221-2.133-7.158-4.216-8.246-4.364-15.8-10.023-15.8-11.837 0-.687 2.33-2.023 5.179-2.971 4.335-1.443 7.464-1.62 19.227-1.084 7.726.35 15.21.849 16.63 1.106 4.619.836 2.725-1.251-2.87-3.161-4.068-1.39-7.692-1.78-14.284-1.536-9.514.35-18.864-1.717-27.9-6.17-7.664-3.778-8.636-9.678-5.6-33.97.602-4.802.085-7.64-3.1-17-2.62-7.697-3.84-13.358-3.874-17.982-.057-7.43-1.421-8.266-3.577-2.193-.77 2.168-1.454 3.379-1.52 2.69-.214-2.226-2.415-1.32-2.432 1-.008 1.239-.343 3.319-.744 4.624l-.73 2.374-1.51-2.374c-1.463-2.3-1.511-2.254-1.551 1.436-.024 2.277-.502 3.56-1.188 3.19-.693-.372-1.148.99-1.148 3.442 0 2.233-.544 4.059-1.208 4.059-.811 0-.951 2.75-.428 8.373.708 7.603.565 8.56-1.56 10.41-3.197 2.786-4.431 13.376-2.694 23.112.728 4.079 1.046 7.658.708 7.953-.34.295-2.798.647-5.465.78-8.492.429-20.235 1.942-21.133 2.725-.477.416-.108 1.175.82 1.686 1.282.706.928.934-1.467.946-1.736.008-3.157.416-3.157.907 0 2.59 21.9 7.108 34.468 7.108 7.193 0 8.758.357 13.169 3 2.752 1.65 5.348 3 5.769 3 .42 0 2.134.833 3.81 1.85 3.687 2.239 13.337 5.15 17.072 5.15 1.49 0 4.736.9 7.21 2 4.144 1.842 8.036 2.603 8.036 1.573zm-118.076-6.073c.4-.55 1.109-3.025 1.574-5.5.465-2.475 2.01-6.525 3.433-9 3.183-5.534 5.169-13.377 5.169-20.41 0-3.926-.898-6.843-3.447-11.2-1.896-3.24-3.745-7.251-4.11-8.914-.631-2.887-.394-3.107 5.256-4.877 5.089-1.594 8.078-1.771 21.37-1.261 9.814.376 15.203.24 14.769-.373-.377-.531-1.315-.965-2.084-.965-.77 0-2.676-.787-4.236-1.75-2.314-1.426-5.385-1.756-16.613-1.784-11.851-.03-14.604-.356-19.716-2.341-5.1-1.981-6.335-3.04-8.714-7.466-1.525-2.837-3.405-7.41-4.177-10.16-1.74-6.187-4.114-9.5-6.816-9.5-3.534 0-13.088-3.208-19.885-6.677-7.383-3.77-8.04-3.933-7.087-1.771.556 1.263.088 1.42-2.521.85-2.676-.585-3.084-.43-2.476.949.399.908.226 1.65-.386 1.65-2.356 0-.94 2.079 2.892 4.24 2.202 1.244 4.01 2.598 4.017 3.01.023 1.2-19.902.865-26.421-.446-3.272-.658-6.185-1.732-6.474-2.386-.288-.654.542-2.922 1.845-5.04 4.964-8.067 3.064-11.403-11.995-21.064-13.26-8.506-15.062-9.41-14.007-7.015.38.865.076 1.76-.678 1.99-.965.295-.8.98.556 2.315 1.06 1.043 1.835 2.149 1.722 2.457-.113.309 1.732 2.043 4.1 3.854 3.375 2.582 4.304 4.02 4.304 6.663 0 2.73-.651 3.664-3.427 4.915-4.854 2.187-5.453 5.496-1.975 10.917 1.576 2.457 2.575 4.719 2.22 5.028-.354.309-4.432.562-9.062.562-6.717 0-8.417.303-8.417 1.5 0 1.02-1.174 1.5-3.674 1.5-5.463 0-2.742 1.337 8.839 4.344 16.842 4.372 38.268 3.34 47.636-2.293 4.413-2.653 6.909-3.278 14.047-3.517 7.34-.245 7.8.029 12.82 7.632 3.775 5.713 5.32 10.149 4.126 11.833-.971 1.369-8.211 1.518-20.375.417-4.961-.45-7.174-.304-7.174.468 0 .614.646 1.13 1.435 1.147.796.016.54.484-.574 1.049-3.448 1.75-2.242 2.612 4.59 3.282 3.632.356 10.439 1.765 15.129 3.13 4.69 1.367 10.114 2.75 12.053 3.076 3.182.533 3.897 1.409 7.357 9.008 3.136 6.888 3.687 9.167 3.03 12.547-.565 2.919-.427 3.929.473 3.445.855-.46 1.274.684 1.274 3.48 0 3.228.374 4.04 1.664 3.61 1.297-.434 1.739.587 2.008 4.643.244 3.676.79 5.119 1.866 4.924 1.188-.215 1.363.989.797 5.5-.656 5.23-.563 5.6.99 3.92 1.59-1.722 1.74-1.543 2.073 2.5.197 2.395.686 3.905 1.087 3.355zM187.873 87.215c.455-2.598 2.605-8.67 4.778-13.493 2.174-4.823 3.952-10.026 3.952-11.561 0-2.361.844-3.13 5.452-4.962 4.53-1.802 7.959-2.216 20.259-2.447 8.144-.153 15.06-.498 15.369-.767.309-.27-.751-.925-2.356-1.456-1.604-.532-3.278-1.475-3.72-2.097-.542-.765-3.112-.915-7.96-.462-8.5.793-19.2-1.266-26.833-5.163-6.617-3.378-8.607-7.465-7.561-15.521l.782-6.017-7.451-6.665c-4.098-3.666-9.164-8.802-11.26-11.415-4.295-5.36-5.124-5.825-4.112-2.311.387 1.34.21 2.704-.391 3.028-.633.34-.19 1.948 1.05 3.81 4.71 7.073 6.216 17.908 3.039 21.86-2.498 3.107-2.34 8.118.407 12.807 2.708 4.625 2.066 5.056-7.522 5.056-4.763 0-6.22.35-6.22 1.5 0 .825-.774 1.5-1.721 1.5-.947 0-1.722.45-1.722 1s1.679.999 3.73.997c2.052-.002 7.386.94 11.852 2.094l8.12 2.097 1.964 5.156c4.133 10.855 5.484 16.12 4.895 19.085-.335 1.689.058 4.42.872 6.07l1.482 3 .826-4.723zM108.79 67.363c4.937-5.14 8.173-6.452 6.833-2.773-.624 1.71-.404 2.025 1.07 1.532 1.236-.413 1.854-.081 1.854.998 0 .889 2.712-1.425 6.027-5.145 8.386-9.41 10.03-11.725 10.037-14.131.015-5.076 6.75-6.591 22.103-4.971 3.63.383 6.6.45 6.6.152 0-.3-2.011-1.44-4.468-2.531-3.382-1.503-5.825-1.853-10.044-1.438-4.612.454-6.895.022-13.21-2.5-9.208-3.675-19.811-5.282-33.027-5.003-5.415.114-10.932-.1-12.261-.475-1.33-.375-3.654-.27-5.165.234-2.484.827-1.696 1.344 8.155 5.34 5.998 2.435 12.584 5.012 14.635 5.728 2.052.716 3.73 1.416 3.73 1.556 0 .14-1.29 2.798-2.87 5.907-1.577 3.109-2.868 6.26-2.868 7.002s-.8 1.926-1.774 2.632c-.976.705-1.484 1.943-1.128 2.749.355.807.024 2.119-.735 2.916-1.084 1.138-1.053 1.626.147 2.272.84.453 1.218 1.529.838 2.392-1.446 3.282 1.105 2.153 5.52-2.443z" fill="#b6b6b6" fill-rule="nonzero"/></svg>