<?xml version="1.0" encoding="UTF-8" standalone="no"?>
<!DOCTYPE svg PUBLIC "-//W3C//DTD SVG 1.1//EN" "http://www.w3.org/Graphics/SVG/1.1/DTD/svg11.dtd">
<svg width="100%" height="100%" viewBox="0 0 3236 500" version="1.1" xmlns="http://www.w3.org/2000/svg" xmlns:xlink="http://www.w3.org/1999/xlink" xml:space="preserve" xmlns:serif="http://www.serif.com/" style="fill-rule:evenodd;clip-rule:evenodd;stroke-linejoin:round;stroke-miterlimit:1.41421;">
    <g transform="matrix(1,0,0,1,-257,-167)">
        <g transform="matrix(0.948562,0,0,0.948562,96.4473,21.7671)">
            <path d="M593.733,258.509L274.642,258.509L274.642,574.814L593.733,574.814L593.733,680.222L239.504,680.222C192.62,680.222 169.259,656.774 169.259,609.946L169.259,223.362C169.259,176.534 192.62,153.111 239.504,153.111L593.733,153.111L593.733,258.509Z" style="fill:rgb(43,43,43);fill-rule:nonzero;"/>
            <path d="M769.402,399.083L769.402,574.814L980.246,574.814L980.246,399.083L769.402,399.083ZM1085.68,609.946C1085.68,656.774 1062.23,680.222 1015.44,680.222L734.254,680.222C687.37,680.222 663.956,656.774 663.956,609.946L663.956,363.936C663.956,317.064 687.37,293.657 734.254,293.657L1015.44,293.657C1062.23,293.657 1085.68,317.064 1085.68,363.936L1085.68,609.946Z" style="fill:rgb(43,43,43);fill-rule:nonzero;"/>
            <path d="M1577.64,609.946C1577.64,656.774 1554.28,680.222 1507.41,680.222L1226.23,680.222C1179.44,680.222 1156,656.774 1156,609.946L1156,363.936C1156,317.064 1179.44,293.657 1226.23,293.657L1437.09,293.657L1414.13,399.083L1261.43,399.083L1261.43,574.814L1472.27,574.814L1472.27,153.111L1577.64,153.111L1577.64,609.946Z" style="fill:rgb(43,43,43);fill-rule:nonzero;"/>
            <path d="M1999.37,293.657C2046.26,293.657 2069.68,317.064 2069.68,363.936L2069.68,469.344C2069.68,516.228 2046.26,539.648 1999.37,539.648L1788.59,539.648L1788.59,434.187L1964.23,434.187L1964.23,399.083L1753.39,399.083L1753.39,574.814L1999.05,574.814L1976.76,680.222L1718.27,680.222C1671.4,680.222 1647.95,656.774 1647.95,609.946L1647.95,363.936C1647.95,317.064 1671.4,293.657 1718.27,293.657L1999.37,293.657Z" style="fill:rgb(43,43,43);fill-rule:nonzero;"/>
        </g>
        <g transform="matrix(0.948562,0,0,0.948562,96.4473,21.7671)">
            <path d="M2140.27,223.362C2140.27,176.534 2163.73,153.111 2210.58,153.111L2491.67,153.111C2538.55,153.111 2561.97,176.534 2561.97,223.362L2561.97,469.344C2561.97,516.228 2538.55,539.648 2491.67,539.648L2280.83,539.648L2280.83,434.187L2456.57,434.187L2456.57,258.509L2245.7,258.509L2245.7,680.222L2140.27,680.222L2140.27,223.362Z" style="fill:rgb(72,172,240);fill-rule:nonzero;"/>
            <path d="M2632.24,680.222L2632.24,293.657L2737.63,293.657L2737.63,680.222L2632.24,680.222ZM2749.82,153.111L2726.88,258.509L2632.24,258.509L2632.24,153.111" style="fill:rgb(72,172,240);fill-rule:nonzero;"/>
            <path d="M3159.37,293.657C3206.26,293.657 3229.72,317.064 3229.72,363.936L3229.72,469.344C3229.72,516.228 3206.26,539.648 3159.37,539.648L2948.6,539.648L2948.6,434.187L3124.26,434.187L3124.26,399.083L2913.39,399.083L2913.39,574.814L3159.01,574.814L3136.8,680.222L2878.29,680.222C2831.42,680.222 2807.97,656.774 2807.97,609.946L2807.97,363.936C2807.97,317.064 2831.42,293.657 2878.29,293.657L3159.37,293.657Z" style="fill:rgb(72,172,240);fill-rule:nonzero;"/>
            <path d="M3300,680.222L3300,363.936C3300,317.064 3323.35,293.657 3370.24,293.657L3580.74,293.657L3557.79,399.083L3405.42,399.083L3405.42,680.222L3300,680.222Z" style="fill:rgb(72,172,240);fill-rule:nonzero;"/>
        </g>
    </g>
</svg>
