<?xml version="1.0" standalone="no"?>
<!DOCTYPE svg PUBLIC "-//W3C//DTD SVG 20010904//EN"
 "http://www.w3.org/TR/2001/REC-SVG-20010904/DTD/svg10.dtd">
<svg version="1.0" xmlns="http://www.w3.org/2000/svg"
 width="1200.000000pt" height="1200.000000pt" viewBox="0 0 1200.000000 1200.000000"
 preserveAspectRatio="xMidYMid meet">
<metadata>
Created by potrace 1.11, written by Peter Selinger 2001-2013
</metadata>
<g transform="translate(0.000000,1200.000000) scale(0.100000,-0.100000)"
fill="#000000" stroke="none">
<path d="M6829 11996 c-2 -2 -26 -7 -54 -11 -122 -16 -306 -98 -421 -189 -150
-117 -269 -265 -351 -436 -25 -52 -49 -102 -53 -110 -6 -13 -38 -115 -45 -145
-1 -5 -5 -21 -8 -35 -7 -26 -13 -66 -23 -140 -13 -88 -5 -333 10 -358 2 -4 7
-24 10 -46 10 -61 54 -184 95 -266 42 -83 61 -114 241 -395 69 -107 130 -203
135 -212 6 -10 32 -51 58 -92 87 -133 680 -1100 869 -1416 446 -748 596 -1034
624 -1188 2 -17 7 -34 10 -39 6 -10 6 -172 0 -213 -31 -194 -193 -323 -446
-353 -103 -13 -383 -3 -410 13 -3 2 -35 7 -70 10 -36 4 -68 9 -73 12 -10 6
-314 6 -324 0 -5 -3 -36 -8 -71 -11 -140 -14 -493 -107 -617 -162 -16 -7 -77
-32 -135 -54 -217 -86 -553 -262 -800 -418 -554 -353 -912 -698 -1004 -972 -8
-25 -18 -68 -21 -95 -6 -42 -4 -53 12 -67 20 -19 121 -38 198 -38 l50 0 -67
-70 c-108 -112 -177 -246 -193 -373 -7 -51 -5 -56 17 -71 27 -18 122 -33 191
-31 26 1 47 -1 47 -4 0 -3 -21 -26 -46 -50 -118 -112 -195 -259 -211 -399 l-5
-52 38 -16 c23 -10 79 -19 135 -22 l96 -5 -64 -64 c-114 -115 -185 -253 -199
-386 -5 -45 -3 -54 15 -64 25 -16 130 -33 200 -33 l53 0 -51 -46 c-98 -88
-191 -246 -206 -349 -4 -25 -9 -44 -11 -43 -1 2 -6 35 -9 73 -13 141 -79 339
-122 363 -14 8 -7 14 36 32 65 28 83 61 86 151 5 143 -67 396 -120 426 -12 7
-6 13 27 28 24 10 53 30 65 43 25 29 39 118 28 184 -4 24 -9 57 -11 73 -17
109 -81 270 -111 282 -10 4 3 14 39 32 81 40 97 94 77 254 -18 143 -72 291
-118 323 -17 12 -26 12 -60 1 -141 -49 -306 -214 -375 -376 -35 -83 -54 -194
-38 -214 29 -34 211 -52 337 -33 l50 7 -62 -38 c-162 -99 -293 -284 -327 -461
l-14 -72 27 -20 c44 -31 180 -42 316 -26 l60 7 -40 -22 c-152 -82 -296 -266
-339 -435 -25 -96 -22 -120 17 -141 27 -15 58 -18 195 -18 89 0 156 -2 150 -4
-33 -10 -124 -79 -181 -137 -105 -108 -181 -254 -194 -374 -6 -58 -6 -58 28
-77 29 -15 57 -18 194 -18 l160 0 -38 -20 c-172 -92 -326 -317 -344 -503 l-5
-52 38 -17 c53 -23 283 -28 369 -7 147 35 186 62 199 140 2 16 5 30 5 32 1 1
14 -4 29 -12 58 -30 233 -38 352 -16 33 6 70 13 82 15 13 2 75 6 138 9 63 4
129 8 145 11 17 2 53 7 80 10 51 6 320 50 365 60 14 4 36 8 50 11 68 13 428
106 464 120 10 4 16 -6 21 -38 3 -24 13 -86 21 -138 9 -52 18 -108 20 -125 3
-16 9 -55 14 -85 10 -61 20 -122 25 -160 2 -14 13 -83 25 -155 11 -71 25 -159
30 -195 6 -36 12 -76 14 -90 3 -14 16 -99 31 -190 14 -91 28 -181 31 -200 21
-138 91 -573 98 -610 2 -14 5 -40 5 -59 2 -80 16 4 36 209 3 30 7 69 10 85 3
17 7 61 11 98 3 38 7 76 9 85 1 10 6 55 10 102 4 47 9 93 10 102 2 9 7 48 10
85 4 37 8 79 10 93 5 35 13 114 21 190 3 36 7 72 9 80 2 8 6 49 10 90 3 41 8
86 10 100 2 14 6 54 10 90 3 36 8 81 10 100 2 19 7 60 10 90 3 30 8 71 10 90
2 19 7 60 10 90 9 96 15 154 20 190 2 19 7 60 10 90 13 132 11 127 63 135 198
28 648 170 912 288 344 154 723 387 952 584 275 238 436 415 644 705 38 53
141 224 179 298 16 30 38 69 50 85 11 17 19 32 18 35 -1 3 14 39 34 80 83 178
164 407 189 533 2 10 6 26 8 35 9 28 36 190 44 261 9 88 9 478 -1 566 -8 66
-11 87 -23 160 -3 17 -7 44 -10 60 -4 23 -32 154 -59 270 -40 178 -172 539
-288 790 -98 211 -323 632 -398 743 -16 24 -29 46 -29 49 0 4 -11 23 -24 42
-13 20 -68 106 -121 191 -54 85 -228 351 -388 589 -301 452 -400 607 -481 751
-47 84 -49 86 -193 190 -81 58 -214 155 -297 215 -83 61 -189 137 -235 170
l-83 60 6 75 c16 175 70 324 153 419 73 84 194 150 304 166 24 4 47 9 52 12 5
3 110 7 235 9 264 3 329 9 397 35 137 51 186 131 238 386 32 156 33 162 15
185 -10 13 -18 27 -18 31 0 5 -24 46 -53 90 -210 322 -486 515 -830 582 -74
15 -348 31 -358 21z m-2856 -9581 c27 -17 113 -31 185 -30 29 1 51 -2 50 -6
-2 -3 -34 -40 -73 -81 -38 -41 -77 -88 -85 -104 -8 -16 -22 -40 -31 -54 -20
-31 -59 -143 -59 -170 0 -11 -5 -20 -10 -20 -6 0 -10 6 -8 13 5 26 -22 164
-42 212 -5 11 -12 31 -16 45 -3 14 -20 45 -36 69 -16 24 -28 44 -26 45 2 1 22
11 46 21 44 19 71 54 73 97 l2 23 4 -23 c2 -12 14 -29 26 -37z"/>
<path d="M8196 10959 c-10 -64 -63 -189 -101 -241 -47 -63 -122 -122 -192
-148 -88 -33 -191 -46 -385 -48 -286 -3 -357 -12 -453 -57 -123 -59 -196 -180
-220 -365 l-5 -45 455 -330 c251 -181 464 -336 473 -343 21 -16 595 -432 1146
-832 224 -162 414 -301 424 -308 21 -16 403 -293 455 -330 42 -30 79 -57 217
-159 52 -38 138 -100 190 -138 52 -37 131 -94 175 -127 128 -94 459 -333 474
-342 10 -6 12 -5 7 3 -8 12 -453 660 -551 801 -89 128 -497 723 -529 770 -17
25 -34 50 -39 55 -9 11 -116 166 -262 381 -55 80 -106 152 -112 160 -7 7 -13
15 -13 17 0 3 -48 74 -106 159 -59 84 -150 216 -203 293 -128 188 -139 204
-341 496 -96 139 -182 263 -190 275 -8 12 -38 55 -65 96 -28 40 -86 125 -130
188 -43 63 -86 125 -95 137 l-18 23 -6 -41z"/>
<path d="M3035 4048 c-76 -27 -192 -123 -261 -213 -62 -83 -109 -194 -120
-285 -6 -46 -4 -49 23 -63 38 -19 90 -28 171 -28 186 -1 325 39 358 102 16 33
23 149 10 204 -3 17 -8 41 -11 54 -9 49 -37 137 -56 172 -35 69 -54 78 -114
57z"/>
<path d="M3035 3428 c-53 -19 -136 -78 -193 -136 -110 -114 -175 -239 -188
-364 -4 -44 -3 -48 23 -61 90 -46 343 -33 469 22 27 12 49 31 59 52 40 76 9
300 -60 438 -32 63 -49 70 -110 49z"/>
<path d="M2281 3319 c-75 -38 -184 -141 -236 -222 -62 -99 -103 -250 -74 -273
80 -62 420 -32 491 43 71 75 -14 483 -101 483 -10 0 -46 -14 -80 -31z"/>
<path d="M3005 2794 c-181 -93 -330 -298 -351 -484 -5 -47 -4 -49 28 -67 26
-14 59 -18 159 -19 191 -3 332 34 363 95 59 114 -37 502 -124 501 -14 0 -47
-12 -75 -26z"/>
<path d="M2324 2705 c-158 -47 -341 -280 -360 -460 -6 -50 -5 -52 23 -63 64
-27 169 -33 292 -18 95 12 176 48 197 88 37 72 -6 333 -72 432 -21 33 -32 35
-80 21z"/>
<path d="M1450 2588 c-157 -80 -320 -315 -316 -457 1 -38 20 -54 81 -66 34 -6
180 -7 210 -1 11 2 40 7 65 11 73 12 139 44 156 77 15 29 20 135 9 188 -3 14
-7 37 -10 51 -20 111 -74 222 -110 227 -11 1 -49 -12 -85 -30z"/>
<path d="M3028 2185 c-35 -13 -81 -39 -104 -60 -7 -5 -26 -21 -44 -35 -83 -66
-182 -217 -210 -320 -22 -82 -23 -128 -2 -139 49 -26 216 -42 287 -27 11 2 44
7 74 11 97 13 174 58 187 109 23 92 -12 299 -68 410 -36 70 -51 76 -120 51z"/>
<path d="M2284 2054 c-168 -89 -303 -277 -320 -448 l-5 -52 43 -14 c72 -23
282 -20 356 5 7 3 13 4 15 3 8 -4 88 45 100 62 44 63 -5 356 -74 444 -26 33
-53 33 -115 0z"/>
<path d="M1508 1980 c-164 -46 -353 -282 -375 -470 -5 -43 -4 -47 23 -59 16
-7 43 -16 59 -19 42 -7 193 -7 235 1 19 4 49 9 65 12 53 10 119 49 133 78 20
42 15 183 -9 262 -31 103 -43 133 -60 162 -23 37 -35 42 -71 33z"/>
</g>
</svg>
