<?xml version="1.0" encoding="UTF-8" standalone="no"?><!DOCTYPE svg PUBLIC "-//W3C//DTD SVG 1.1//EN" "http://www.w3.org/Graphics/SVG/1.1/DTD/svg11.dtd"><svg width="100%" height="100%" viewBox="0 0 86809 26042" version="1.1" xmlns="http://www.w3.org/2000/svg" xmlns:xlink="http://www.w3.org/1999/xlink" xml:space="preserve" style="fill-rule:evenodd;clip-rule:evenodd;stroke-linejoin:round;stroke-miterlimit:1.41421;"><g><g><g><path d="M7022.54,15711.7c-160.696,-97.825 -1013.05,441.146 -1062.6,1248.65c0,135.645 505.366,165.841 888.845,93.92c-302.566,114.375 -849.291,581.792 -888.845,1227.11c0,135.158 502.033,166.604 885.058,95.341c-303.5,117.571 -845.838,583.513 -885.058,1225.42c0,136.083 503.82,167.7 887.112,95.95c-302.729,115.471 -847.558,582.075 -887.112,1226.01c0,135.75 505.366,166.605 889.004,94.842c-302.554,115.363 -849.45,582.242 -889.004,1226.18c0,196.192 1059.76,177.6 1273.14,-60.875c185.038,-208.108 -49.625,-1089.58 -210.537,-1187.29c-11.563,-7.096 -34.18,-3.959 -52.463,-4.405c116.425,-31.62 213.55,-74.283 263,-129.329c185.038,-208.279 -49.625,-1089.32 -210.537,-1187.63c-11.563,-6.754 -34.18,-3.454 -52.463,-4.063c116.425,-32.279 213.55,-74.283 263,-129.987c185.038,-207.792 -49.625,-1088.15 -210.537,-1186.8c-11.563,-7.258 -33.671,-4.288 -51.955,-4.738c115.917,-31.779 213.375,-73.783 262.492,-128.995c185.038,-208.28 -49.625,-1090.08 -210.537,-1188.4c-12.055,-6.93 -34.18,-4.117 -52.904,-4.567c116.358,-31.671 213.991,-73.779 263.441,-129.046c185.038,-207.462 -49.625,-1089.1 -210.537,-1187.3l0,0.012Z" style="fill:#fff;fill-rule:nonzero;"/><path d="M4452.67,18414c0,183.155 996.816,167.425 1197.63,-58.67c174.529,-195.363 -46.117,-1023.06 -197.479,-1115.28c-150.696,-92.15 -953.754,413.938 -1000.15,1173.95l0,0Z" style="fill:#fff;fill-rule:nonzero;"/><path d="M4452.67,19758.7c0,184.037 996.816,167.383 1197.63,-57.734c174.529,-195.087 -46.117,-1022.94 -197.479,-1115.11c-150.696,-91.542 -953.754,412.946 -1000.15,1172.84Z" style="fill:#fff;fill-rule:nonzero;"/><path d="M4452.67,21103.7c0,183.762 996.816,168.308 1197.63,-58.063c174.529,-195.258 -46.117,-1023.56 -197.479,-1115.27c-150.696,-91.887 -953.754,413.925 -1000.15,1173.33Z" style="fill:#fff;fill-rule:nonzero;"/><path d="M2935.97,19873.2c0,170.167 926.121,155.388 1113.39,-53.671c160.592,-181.07 -43.729,-951.8 -183.812,-1036.43c-139.867,-85.446 -886.3,385.288 -929.588,1090.1l0.013,0Z" style="fill:#fff;fill-rule:nonzero;"/><path d="M2935.97,21248c0,171.833 926.121,157.037 1113.39,-52.68c160.592,-181.07 -43.729,-950.095 -183.812,-1036.15c-139.867,-85.379 -886.3,383.759 -929.588,1088.83l0.013,0Z" style="fill:#fff;fill-rule:nonzero;"/><path d="M2935.97,22625.1c0,170.396 926.121,155.88 1113.39,-53.495c160.592,-182.509 -43.729,-951.034 -183.812,-1035.66c-139.867,-86.65 -886.3,383.688 -929.588,1089.16l0.013,0Z" style="fill:#fff;fill-rule:nonzero;"/><path d="M1118.13,21460.2c0,171.329 927.029,155.892 1113.84,-53.829c160.083,-181.4 -44.013,-950.704 -185.533,-1035.77c-139.763,-85.938 -884.58,384.625 -928.309,1089.6Z" style="fill:#fff;fill-rule:nonzero;"/><path d="M1118.13,22835.7c0,170.684 927.029,156.38 1113.84,-53.325c160.083,-181.4 -44.013,-949.766 -185.533,-1036.59c-139.763,-84.788 -884.58,385.879 -928.309,1089.91Z" style="fill:#fff;fill-rule:nonzero;"/><path d="M4452.67,22448.8c0,184.371 996.816,168.479 1197.63,-57.617c174.529,-194.979 -46.117,-1023.89 -197.479,-1115.6c-150.696,-91.546 -953.754,413.933 -1000.15,1173.17l0,0.054Z" style="fill:#fff;fill-rule:nonzero;"/><path d="M8445.88,18385.4c0.667,8.025 0.504,16.983 0.667,25.454c-3.496,-7.204 -7.334,-15.559 -11.004,-21.721c3.054,-1.371 7.508,-2.204 10.337,-3.733l0,0Zm14036.9,-7813.12l-5845.42,-8398.46c0,0 -593,-2173.85 -2797.18,-2173.85c-1780.35,0 -3033.45,2349.58 -1912.27,4047.25c1034.32,1563.91 3629.3,5742.25 3958.42,6525.08c329.892,783.487 329.892,2023.63 -1914.23,1632.08c-2131.05,-372.409 -5686.71,1965.41 -6373.67,3038.5c-156.137,203.725 -279.333,457.325 -297.337,747.912c0,102.879 295.233,145.054 605.404,128.071c-277.725,215.975 -576.454,588.671 -605.404,1057.97c0,103.379 295.112,145.991 605.296,128.996c-277.617,215.379 -576.346,588.233 -605.296,1057.87c0,102.38 295.725,144.396 606.071,128.059c-277.725,215.379 -577.121,588.671 -606.071,1057.98c0,103.367 295.233,145.212 605.404,128.996c-277.725,215.866 -576.454,589.171 -605.404,1058.13c0,103.054 295.725,144.621 606.071,128.058c-277.725,215.555 -577.121,588.08 -606.071,1058.03c0,150.229 618.125,174.312 1005.43,70.337c1389.39,-35.25 2764.95,-488.062 2764.95,-488.062l724.654,4536.42l527.654,-4830.25c0,0 4815.04,-652.304 6464.21,-5091.62c1648.16,-4436.62 -3574.68,-9273.79 -4034.6,-11102.5l7729.42,5555l-0.037,0.009Z" style="fill:#fff;fill-rule:nonzero;"/></g><path d="M22482.8,10572.3l-8841.71,-6354.58c180.491,-2043.92 2608.98,37.45 2996.28,-2043.92l5845.42,8398.5l0.017,0Z" style="fill:#faaf41;fill-rule:nonzero;"/></g><g><g><path d="M32180.2,15450.2l-5716,0l0,5666.08l5716,0l0,1888.2l-6345.42,0c-839.85,0 -1258.33,-420.034 -1258.33,-1258.88l0,-6925.04c0,-838.842 418.475,-1258.43 1258.33,-1258.43l6345.42,0l0,1888.07Z" style="fill:#fff;fill-rule:nonzero;"/><path d="M35327,17968.4l0,3147.94l3776.93,0l0,-3147.94l-3776.93,0Zm5665.58,3777.26c0,838.846 -420.033,1258.88 -1258.26,1258.88l-5036.96,0c-839.85,0 -1259.27,-420.033 -1259.27,-1258.88l0,-4406.88c0,-839.625 419.417,-1258.93 1259.27,-1258.93l5036.96,-0.013c838.225,0.013 1258.26,419.321 1258.26,1258.95l0,4406.88Z" style="fill:#fff;fill-rule:nonzero;"/><path d="M49805,21745.6c0,838.842 -418.475,1258.88 -1257.99,1258.88l-5036.92,0c-838.225,0 -1258.15,-420.033 -1258.15,-1258.88l0,-4406.88c0,-839.625 419.925,-1258.93 1258.15,-1258.93l3777.2,0l-411.23,1888.54l-2735.4,0l0,3147.94l3776.75,0l0,-7554.12l1887.6,0l0,8183.46l-0.004,-0.005Z" style="fill:#fff;fill-rule:nonzero;"/><path d="M57360,16079.8c840.012,0 1259.55,419.308 1259.55,1258.93l0,1888.22c0,839.85 -419.538,1259.39 -1259.55,1259.39l-3775.76,0l0,-1889.17l3146.31,0l0,-628.825l-3776.93,0l0,3147.94l4400.58,0l-399.187,1888.2l-4630.5,0c-839.517,0 -1259.56,-420.033 -1259.56,-1258.88l0,-4406.88c0,-839.625 420.046,-1258.93 1259.56,-1258.93l5035.46,0l0.021,0.005Z" style="fill:#fff;fill-rule:nonzero;"/></g><g><path d="M59883.8,14820.6c0,-838.845 420.263,-1258.43 1259.56,-1258.43l5035.17,0c839.85,0 1259.39,419.587 1259.39,1258.43l0,4406.38c0,839.854 -419.538,1259.38 -1259.39,1259.38l-3776.93,0l0,-1889.15l3148.1,0l0,-3146.99l-3777.37,0l0,7554.29l-1888.55,0l0,-8183.92l0.021,0.016Z" style="fill:#48acf0;fill-rule:nonzero;"/><path d="M68696.7,23004.5l0,-6924.71l1887.93,0.017l0,6924.67l-1887.93,0l0,0.025Zm2106.31,-9442.33l-410.95,1888.04l-1695.36,0l0,-1888.04" style="fill:#48acf0;fill-rule:nonzero;"/><path d="M78139.6,16079.8c840.017,0 1260.23,419.308 1260.23,1258.93l0,1888.22c0,839.85 -420.208,1259.39 -1260.23,1259.39l-3775.58,0l0,-1889.17l3146.64,0l0.012,-628.825l-3777.44,0l0,3147.94l4400,0l-397.95,1888.2l-4630.67,0c-839.625,0 -1259.83,-420.033 -1259.83,-1258.88l0,-4406.88c0,-839.625 420.209,-1258.93 1259.83,-1258.93l5035.04,0l-0.05,0.005Z" style="fill:#48acf0;fill-rule:nonzero;"/><path d="M80658.3,23004.5l0,-5665.75c0,-839.625 418.313,-1258.93 1258.15,-1258.93l3770.82,0l-411.121,1888.54l-2729.47,0l0.017,5036.12l-1888.39,0l0,0.017Z" style="fill:#48acf0;fill-rule:nonzero;"/></g></g></g></svg>